<?xml version="1.0" encoding="UTF-8"?>
<svg version="1.1" xmlns="http://www.w3.org/2000/svg" width="360" height="360">
<path d="M0 0 C118.8 0 237.6 0 360 0 C360 118.8 360 237.6 360 360 C241.2 360 122.4 360 0 360 C0 241.2 0 122.4 0 0 Z " fill="#030303" transform="translate(0,0)"/>
<path d="M0 0 C118.8 0 237.6 0 360 0 C360 118.8 360 237.6 360 360 C329.31 360 298.62 360 267 360 C267 359.67 267 359.34 267 359 C268.02738281 358.78085937 269.05476563 358.56171875 270.11328125 358.3359375 C287.82014994 354.37225709 299.46381419 345.99136601 311.07421875 332.19140625 C313.71431393 329.18716002 316.49983291 326.3421735 319.3125 323.5 C320.10527344 322.68801147 320.10527344 322.68801147 320.9140625 321.85961914 C322.23704168 320.53300775 323.61464044 319.26132889 325 318 C325.66 318 326.32 318 327 318 C327.27972656 317.41734375 327.55945313 316.8346875 327.84765625 316.234375 C328.93175713 314.13232178 330.13144772 312.21925016 331.4375 310.25 C336.57127408 301.97216901 338.09683957 294.83539663 337 285 C336.05045915 281.72773616 334.72359197 278.93070691 333 276 C332.1646875 274.5459375 332.1646875 274.5459375 331.3125 273.0625 C323.41671098 262.60591454 313.72215897 253.50436346 304.48950195 244.24926758 C302.06452642 241.81453457 299.65044628 239.36932075 297.23632812 236.92382812 C295.66993171 235.35090409 294.10289571 233.77861668 292.53515625 232.20703125 C291.47374168 231.12709648 291.47374168 231.12709648 290.3908844 230.02534485 C281.3620591 221.03573611 272.33575841 214.13994454 259.375 213.375 C243.40416577 213.9902059 233.49366628 224.56281225 223.125 235.4375 C221.84151983 236.75619069 220.55637184 238.07326023 219.26953125 239.38867188 C216.16019641 242.57413688 213.07406953 245.78050506 210 249 C205.34639159 247.5154981 201.29152134 245.65562754 197.125 243.125 C196.47789062 242.73280273 195.83078125 242.34060547 195.1640625 241.93652344 C173.49601334 228.52941802 152.88593314 210.78039099 137.16015625 190.6953125 C135.37464074 188.46745408 133.53505224 186.35679524 131.62890625 184.234375 C127.99109109 180.09892731 124.89394982 175.72516361 121.875 171.125 C121.35655518 170.33851074 120.83811035 169.55202148 120.30395508 168.74169922 C110.6867262 153.98320361 110.6867262 153.98320361 111.30805969 150.04980469 C112.45914926 146.63981575 115.22883219 144.53388695 117.79296875 142.125 C118.99327414 140.96268925 120.19312896 139.79991306 121.39257812 138.63671875 C123.27800413 136.82513068 125.1677705 135.018676 127.06665039 133.22119141 C135.80475652 124.92073723 145.15767203 115.96984909 146.23828125 103.1796875 C146.5861857 87.68878402 139.002197 78.64774931 128.68878174 67.76116943 C123.68732169 62.54532753 118.580314 57.43373394 113.46264648 52.33227539 C111.4055386 50.28062337 109.35395454 48.22355247 107.30273438 46.16601562 C105.99250878 44.85644931 104.68197385 43.5471924 103.37109375 42.23828125 C102.75971054 41.62487381 102.14832733 41.01146637 101.51841736 40.37947083 C98.54201672 37.31732505 98.54201672 37.31732505 95 35 C95 34.34 95 33.68 95 33 C94.443125 32.7525 93.88625 32.505 93.3125 32.25 C91 31 91 31 88.75 29.125 C81.18375151 23.27835344 73.48580753 21.18563815 64 22 C43.75935647 25.74944417 23.47879888 48.22138887 11.8125 64.12890625 C5.81196988 72.94906023 2.81835211 81.56051963 1 92 C0.67 92 0.34 92 0 92 C0 61.64 0 31.28 0 0 Z " fill="#F5F5F5" transform="translate(0,0)"/>
<path d="M0 0 C7.48896892 3.32358641 13.06618891 9.62730118 18.73828125 15.33984375 C19.75055545 16.35009259 20.76327424 17.35989611 21.77641296 18.36927795 C23.88652713 20.47499457 25.99118421 22.58597625 28.09204102 24.70092773 C30.7761303 27.40215146 33.47352673 30.08962078 36.17513752 32.77330685 C38.26444224 34.85174162 40.34651321 36.93730502 42.42650414 39.02505684 C43.41820766 40.01875121 44.41211577 41.01025074 45.40831947 41.99943352 C46.80073852 43.38418072 48.18244941 44.77966991 49.5637207 46.17553711 C50.35011429 46.96431747 51.13650787 47.75309784 51.94673157 48.56578064 C55.73221454 53.05359908 57.62137615 57.25175546 57.3359375 63.0703125 C56.76172252 66.36871016 55.1237973 68.53477479 53 71 C52.41347656 71.69351563 51.82695313 72.38703125 51.22265625 73.1015625 C46.61805676 78.36641183 41.74303222 83.35462657 36.8125 88.3125 C36.23064941 88.89902344 35.64879883 89.48554688 35.04931641 90.08984375 C32.3523324 92.77685881 29.63276843 95.35823796 26.69140625 97.77734375 C23.41651865 100.48185905 21.31827854 102.57320372 20.74951172 106.90991211 C20.54649402 113.24818148 22.15333391 117.7112743 25 123.3125 C25.40935791 124.14281738 25.81871582 124.97313477 26.24047852 125.82861328 C29.646732 132.59899459 33.48764381 138.90450946 38 145 C38.75925781 146.03125 39.51851563 147.0625 40.30078125 148.125 C42.80157606 151.46985101 45.38404318 154.74471525 48 158 C48.63252686 158.79132324 48.63252686 158.79132324 49.27783203 159.59863281 C55.89486594 167.79783739 63.13997048 175.34084935 70.5625 182.8125 C71.85571167 184.11960938 71.85571167 184.11960938 73.17504883 185.453125 C79.13943749 191.38871655 85.38674165 196.80007701 92 202 C92.6597583 202.51908936 93.3195166 203.03817871 93.99926758 203.57299805 C103.49899495 210.92298842 113.51494096 217.16188408 124 223 C125.00675781 223.57234375 126.01351562 224.1446875 127.05078125 224.734375 C131.84197903 227.32263966 135.43775131 228.92704145 141 228 C146.41572326 226.07531952 149.60416172 223.70192993 153 219 C153.66 219 154.32 219 155 219 C155 218.34 155 217.68 155 217 C156.50390625 215.5546875 156.50390625 215.5546875 158.5625 213.875 C161.47260164 211.40985239 164.04319027 208.9163977 166.5 206 C177.73897095 192.78522822 177.73897095 192.78522822 185.09375 191.6875 C191.84447455 191.32746136 195.43174091 193.70110234 200.48564148 198.22494507 C201.29821915 199.03291534 202.11079681 199.84088562 202.94799805 200.67333984 C203.87883713 201.59464691 204.80967621 202.51595398 205.76872253 203.46517944 C206.76671764 204.46343596 207.76437496 205.46203027 208.76171875 206.4609375 C209.7994906 207.4948167 210.83748365 208.52847392 211.87568665 209.56192017 C214.04333994 211.72213853 216.2071125 213.88615602 218.3684082 216.05273438 C221.13049902 218.82062747 223.90380913 221.57696718 226.68036175 224.33034325 C228.8243684 226.45958173 230.96136939 228.59574586 233.09644508 230.73393631 C234.1159181 231.75289804 235.13773848 232.7695171 236.16199303 233.78367233 C237.59525064 235.20451886 239.01793547 236.63600623 240.44018555 238.06787109 C241.25037643 238.87743256 242.06056732 239.68699402 242.89530945 240.52108765 C245.70805432 243.83394901 247.78554829 247.12575077 248.28515625 251.4921875 C248.21167969 252.27851563 248.13820313 253.06484375 248.0625 253.875 C248.01222656 254.65617188 247.96195312 255.43734375 247.91015625 256.2421875 C244.95985487 265.18172732 236.48262488 271.75642793 229.9375 278.1875 C228.94679461 279.16814417 227.95655719 280.14926135 226.96679688 281.13085938 C225.1446967 282.93679253 223.31950603 284.73936832 221.49194336 286.53979492 C219.76466791 288.24507117 218.04598729 289.95908027 216.33422852 291.67993164 C208.98459665 298.98497835 200.18246977 303.26759389 189.6875 303.4375 C187.45588899 303.33569782 185.22605729 303.18740414 183 303 C181.75347656 302.90460938 180.50695312 302.80921875 179.22265625 302.7109375 C129.73566454 297.7476404 80.91817194 264.687985 45 232 C44.3493457 231.41105957 43.69869141 230.82211914 43.02832031 230.21533203 C29.65686052 218.06210335 17.17026563 205.22165526 6 191 C4.8971417 189.61588041 3.79427656 188.23176627 2.69140625 186.84765625 C-4.6912302 177.52719075 -11.67165884 168.06855305 -18 158 C-18.37962891 157.39623535 -18.75925781 156.7924707 -19.15039062 156.17041016 C-21.85664816 151.83094695 -24.45462435 147.43548372 -27 143 C-27.35916504 142.3802832 -27.71833008 141.76056641 -28.08837891 141.12207031 C-42.43892471 116.10688449 -60.5393901 78.48966936 -52.875 48.75 C-48.54174558 37.10500712 -40.81140265 29.21031338 -32.11450195 20.64794922 C-30.05827758 18.62083737 -28.02153883 16.57553006 -25.98632812 14.52734375 C-24.67038217 13.21763242 -23.35336117 11.90900019 -22.03515625 10.6015625 C-21.4338942 9.99736481 -20.83263214 9.39316711 -20.21315002 8.7706604 C-14.54524119 3.22654925 -8.44067581 -1.82529686 0 0 Z " fill="#F8F8F8" transform="translate(72,39)"/>
<path d="M0 0 C0.67235687 -0.00428009 1.34471375 -0.00856018 2.03744507 -0.01296997 C4.29063326 -0.02122639 6.54195025 0.00633059 8.79496765 0.03364563 C10.43759445 0.03517773 12.08022454 0.03450912 13.72284985 0.03181934 C18.11933927 0.03069114 22.51514739 0.05965586 26.91147614 0.09487152 C31.03774142 0.12336012 35.16384155 0.12468778 39.29020691 0.12825012 C51.35527914 0.15448008 63.42022479 0.22428599 75.4851532 0.28877258 C102.4420282 0.39189758 129.3989032 0.49502258 157.1726532 0.60127258 C157.1726532 64.95127258 157.1726532 129.30127258 157.1726532 195.60127258 C152.2226532 195.60127258 147.2726532 195.60127258 142.1726532 195.60127258 C142.1726532 190.65127258 142.1726532 185.70127258 142.1726532 180.60127258 C137.2226532 180.60127258 132.2726532 180.60127258 127.1726532 180.60127258 C127.1726532 175.65127258 127.1726532 170.70127258 127.1726532 165.60127258 C122.2226532 165.60127258 117.2726532 165.60127258 112.1726532 165.60127258 C112.1726532 160.65127258 112.1726532 155.70127258 112.1726532 150.60127258 C107.2226532 150.60127258 102.2726532 150.60127258 97.1726532 150.60127258 C97.1726532 145.65127258 97.1726532 140.70127258 97.1726532 135.60127258 C92.58280945 135.65010071 92.58280945 135.65010071 87.9929657 135.69892883 C85.1726532 135.60127258 85.1726532 135.60127258 83.1726532 134.60127258 C83.58257507 135.65185852 83.99249695 136.70244446 84.4148407 137.78486633 C92.04241238 157.55577711 92.04241238 157.55577711 91.1726532 166.60127258 C88.9726532 171.20127258 88.9726532 171.20127258 86.1726532 172.60127258 C79.01267693 173.17869002 79.01267693 173.17869002 76.09843445 171.17549133 C73.31966538 167.46107183 72.42250877 163.54187592 71.2351532 159.10127258 C70.71599228 157.28494059 70.19256601 155.46982225 69.6648407 153.65596008 C69.41057312 152.78165344 69.15630554 151.9073468 68.89433289 151.00654602 C64.10024557 135.02841738 54.80760726 122.25323681 43.1726532 110.60127258 C42.09757507 109.50879211 42.09757507 109.50879211 41.0007782 108.39424133 C28.95389835 96.91347426 9.08842526 85.60127258 -7.8273468 85.60127258 C-7.8273468 87.25127258 -7.8273468 88.90127258 -7.8273468 90.60127258 C-12.7773468 90.60127258 -17.7273468 90.60127258 -22.8273468 90.60127258 C-22.8273468 85.65127258 -22.8273468 80.70127258 -22.8273468 75.60127258 C-27.7773468 75.60127258 -32.7273468 75.60127258 -37.8273468 75.60127258 C-37.8273468 70.65127258 -37.8273468 65.70127258 -37.8273468 60.60127258 C-32.8773468 60.60127258 -27.9273468 60.60127258 -22.8273468 60.60127258 C-22.8273468 55.65127258 -22.8273468 50.70127258 -22.8273468 45.60127258 C-17.8773468 45.60127258 -12.9273468 45.60127258 -7.8273468 45.60127258 C-7.8273468 50.55127258 -7.8273468 55.50127258 -7.8273468 60.60127258 C-2.8773468 60.60127258 2.0726532 60.60127258 7.1726532 60.60127258 C7.1726532 55.65127258 7.1726532 50.70127258 7.1726532 45.60127258 C12.1226532 45.60127258 17.0726532 45.60127258 22.1726532 45.60127258 C22.1726532 40.65127258 22.1726532 35.70127258 22.1726532 30.60127258 C17.2226532 30.60127258 12.2726532 30.60127258 7.1726532 30.60127258 C7.1726532 27.96127258 7.1726532 25.32127258 7.1726532 22.60127258 C8.1626532 22.60127258 9.1526532 22.60127258 10.1726532 22.60127258 C9.38761414 22.40791321 8.60257507 22.21455383 7.79374695 22.01533508 C5.62506679 21.47782172 3.4584562 20.9319048 1.29374695 20.37861633 C-0.47605949 19.93782599 -2.25229427 19.51808181 -4.04219055 19.16767883 C-7.55258296 18.4225846 -8.87724564 17.54638387 -11.3273468 14.85127258 C-13.09822718 11.01436509 -13.2576645 9.55568033 -11.8273468 5.60127258 C-8.11071419 1.00517211 -5.86813767 -0.02244888 0 0 Z " fill="#F3F3F3" transform="translate(202.8273468017578,-0.6012725830078125)"/>
<path d="M0 0 C0.33 0 0.66 0 1 0 C1.11214844 1.27488281 1.22429688 2.54976563 1.33984375 3.86328125 C3.64264623 26.06573351 11.1653668 47.04526387 21 67 C21.45858398 67.94020996 21.91716797 68.88041992 22.38964844 69.84912109 C29.85134591 85.02606886 38.20311139 99.21967222 48 113 C48.58958496 113.83289551 49.17916992 114.66579102 49.78662109 115.52392578 C57.34853945 126.14696487 65.30851796 136.28201336 74 146 C74.80953125 146.92039063 75.6190625 147.84078125 76.453125 148.7890625 C82.58398996 155.63326709 89.03178697 162.16359999 95.5 168.6875 C96.36616943 169.56672119 97.23233887 170.44594238 98.12475586 171.35180664 C104.1013516 177.33627742 110.37086363 182.75269164 117 188 C118.18004471 188.9539854 119.3597915 189.9083396 120.5390625 190.86328125 C134.05546982 201.59086023 148.01417364 211.43293447 163 220 C163.6811084 220.39396973 164.3622168 220.78793945 165.06396484 221.19384766 C191.66914538 236.54369227 220.04719272 250.07287336 251 253 C251 253.33 251 253.66 251 254 C168.17 254 85.34 254 0 254 C0 170.18 0 86.36 0 0 Z " fill="#F6F6F6" transform="translate(0,106)"/>
<path d="M0 0 C52.14 0 104.28 0 158 0 C158 52.14 158 104.28 158 158 C157.67 158 157.34 158 157 158 C156.79246094 156.94425781 156.58492187 155.88851562 156.37109375 154.80078125 C149.13935077 119.43974463 133.51235884 87.75880057 109.01953125 61.20703125 C107.26095093 59.28517848 105.59180225 57.32352511 103.9375 55.3125 C100.63098937 51.4504239 96.92422311 48.22212568 93 45 C92.50467773 44.59233398 92.00935547 44.18466797 91.49902344 43.76464844 C65.11884527 22.18373668 33.90983142 6.25948406 0 1 C0 0.67 0 0.34 0 0 Z " fill="#FBFBFB" transform="translate(202,0)"/>
<path d="M0 0 C21.98693322 4.98623756 44.28755658 13.68375078 62.6875 26.875 C63.59113281 27.50921875 64.49476563 28.1434375 65.42578125 28.796875 C78.93361317 38.43731936 92.16964577 48.94996676 102.6875 61.875 C103.60024688 62.96355301 104.51300868 64.05209352 105.42578125 65.140625 C124.82748942 88.5454625 150.14328714 127.8833945 147.6875 159.875 C146.34043704 162.95400106 145.04093805 164.52156195 142.6875 166.875 C135.77022943 167.66878515 135.77022943 167.66878515 132.08203125 164.96484375 C128.88552599 160.84015263 128.18103034 157.04845219 127.1875 152 C126.77450547 150.10567952 126.35650086 148.21244466 125.93359375 146.3203125 C125.72718262 145.39250977 125.52077148 144.46470703 125.30810547 143.50878906 C122.77763137 132.76970384 118.5227472 122.75680341 113.6875 112.875 C113.23761719 111.90175781 112.78773438 110.92851563 112.32421875 109.92578125 C94.03370922 71.33538228 58.95792192 41.49052557 19.6875 25.875 C18.03427734 25.20017578 18.03427734 25.20017578 16.34765625 24.51171875 C8.14389967 21.36092995 -0.12996424 19.44472507 -8.76220703 17.83740234 C-14.35400779 16.7031083 -17.72066223 15.63473594 -21.3125 10.875 C-22.53261399 7.21465804 -22.66513082 5.65078781 -21.0625 2.125 C-15.70624013 -4.76161983 -7.54380721 -1.44589638 0 0 Z " fill="#030303" transform="translate(212.3125,2.125)"/>
<path d="M0 0 C1.11459595 0.34272949 1.11459595 0.34272949 2.25170898 0.69238281 C20.32480185 6.36987596 35.86764553 14.96194215 49.75 27.8125 C50.55953125 28.54082031 51.3690625 29.26914063 52.203125 30.01953125 C69.12604291 45.96612697 83.11768678 71.22474134 85.0625 94.5625 C84.71868266 98.13820031 83.91791563 99.97753341 81.75 102.8125 C78.62057535 104.37721233 75.13917777 104.50951958 71.75 103.8125 C66.99699824 100.54537073 66.22345177 95.58933309 64.8125 90.3125 C64.29333909 88.49616801 63.76991281 86.68104966 63.2421875 84.8671875 C62.98791992 83.99288086 62.73365234 83.11857422 62.47167969 82.21777344 C57.67759237 66.2396448 48.38495406 53.46446423 36.75 41.8125 C36.03328125 41.08417969 35.3165625 40.35585937 34.578125 39.60546875 C21.19773455 26.85385604 3.67157255 19.84288364 -14.10546875 15.8671875 C-17.55688817 14.70956857 -19.0878685 13.71983216 -21.25 10.8125 C-22.03818542 7.72498745 -21.89539974 4.92526868 -21.25 1.8125 C-15.94600783 -4.98323997 -7.13002474 -2.24404245 0 0 Z " fill="#030303" transform="translate(209.25,68.1875)"/>
<path d="M0 0 C5.63356643 0.50809064 9.6822022 2.68851823 14.5 5.4375 C15.29317627 5.88633545 16.08635254 6.3351709 16.90356445 6.79760742 C46.20269026 23.66073151 81.26737533 54.29363075 91 88 C90.505 89.485 90.505 89.485 90 91 C89.67 90.67 89.34 90.34 89 90 C86.98405418 89.76572222 84.961526 89.58663876 82.9375 89.4375 C79.9984375 89.2209375 79.9984375 89.2209375 77 89 C77 84.05 77 79.1 77 74 C72.05 74 67.1 74 62 74 C62 69.05 62 64.1 62 59 C57.05 59 52.1 59 47 59 C47 54.05 47 49.1 47 44 C42.05 44 37.1 44 32 44 C32 39.05 32 34.1 32 29 C27.05 29 22.1 29 17 29 C17 24.05 17 19.1 17 14 C12.05 14 7.1 14 2 14 C2 9.71 2 5.42 2 1 C1.34 0.67 0.68 0.34 0 0 Z " fill="#FCFCFC" transform="translate(238,31)"/>
<path d="M0 0 C3.57526068 1.5211704 5.8852461 3.62640544 8.62915039 6.35449219 C9.54011978 7.25592957 10.45108917 8.15736694 11.3896637 9.08612061 C12.37599088 10.07270926 13.36198018 11.05963582 14.34765625 12.046875 C15.36586478 13.06119401 16.38429574 14.07528978 17.40293884 15.08917236 C19.53547644 17.21425537 21.66410639 19.34316309 23.7902832 21.47460938 C26.5076 24.19771396 29.23609574 26.90929841 31.96788883 29.61787033 C34.07415867 31.70936454 36.17341405 33.80779182 38.27075005 35.90824127 C39.27347669 36.91045644 40.27855246 37.91032724 41.28605843 38.90773773 C42.69798354 40.30724513 44.09932843 41.7174019 45.50024414 43.12792969 C46.69793175 44.32467316 46.69793175 44.32467316 47.91981506 45.54559326 C51.72547515 50.03588525 53.62211092 54.23677734 53.3359375 60.0703125 C52.76172252 63.36871016 51.1237973 65.53477479 49 68 C48.41347656 68.69351563 47.82695313 69.38703125 47.22265625 70.1015625 C42.61805676 75.36641183 37.74303222 80.35462657 32.8125 85.3125 C32.23064941 85.89902344 31.64879883 86.48554688 31.04931641 87.08984375 C28.35231335 89.77687778 25.63475044 92.35359061 22.6875 94.765625 C18.07036635 98.60428844 16.68579166 102.10219173 16 108 C13.90647024 104.56632144 13.76562388 101.90636407 13.8046875 97.921875 C13.81113281 96.76171875 13.81757812 95.6015625 13.82421875 94.40625 C13.84097656 93.1996875 13.85773438 91.993125 13.875 90.75 C13.88402344 89.52796875 13.89304687 88.3059375 13.90234375 87.046875 C13.92590397 84.03116634 13.96177461 81.01555842 14 78 C18.95 78 23.9 78 29 78 C29 73.05 29 68.1 29 63 C33.95 63 38.9 63 44 63 C44 58.05 44 53.1 44 48 C39.05 48 34.1 48 29 48 C29 43.05 29 38.1 29 33 C24.05 33 19.1 33 14 33 C14 28.05 14 23.1 14 18 C9.05 18 4.1 18 -1 18 C-1.020625 15.586875 -1.04125 13.17375 -1.0625 10.6875 C-1.071604 9.93170654 -1.08070801 9.17591309 -1.09008789 8.3972168 C-1.10287966 5.3160507 -0.98131601 2.94394804 0 0 Z " fill="#FBFBFB" transform="translate(76,42)"/>
<path d="M0 0 C1.37313591 -0.10985087 2.74894513 -0.18641991 4.125 -0.25 C4.89070313 -0.29640625 5.65640625 -0.3428125 6.4453125 -0.390625 C11.98753053 0.45680895 16.10231832 4.84946548 19.94799805 8.67333984 C21.34425667 10.05530045 21.34425667 10.05530045 22.76872253 11.46517944 C23.76671764 12.46343596 24.76437496 13.46203027 25.76171875 14.4609375 C26.7994906 15.4948167 27.83748365 16.52847392 28.87568665 17.56192017 C31.04333994 19.72213853 33.2071125 21.88615602 35.3684082 24.05273438 C38.13049902 26.82062747 40.90380913 29.57696718 43.68036175 32.33034325 C45.8243684 34.45958173 47.96136939 36.59574586 50.09644508 38.73393631 C51.1159181 39.75289804 52.13773848 40.7695171 53.16199303 41.78367233 C54.59525064 43.20451886 56.01793547 44.63600623 57.44018555 46.06787109 C58.25037643 46.87743256 59.06056732 47.68699402 59.89530945 48.52108765 C62.70805432 51.83394901 64.78554829 55.12575077 65.28515625 59.4921875 C65.21167969 60.27851563 65.13820313 61.06484375 65.0625 61.875 C65.01222656 62.65617187 64.96195312 63.43734375 64.91015625 64.2421875 C61.95985487 73.18172732 53.48262488 79.75642793 46.9375 86.1875 C45.94679461 87.16814417 44.95655719 88.14926135 43.96679688 89.13085938 C42.1446967 90.93679253 40.31950603 92.73936832 38.49194336 94.53979492 C36.76122411 96.24847111 35.03724084 97.96398639 33.31860352 99.68481445 C26.47336682 106.51996025 19.77611569 110.16590517 9.94287109 110.27246094 C6.95867628 110.24004702 3.98080561 110.14307867 1 110 C1 109.67 1 109.34 1 109 C7.435 108.505 7.435 108.505 14 108 C14.33 105.03 14.66 102.06 15 99 C19.95 99 24.9 99 30 99 C30 94.05 30 89.1 30 84 C34.95 84 39.9 84 45 84 C45 79.05 45 74.1 45 69 C49.95 69 54.9 69 60 69 C60 64.05 60 59.1 60 54 C55.05 54 50.1 54 45 54 C45 49.05 45 44.1 45 39 C40.05 39 35.1 39 30 39 C30 34.05 30 29.1 30 24 C25.05 24 20.1 24 15 24 C15 19.05 15 14.1 15 9 C10.05 9 5.1 9 0 9 C-1 2 -1 2 0 0 Z " fill="#FDFDFD" transform="translate(255,231)"/>
<path d="M0 0 C4.95 0 9.9 0 15 0 C15 4.95 15 9.9 15 15 C19.95 15 24.9 15 30 15 C30 19.95 30 24.9 30 30 C34.95 30 39.9 30 45 30 C45 34.95 45 39.9 45 45 C49.95 45 54.9 45 60 45 C60 49.29 60 53.58 60 58 C56 59 56 59 53.94921875 58.13671875 C52.82966797 57.41935547 52.82966797 57.41935547 51.6875 56.6875 C50.80320313 56.12417969 49.91890625 55.56085938 49.0078125 54.98046875 C48.01523438 54.32691406 47.02265625 53.67335938 46 53 C44.35644531 51.94232422 44.35644531 51.94232422 42.6796875 50.86328125 C32.91501146 44.52007032 23.50734598 37.70497144 14.24316406 30.65478516 C12.16079495 29.11861865 10.03913231 27.6981272 7.8671875 26.29296875 C-0.49535965 20.58791378 -0.49535965 20.58791378 -1.43408203 15.77392578 C-1.72349539 10.39895374 -1.00310047 5.27062616 0 0 Z " fill="#F2F2F2" transform="translate(120,255)"/>
<path d="M0 0 C4.62 0 9.24 0 14 0 C14 4.95 14 9.9 14 15 C18.95 15 23.9 15 29 15 C29 19.95 29 24.9 29 30 C33.95 30 38.9 30 44 30 C44 34.95 44 39.9 44 45 C48.95 45 53.9 45 59 45 C59 49.95 59 54.9 59 60 C63.95 60 68.9 60 74 60 C74 64.62 74 69.24 74 74 C72.515 74.495 72.515 74.495 71 75 C68.73351361 73.66821015 66.72044056 72.31701768 64.625 70.75 C63.6983252 70.07142944 63.6983252 70.07142944 62.75292969 69.37915039 C56.24611413 64.55207441 50.08373042 59.34490545 44 54 C43.12601563 53.23816406 42.25203125 52.47632813 41.3515625 51.69140625 C32.20252439 43.59580628 23.66858793 35.11948057 16.0546875 25.5546875 C14.22451239 23.27914658 12.33214588 21.1034081 10.375 18.9375 C0 7.12895199 0 7.12895199 0 0 Z " fill="#EEEEEE" transform="translate(121,165)"/>
<path d="M0 0 C4.95 0 9.9 0 15 0 C15 4.95 15 9.9 15 15 C19.95 15 24.9 15 30 15 C30 19.95 30 24.9 30 30 C34.95 30 39.9 30 45 30 C45 34.95 45 39.9 45 45 C49.95 45 54.9 45 60 45 C60 49.95 60 54.9 60 60 C64.95 60 69.9 60 75 60 C75 64.95 75 69.9 75 75 C63.375 75.125 63.375 75.125 60 74 C58.66043944 71.7248262 57.47154503 69.48926829 56.3125 67.125 C44.73795298 44.5518207 26.06222321 26.31941316 2.79296875 16.0703125 C1 15 1 15 0 12 C-0.13399703 7.99616868 -0.04308887 4.0072645 0 0 Z " fill="#EEEEEE" transform="translate(225,60)"/>
<path d="M0 0 C4.95 0 9.9 0 15 0 C15 4.95 15 9.9 15 15 C19.95 15 24.9 15 30 15 C30 19.95 30 24.9 30 30 C34.95 30 39.9 30 45 30 C45 34.95 45 39.9 45 45 C49.95 45 54.9 45 60 45 C60 49.95 60 54.9 60 60 C64.95 60 69.9 60 75 60 C75 64.95 75 69.9 75 75 C67.53537376 76.30196969 67.53537376 76.30196969 63 75 C59.39480409 71.05831914 56.94058119 66.64620676 54.26953125 62.04394531 C52.27990588 58.84064846 49.91133832 56.02473427 47.4375 53.1875 C46.97682129 52.65664795 46.51614258 52.1257959 46.04150391 51.57885742 C45.13446406 50.54175815 44.2238986 49.50773015 43.30957031 48.47705078 C42.05800739 47.06542593 40.82157691 45.64042773 39.5859375 44.21484375 C33.07265505 36.79507354 25.90392088 30.67241284 18.1875 24.5625 C17.5896167 24.08562744 16.9917334 23.60875488 16.37573242 23.11743164 C13.53210392 20.87621803 10.72695645 18.8289097 7.65234375 16.90234375 C0.29413182 12.27853832 0.29413182 12.27853832 -0.67578125 8.0625 C-0.6875 5 -0.6875 5 0 0 Z " fill="#EDEDED" transform="translate(270,15)"/>
<path d="M0 0 C3.50607038 1.32356109 6.68562481 2.87178173 9.921875 4.7578125 C11.32421387 5.56702148 11.32421387 5.56702148 12.75488281 6.39257812 C13.74327148 6.96427734 14.73166016 7.53597656 15.75 8.125 C25.30945502 13.59357503 34.96105122 18.48896375 45 23 C45.9075 23.44472656 46.815 23.88945312 47.75 24.34765625 C63.92799154 32.20914901 82.08738192 37.45580879 100 39 C100 39.33 100 39.66 100 40 C76.57 40 53.14 40 29 40 C29 35.05 29 30.1 29 25 C24.05 25 19.1 25 14 25 C14 20.05 14 15.1 14 10 C9.05 10 4.1 10 -1 10 C-1.09765625 3.06640625 -1.09765625 3.06640625 -1 1 C-0.67 0.67 -0.34 0.34 0 0 Z " fill="#FCFCFC" transform="translate(151,320)"/>
<path d="M0 0 C4.95 0 9.9 0 15 0 C15 4.95 15 9.9 15 15 C19.95 15 24.9 15 30 15 C30 10.05 30 5.1 30 0 C34.95 0 39.9 0 45 0 C45 4.95 45 9.9 45 15 C49.95 15 54.9 15 60 15 C60.25 23.625 60.25 23.625 58 27 C42.67178846 29.24846005 26.44077267 24.75627172 12 20 C10.85144531 19.63390625 9.70289063 19.2678125 8.51953125 18.890625 C2.96272782 17.02158374 2.96272782 17.02158374 1 16 C-0.7213061 10.83608171 -0.05353552 5.40708764 0 0 Z " fill="#EFEFEF" transform="translate(210,315)"/>
<path d="M0 0 C4.29 0 8.58 0 13 0 C13 4.95 13 9.9 13 15 C17.95 15 22.9 15 28 15 C28 19.95 28 24.9 28 30 C23.55120261 30.49986487 20.32067509 30.83907183 16 30 C12.71133414 27.2690611 11.04422661 23.70792618 9 20 C8.11736151 18.63113372 7.22334858 17.26955925 6.3203125 15.9140625 C5.37952688 14.48482333 4.43942207 13.05513578 3.5 11.625 C3.04157715 10.93535156 2.5831543 10.24570313 2.11083984 9.53515625 C0.97656395 7.74828925 -0.02212266 5.87702727 -1 4 C-0.67 2.68 -0.34 1.36 0 0 Z " fill="#EDEDED" transform="translate(47,180)"/>
<path d="M0 0 C2.64 0 5.28 0 8 0 C8 4.95 8 9.9 8 15 C12.95 15 17.9 15 23 15 C23 19.95 23 24.9 23 30 C18.05 30.33 13.1 30.66 8 31 C6.64822988 27.52703703 5.31850684 24.04807974 4 20.5625 C3.6184375 19.58861328 3.236875 18.61472656 2.84375 17.61132812 C0.53067528 11.43624472 -0.4362969 6.59217349 0 0 Z " fill="#EDEDED" transform="translate(22,120)"/>
<path d="M0 0 C6.67466252 -0.40802435 11.6154841 0.90819329 17.8125 3.3125 C18.65748047 3.62123047 19.50246094 3.92996094 20.37304688 4.24804688 C27.5923803 6.97178268 27.5923803 6.97178268 30 10 C30.40743792 14.36230202 30.13040636 18.60965258 30 23 C25.05 23 20.1 23 15 23 C15 18.05 15 13.1 15 8 C10.05 8 5.1 8 0 8 C0 5.36 0 2.72 0 0 Z " fill="#EDEDED" transform="translate(210,22)"/>
<path d="M0 0 C11.625 -0.125 11.625 -0.125 15 1 C16.17209374 3.33822263 17.14545259 5.5637 18.0625 8 C18.45610718 9.0206958 18.45610718 9.0206958 18.85766602 10.06201172 C24.0180688 23.74398672 24.0180688 23.74398672 22 30 C19.69 30 17.38 30 15 30 C15 25.05 15 20.1 15 15 C10.05 15 5.1 15 0 15 C0 10.05 0 5.1 0 0 Z " fill="#EDEDED" transform="translate(315,120)"/>
<path d="M0 0 C0 4.95 0 9.9 0 15 C-4.95 15 -9.9 15 -15 15 C-15.33 13.02 -15.66 11.04 -16 9 C-22.6 15.6 -29.2 22.2 -36 29 C-34.02 29.33 -32.04 29.66 -30 30 C-30 34.62 -30 39.24 -30 44 C-30.99 44 -31.98 44 -33 44 C-34.03544174 42.09118566 -35.05290085 40.17260796 -36.0625 38.25 C-36.63097656 37.18265625 -37.19945313 36.1153125 -37.78515625 35.015625 C-39.33360155 31.17189584 -39.33360155 31.17189584 -38 28 C-36.25324681 25.97402264 -34.51123539 24.11465428 -32.609375 22.24609375 C-32.06774719 21.70396744 -31.52611938 21.16184113 -30.96807861 20.60328674 C-29.82166468 19.45921062 -28.6715627 18.31881985 -27.51806641 17.18188477 C-25.76159682 15.44894149 -24.01875442 13.70313916 -22.27734375 11.95507812 C-21.15964289 10.84295676 -20.04117759 9.73160303 -18.921875 8.62109375 C-18.403974 8.10228134 -17.886073 7.58346893 -17.35247803 7.04893494 C-11.49864123 1.30738901 -7.99224268 -0.40638522 0 0 Z " fill="#EDEDED" transform="translate(150,120)"/>
<path d="M0 0 C5.90357247 2.23488568 11.25658544 5.35377342 16.75 8.4375 C18.34908203 9.31631836 18.34908203 9.31631836 19.98046875 10.21289062 C20.99238281 10.78072266 22.00429687 11.34855469 23.046875 11.93359375 C23.97338867 12.44978271 24.89990234 12.96597168 25.85449219 13.49780273 C28 15 28 15 29 18 C29 20.31 29 22.62 29 25 C24.05 25 19.1 25 14 25 C14 20.05 14 15.1 14 10 C9.05 10 4.1 10 -1 10 C-1.09765625 3.06640625 -1.09765625 3.06640625 -1 1 C-0.67 0.67 -0.34 0.34 0 0 Z " fill="#EDEDED" transform="translate(151,320)"/>
<path d="M0 0 C4.95 0 9.9 0 15 0 C15 4.95 15 9.9 15 15 C10.71 15 6.42 15 2 15 C2 15.66 2 16.32 2 17 C1.34 17 0.68 17 0 17 C-1.06775224 15.03533587 -2.06553465 13.03144641 -3 11 C-2.67 10.34 -2.34 9.68 -2 9 C-1.67 9.33 -1.34 9.66 -1 10 C-0.67 6.7 -0.34 3.4 0 0 Z " fill="#FEFEFE" transform="translate(45,165)"/>
<path d="M0 0 C4.95 0 9.9 0 15 0 C15 4.95 15 9.9 15 15 C10.38 15 5.76 15 1 15 C1.33 15.99 1.66 16.98 2 18 C1.01 17.67 0.02 17.34 -1 17 C-1.33 15.35 -1.66 13.7 -2 12 C-1.67 12 -1.34 12 -1 12 C-0.67 8.04 -0.34 4.08 0 0 Z " fill="#FEFEFE" transform="translate(120,150)"/>
<path d="M0 0 C4.95 0 9.9 0 15 0 C15 4.95 15 9.9 15 15 C10.45898438 15.34179688 10.45898438 15.34179688 5.91796875 15.68359375 C2.94010095 15.90212461 2.94010095 15.90212461 0 17 C-0.66 15.68 -1.32 14.36 -2 13 C-1.67 13 -1.34 13 -1 13 C-0.67 8.71 -0.34 4.42 0 0 Z " fill="#FEFEFE" transform="translate(195,225)"/>
<path d="M0 0 C1.485 0.99 1.485 0.99 3 2 C2.67 2.99 2.34 3.98 2 5 C1.34 3.35 0.68 1.7 0 0 Z M-13 5 C-8.05 5 -3.1 5 2 5 C2 9.95 2 14.9 2 20 C-2.95 20 -7.9 20 -13 20 C-13 15.05 -13 10.1 -13 5 Z " fill="#FEFEFE" transform="translate(28,190)"/>
<path d="M0 0 C-0.33 0.66 -0.66 1.32 -1 2 C-1.22950319 4.204364 -1.41075933 6.41392173 -1.5625 8.625 C-1.706875 10.72875 -1.85125 12.8325 -2 15 C-6.95 15 -11.9 15 -17 15 C-17 10.05 -17 5.1 -17 0 C-13.349375 -0.2784375 -13.349375 -0.2784375 -9.625 -0.5625 C-8.47765381 -0.65446655 -8.47765381 -0.65446655 -7.30712891 -0.74829102 C-2.22222222 -1.11111111 -2.22222222 -1.11111111 0 0 Z " fill="#FEFEFE" transform="translate(107,180)"/>
<path d="M0 0 C4.95 0 9.9 0 15 0 C15 4.95 15 9.9 15 15 C10.05 15.33 5.1 15.66 0 16 C0 10.72 0 5.44 0 0 Z " fill="#EDEDED" transform="translate(120,255)"/>
<path d="M0 0 C4.95 0 9.9 0 15 0 C15 4.95 15 9.9 15 15 C10.05 15 5.1 15 0 15 C0 10.05 0 5.1 0 0 Z " fill="#FFFFFF" transform="translate(345,345)"/>
<path d="M0 0 C4.95 0 9.9 0 15 0 C15 4.95 15 9.9 15 15 C10.05 15 5.1 15 0 15 C0 10.05 0 5.1 0 0 Z " fill="#EEEEEE" transform="translate(330,345)"/>
<path d="M0 0 C4.95 0 9.9 0 15 0 C15 4.95 15 9.9 15 15 C10.05 15 5.1 15 0 15 C0 10.05 0 5.1 0 0 Z " fill="#FFFFFF" transform="translate(315,345)"/>
<path d="M0 0 C4.95 0 9.9 0 15 0 C15 4.95 15 9.9 15 15 C10.05 15 5.1 15 0 15 C0 10.05 0 5.1 0 0 Z " fill="#EEEEEE" transform="translate(180,345)"/>
<path d="M0 0 C4.95 0 9.9 0 15 0 C15 4.95 15 9.9 15 15 C10.05 15 5.1 15 0 15 C0 10.05 0 5.1 0 0 Z " fill="#FFFFFF" transform="translate(165,345)"/>
<path d="M0 0 C4.95 0 9.9 0 15 0 C15 4.95 15 9.9 15 15 C10.05 15 5.1 15 0 15 C0 10.05 0 5.1 0 0 Z " fill="#EEEEEE" transform="translate(150,345)"/>
<path d="M0 0 C4.95 0 9.9 0 15 0 C15 4.95 15 9.9 15 15 C10.05 15 5.1 15 0 15 C0 10.05 0 5.1 0 0 Z " fill="#FFFFFF" transform="translate(135,345)"/>
<path d="M0 0 C4.95 0 9.9 0 15 0 C15 4.95 15 9.9 15 15 C10.05 15 5.1 15 0 15 C0 10.05 0 5.1 0 0 Z " fill="#EEEEEE" transform="translate(120,345)"/>
<path d="M0 0 C4.95 0 9.9 0 15 0 C15 4.95 15 9.9 15 15 C10.05 15 5.1 15 0 15 C0 10.05 0 5.1 0 0 Z " fill="#FFFFFF" transform="translate(105,345)"/>
<path d="M0 0 C4.95 0 9.9 0 15 0 C15 4.95 15 9.9 15 15 C10.05 15 5.1 15 0 15 C0 10.05 0 5.1 0 0 Z " fill="#EEEEEE" transform="translate(90,345)"/>
<path d="M0 0 C4.95 0 9.9 0 15 0 C15 4.95 15 9.9 15 15 C10.05 15 5.1 15 0 15 C0 10.05 0 5.1 0 0 Z " fill="#FFFFFF" transform="translate(75,345)"/>
<path d="M0 0 C4.95 0 9.9 0 15 0 C15 4.95 15 9.9 15 15 C10.05 15 5.1 15 0 15 C0 10.05 0 5.1 0 0 Z " fill="#EEEEEE" transform="translate(60,345)"/>
<path d="M0 0 C4.95 0 9.9 0 15 0 C15 4.95 15 9.9 15 15 C10.05 15 5.1 15 0 15 C0 10.05 0 5.1 0 0 Z " fill="#FFFFFF" transform="translate(45,345)"/>
<path d="M0 0 C4.95 0 9.9 0 15 0 C15 4.95 15 9.9 15 15 C10.05 15 5.1 15 0 15 C0 10.05 0 5.1 0 0 Z " fill="#EEEEEE" transform="translate(30,345)"/>
<path d="M0 0 C4.95 0 9.9 0 15 0 C15 4.95 15 9.9 15 15 C10.05 15 5.1 15 0 15 C0 10.05 0 5.1 0 0 Z " fill="#FFFFFF" transform="translate(15,345)"/>
<path d="M0 0 C4.95 0 9.9 0 15 0 C15 4.95 15 9.9 15 15 C10.05 15 5.1 15 0 15 C0 10.05 0 5.1 0 0 Z " fill="#EEEEEE" transform="translate(0,345)"/>
<path d="M0 0 C4.95 0 9.9 0 15 0 C15 4.95 15 9.9 15 15 C10.05 15 5.1 15 0 15 C0 10.05 0 5.1 0 0 Z " fill="#FFFFFF" transform="translate(330,330)"/>
<path d="M0 0 C4.95 0 9.9 0 15 0 C15 4.95 15 9.9 15 15 C10.05 15 5.1 15 0 15 C0 10.05 0 5.1 0 0 Z " fill="#FFFFFF" transform="translate(150,330)"/>
<path d="M0 0 C4.95 0 9.9 0 15 0 C15 4.95 15 9.9 15 15 C10.05 15 5.1 15 0 15 C0 10.05 0 5.1 0 0 Z " fill="#EEEEEE" transform="translate(135,330)"/>
<path d="M0 0 C4.95 0 9.9 0 15 0 C15 4.95 15 9.9 15 15 C10.05 15 5.1 15 0 15 C0 10.05 0 5.1 0 0 Z " fill="#FFFFFF" transform="translate(120,330)"/>
<path d="M0 0 C4.95 0 9.9 0 15 0 C15 4.95 15 9.9 15 15 C10.05 15 5.1 15 0 15 C0 10.05 0 5.1 0 0 Z " fill="#EEEEEE" transform="translate(105,330)"/>
<path d="M0 0 C4.95 0 9.9 0 15 0 C15 4.95 15 9.9 15 15 C10.05 15 5.1 15 0 15 C0 10.05 0 5.1 0 0 Z " fill="#FFFFFF" transform="translate(90,330)"/>
<path d="M0 0 C4.95 0 9.9 0 15 0 C15 4.95 15 9.9 15 15 C10.05 15 5.1 15 0 15 C0 10.05 0 5.1 0 0 Z " fill="#EEEEEE" transform="translate(75,330)"/>
<path d="M0 0 C4.95 0 9.9 0 15 0 C15 4.95 15 9.9 15 15 C10.05 15 5.1 15 0 15 C0 10.05 0 5.1 0 0 Z " fill="#FFFFFF" transform="translate(60,330)"/>
<path d="M0 0 C4.95 0 9.9 0 15 0 C15 4.95 15 9.9 15 15 C10.05 15 5.1 15 0 15 C0 10.05 0 5.1 0 0 Z " fill="#EEEEEE" transform="translate(45,330)"/>
<path d="M0 0 C4.95 0 9.9 0 15 0 C15 4.95 15 9.9 15 15 C10.05 15 5.1 15 0 15 C0 10.05 0 5.1 0 0 Z " fill="#FFFFFF" transform="translate(30,330)"/>
<path d="M0 0 C4.95 0 9.9 0 15 0 C15 4.95 15 9.9 15 15 C10.05 15 5.1 15 0 15 C0 10.05 0 5.1 0 0 Z " fill="#EEEEEE" transform="translate(15,330)"/>
<path d="M0 0 C4.95 0 9.9 0 15 0 C15 4.95 15 9.9 15 15 C10.05 15 5.1 15 0 15 C0 10.05 0 5.1 0 0 Z " fill="#FFFFFF" transform="translate(0,330)"/>
<path d="M0 0 C4.95 0 9.9 0 15 0 C15 4.95 15 9.9 15 15 C10.05 15 5.1 15 0 15 C0 10.05 0 5.1 0 0 Z " fill="#FFFFFF" transform="translate(345,315)"/>
<path d="M0 0 C4.95 0 9.9 0 15 0 C15 4.95 15 9.9 15 15 C10.05 15 5.1 15 0 15 C0 10.05 0 5.1 0 0 Z " fill="#EEEEEE" transform="translate(270,315)"/>
<path d="M0 0 C4.95 0 9.9 0 15 0 C15 4.95 15 9.9 15 15 C10.05 15 5.1 15 0 15 C0 10.05 0 5.1 0 0 Z " fill="#FFFFFF" transform="translate(255,315)"/>
<path d="M0 0 C4.95 0 9.9 0 15 0 C15 4.95 15 9.9 15 15 C10.05 15 5.1 15 0 15 C0 10.05 0 5.1 0 0 Z " fill="#FFFFFF" transform="translate(225,315)"/>
<path d="M0 0 C4.95 0 9.9 0 15 0 C15 4.95 15 9.9 15 15 C10.05 15 5.1 15 0 15 C0 10.05 0 5.1 0 0 Z " fill="#EEEEEE" transform="translate(120,315)"/>
<path d="M0 0 C4.95 0 9.9 0 15 0 C15 4.95 15 9.9 15 15 C10.05 15 5.1 15 0 15 C0 10.05 0 5.1 0 0 Z " fill="#FFFFFF" transform="translate(105,315)"/>
<path d="M0 0 C4.95 0 9.9 0 15 0 C15 4.95 15 9.9 15 15 C10.05 15 5.1 15 0 15 C0 10.05 0 5.1 0 0 Z " fill="#EEEEEE" transform="translate(90,315)"/>
<path d="M0 0 C4.95 0 9.9 0 15 0 C15 4.95 15 9.9 15 15 C10.05 15 5.1 15 0 15 C0 10.05 0 5.1 0 0 Z " fill="#FFFFFF" transform="translate(75,315)"/>
<path d="M0 0 C4.95 0 9.9 0 15 0 C15 4.95 15 9.9 15 15 C10.05 15 5.1 15 0 15 C0 10.05 0 5.1 0 0 Z " fill="#EEEEEE" transform="translate(60,315)"/>
<path d="M0 0 C4.95 0 9.9 0 15 0 C15 4.95 15 9.9 15 15 C10.05 15 5.1 15 0 15 C0 10.05 0 5.1 0 0 Z " fill="#FFFFFF" transform="translate(45,315)"/>
<path d="M0 0 C4.95 0 9.9 0 15 0 C15 4.95 15 9.9 15 15 C10.05 15 5.1 15 0 15 C0 10.05 0 5.1 0 0 Z " fill="#EEEEEE" transform="translate(30,315)"/>
<path d="M0 0 C4.95 0 9.9 0 15 0 C15 4.95 15 9.9 15 15 C10.05 15 5.1 15 0 15 C0 10.05 0 5.1 0 0 Z " fill="#FFFFFF" transform="translate(15,315)"/>
<path d="M0 0 C4.95 0 9.9 0 15 0 C15 4.95 15 9.9 15 15 C10.05 15 5.1 15 0 15 C0 10.05 0 5.1 0 0 Z " fill="#EEEEEE" transform="translate(0,315)"/>
<path d="M0 0 C4.95 0 9.9 0 15 0 C15 4.95 15 9.9 15 15 C10.05 15 5.1 15 0 15 C0 10.05 0 5.1 0 0 Z " fill="#EEEEEE" transform="translate(345,300)"/>
<path d="M0 0 C4.95 0 9.9 0 15 0 C15 4.95 15 9.9 15 15 C10.05 15 5.1 15 0 15 C0 10.05 0 5.1 0 0 Z " fill="#EEEEEE" transform="translate(285,300)"/>
<path d="M0 0 C4.95 0 9.9 0 15 0 C15 4.95 15 9.9 15 15 C10.05 15 5.1 15 0 15 C0 10.05 0 5.1 0 0 Z " fill="#FFFFFF" transform="translate(270,300)"/>
<path d="M0 0 C4.95 0 9.9 0 15 0 C15 4.95 15 9.9 15 15 C10.05 15 5.1 15 0 15 C0 10.05 0 5.1 0 0 Z " fill="#EEEEEE" transform="translate(255,300)"/>
<path d="M0 0 C4.95 0 9.9 0 15 0 C15 4.95 15 9.9 15 15 C10.05 15 5.1 15 0 15 C0 10.05 0 5.1 0 0 Z " fill="#FFFFFF" transform="translate(240,300)"/>
<path d="M0 0 C4.95 0 9.9 0 15 0 C15 4.95 15 9.9 15 15 C10.05 15 5.1 15 0 15 C0 10.05 0 5.1 0 0 Z " fill="#EEEEEE" transform="translate(225,300)"/>
<path d="M0 0 C4.95 0 9.9 0 15 0 C15 4.95 15 9.9 15 15 C10.05 15 5.1 15 0 15 C0 10.05 0 5.1 0 0 Z " fill="#FFFFFF" transform="translate(210,300)"/>
<path d="M0 0 C4.95 0 9.9 0 15 0 C15 4.95 15 9.9 15 15 C10.05 15 5.1 15 0 15 C0 10.05 0 5.1 0 0 Z " fill="#EEEEEE" transform="translate(195,300)"/>
<path d="M0 0 C4.95 0 9.9 0 15 0 C15 4.95 15 9.9 15 15 C10.05 15 5.1 15 0 15 C0 10.05 0 5.1 0 0 Z " fill="#EEEEEE" transform="translate(105,300)"/>
<path d="M0 0 C4.95 0 9.9 0 15 0 C15 4.95 15 9.9 15 15 C10.05 15 5.1 15 0 15 C0 10.05 0 5.1 0 0 Z " fill="#FFFFFF" transform="translate(90,300)"/>
<path d="M0 0 C4.95 0 9.9 0 15 0 C15 4.95 15 9.9 15 15 C10.05 15 5.1 15 0 15 C0 10.05 0 5.1 0 0 Z " fill="#EEEEEE" transform="translate(75,300)"/>
<path d="M0 0 C4.95 0 9.9 0 15 0 C15 4.95 15 9.9 15 15 C10.05 15 5.1 15 0 15 C0 10.05 0 5.1 0 0 Z " fill="#FFFFFF" transform="translate(60,300)"/>
<path d="M0 0 C4.95 0 9.9 0 15 0 C15 4.95 15 9.9 15 15 C10.05 15 5.1 15 0 15 C0 10.05 0 5.1 0 0 Z " fill="#EEEEEE" transform="translate(45,300)"/>
<path d="M0 0 C4.95 0 9.9 0 15 0 C15 4.95 15 9.9 15 15 C10.05 15 5.1 15 0 15 C0 10.05 0 5.1 0 0 Z " fill="#FFFFFF" transform="translate(30,300)"/>
<path d="M0 0 C4.95 0 9.9 0 15 0 C15 4.95 15 9.9 15 15 C10.05 15 5.1 15 0 15 C0 10.05 0 5.1 0 0 Z " fill="#EEEEEE" transform="translate(15,300)"/>
<path d="M0 0 C4.95 0 9.9 0 15 0 C15 4.95 15 9.9 15 15 C10.05 15 5.1 15 0 15 C0 10.05 0 5.1 0 0 Z " fill="#FFFFFF" transform="translate(0,300)"/>
<path d="M0 0 C4.95 0 9.9 0 15 0 C15 4.95 15 9.9 15 15 C10.05 15 5.1 15 0 15 C0 10.05 0 5.1 0 0 Z " fill="#FFFFFF" transform="translate(345,285)"/>
<path d="M0 0 C4.95 0 9.9 0 15 0 C15 4.95 15 9.9 15 15 C10.05 15 5.1 15 0 15 C0 10.05 0 5.1 0 0 Z " fill="#EEEEEE" transform="translate(300,285)"/>
<path d="M0 0 C4.95 0 9.9 0 15 0 C15 4.95 15 9.9 15 15 C10.05 15 5.1 15 0 15 C0 10.05 0 5.1 0 0 Z " fill="#FFFFFF" transform="translate(285,285)"/>
<path d="M0 0 C4.95 0 9.9 0 15 0 C15 4.95 15 9.9 15 15 C10.05 15 5.1 15 0 15 C0 10.05 0 5.1 0 0 Z " fill="#EEEEEE" transform="translate(270,285)"/>
<path d="M0 0 C4.95 0 9.9 0 15 0 C15 4.95 15 9.9 15 15 C10.05 15 5.1 15 0 15 C0 10.05 0 5.1 0 0 Z " fill="#FFFFFF" transform="translate(255,285)"/>
<path d="M0 0 C4.95 0 9.9 0 15 0 C15 4.95 15 9.9 15 15 C10.05 15 5.1 15 0 15 C0 10.05 0 5.1 0 0 Z " fill="#EEEEEE" transform="translate(240,285)"/>
<path d="M0 0 C4.95 0 9.9 0 15 0 C15 4.95 15 9.9 15 15 C10.05 15 5.1 15 0 15 C0 10.05 0 5.1 0 0 Z " fill="#FFFFFF" transform="translate(225,285)"/>
<path d="M0 0 C4.95 0 9.9 0 15 0 C15 4.95 15 9.9 15 15 C10.05 15 5.1 15 0 15 C0 10.05 0 5.1 0 0 Z " fill="#EEEEEE" transform="translate(210,285)"/>
<path d="M0 0 C4.95 0 9.9 0 15 0 C15 4.95 15 9.9 15 15 C10.05 15 5.1 15 0 15 C0 10.05 0 5.1 0 0 Z " fill="#FFFFFF" transform="translate(195,285)"/>
<path d="M0 0 C4.95 0 9.9 0 15 0 C15 4.95 15 9.9 15 15 C10.05 15 5.1 15 0 15 C0 10.05 0 5.1 0 0 Z " fill="#EEEEEE" transform="translate(180,285)"/>
<path d="M0 0 C4.95 0 9.9 0 15 0 C15 4.95 15 9.9 15 15 C10.05 15 5.1 15 0 15 C0 10.05 0 5.1 0 0 Z " fill="#FFFFFF" transform="translate(165,285)"/>
<path d="M0 0 C4.95 0 9.9 0 15 0 C15 4.95 15 9.9 15 15 C10.05 15 5.1 15 0 15 C0 10.05 0 5.1 0 0 Z " fill="#FFFFFF" transform="translate(75,285)"/>
<path d="M0 0 C4.95 0 9.9 0 15 0 C15 4.95 15 9.9 15 15 C10.05 15 5.1 15 0 15 C0 10.05 0 5.1 0 0 Z " fill="#EEEEEE" transform="translate(60,285)"/>
<path d="M0 0 C4.95 0 9.9 0 15 0 C15 4.95 15 9.9 15 15 C10.05 15 5.1 15 0 15 C0 10.05 0 5.1 0 0 Z " fill="#FFFFFF" transform="translate(45,285)"/>
<path d="M0 0 C4.95 0 9.9 0 15 0 C15 4.95 15 9.9 15 15 C10.05 15 5.1 15 0 15 C0 10.05 0 5.1 0 0 Z " fill="#EEEEEE" transform="translate(30,285)"/>
<path d="M0 0 C4.95 0 9.9 0 15 0 C15 4.95 15 9.9 15 15 C10.05 15 5.1 15 0 15 C0 10.05 0 5.1 0 0 Z " fill="#FFFFFF" transform="translate(15,285)"/>
<path d="M0 0 C4.95 0 9.9 0 15 0 C15 4.95 15 9.9 15 15 C10.05 15 5.1 15 0 15 C0 10.05 0 5.1 0 0 Z " fill="#EEEEEE" transform="translate(0,285)"/>
<path d="M0 0 C4.95 0 9.9 0 15 0 C15 4.95 15 9.9 15 15 C10.05 15 5.1 15 0 15 C0 10.05 0 5.1 0 0 Z " fill="#EEEEEE" transform="translate(285,270)"/>
<path d="M0 0 C4.95 0 9.9 0 15 0 C15 4.95 15 9.9 15 15 C10.05 15 5.1 15 0 15 C0 10.05 0 5.1 0 0 Z " fill="#FFFFFF" transform="translate(270,270)"/>
<path d="M0 0 C4.95 0 9.9 0 15 0 C15 4.95 15 9.9 15 15 C10.05 15 5.1 15 0 15 C0 10.05 0 5.1 0 0 Z " fill="#EEEEEE" transform="translate(255,270)"/>
<path d="M0 0 C4.95 0 9.9 0 15 0 C15 4.95 15 9.9 15 15 C10.05 15 5.1 15 0 15 C0 10.05 0 5.1 0 0 Z " fill="#FFFFFF" transform="translate(240,270)"/>
<path d="M0 0 C4.95 0 9.9 0 15 0 C15 4.95 15 9.9 15 15 C10.05 15 5.1 15 0 15 C0 10.05 0 5.1 0 0 Z " fill="#EEEEEE" transform="translate(225,270)"/>
<path d="M0 0 C4.95 0 9.9 0 15 0 C15 4.95 15 9.9 15 15 C10.05 15 5.1 15 0 15 C0 10.05 0 5.1 0 0 Z " fill="#EEEEEE" transform="translate(195,270)"/>
<path d="M0 0 C4.95 0 9.9 0 15 0 C15 4.95 15 9.9 15 15 C10.05 15 5.1 15 0 15 C0 10.05 0 5.1 0 0 Z " fill="#FFFFFF" transform="translate(180,270)"/>
<path d="M0 0 C4.95 0 9.9 0 15 0 C15 4.95 15 9.9 15 15 C10.05 15 5.1 15 0 15 C0 10.05 0 5.1 0 0 Z " fill="#EEEEEE" transform="translate(165,270)"/>
<path d="M0 0 C4.95 0 9.9 0 15 0 C15 4.95 15 9.9 15 15 C10.05 15 5.1 15 0 15 C0 10.05 0 5.1 0 0 Z " fill="#FFFFFF" transform="translate(150,270)"/>
<path d="M0 0 C4.95 0 9.9 0 15 0 C15 4.95 15 9.9 15 15 C10.05 15 5.1 15 0 15 C0 10.05 0 5.1 0 0 Z " fill="#FFFFFF" transform="translate(60,270)"/>
<path d="M0 0 C4.95 0 9.9 0 15 0 C15 4.95 15 9.9 15 15 C10.05 15 5.1 15 0 15 C0 10.05 0 5.1 0 0 Z " fill="#EEEEEE" transform="translate(45,270)"/>
<path d="M0 0 C4.95 0 9.9 0 15 0 C15 4.95 15 9.9 15 15 C10.05 15 5.1 15 0 15 C0 10.05 0 5.1 0 0 Z " fill="#FFFFFF" transform="translate(30,270)"/>
<path d="M0 0 C4.95 0 9.9 0 15 0 C15 4.95 15 9.9 15 15 C10.05 15 5.1 15 0 15 C0 10.05 0 5.1 0 0 Z " fill="#EEEEEE" transform="translate(15,270)"/>
<path d="M0 0 C4.95 0 9.9 0 15 0 C15 4.95 15 9.9 15 15 C10.05 15 5.1 15 0 15 C0 10.05 0 5.1 0 0 Z " fill="#FFFFFF" transform="translate(0,270)"/>
<path d="M0 0 C4.95 0 9.9 0 15 0 C15 4.95 15 9.9 15 15 C10.05 15 5.1 15 0 15 C0 10.05 0 5.1 0 0 Z " fill="#FFFFFF" transform="translate(345,255)"/>
<path d="M0 0 C4.95 0 9.9 0 15 0 C15 4.95 15 9.9 15 15 C10.05 15 5.1 15 0 15 C0 10.05 0 5.1 0 0 Z " fill="#EEEEEE" transform="translate(270,255)"/>
<path d="M0 0 C4.95 0 9.9 0 15 0 C15 4.95 15 9.9 15 15 C10.05 15 5.1 15 0 15 C0 10.05 0 5.1 0 0 Z " fill="#FFFFFF" transform="translate(255,255)"/>
<path d="M0 0 C4.95 0 9.9 0 15 0 C15 4.95 15 9.9 15 15 C10.05 15 5.1 15 0 15 C0 10.05 0 5.1 0 0 Z " fill="#EEEEEE" transform="translate(240,255)"/>
<path d="M0 0 C4.95 0 9.9 0 15 0 C15 4.95 15 9.9 15 15 C10.05 15 5.1 15 0 15 C0 10.05 0 5.1 0 0 Z " fill="#EEEEEE" transform="translate(150,255)"/>
<path d="M0 0 C4.95 0 9.9 0 15 0 C15 4.95 15 9.9 15 15 C10.05 15 5.1 15 0 15 C0 10.05 0 5.1 0 0 Z " fill="#FFFFFF" transform="translate(135,255)"/>
<path d="M0 0 C4.95 0 9.9 0 15 0 C15 4.95 15 9.9 15 15 C10.05 15 5.1 15 0 15 C0 10.05 0 5.1 0 0 Z " fill="#FFFFFF" transform="translate(45,255)"/>
<path d="M0 0 C4.95 0 9.9 0 15 0 C15 4.95 15 9.9 15 15 C10.05 15 5.1 15 0 15 C0 10.05 0 5.1 0 0 Z " fill="#EEEEEE" transform="translate(30,255)"/>
<path d="M0 0 C4.95 0 9.9 0 15 0 C15 4.95 15 9.9 15 15 C10.05 15 5.1 15 0 15 C0 10.05 0 5.1 0 0 Z " fill="#FFFFFF" transform="translate(15,255)"/>
<path d="M0 0 C4.95 0 9.9 0 15 0 C15 4.95 15 9.9 15 15 C10.05 15 5.1 15 0 15 C0 10.05 0 5.1 0 0 Z " fill="#EEEEEE" transform="translate(0,255)"/>
<path d="M0 0 C4.95 0 9.9 0 15 0 C15 4.95 15 9.9 15 15 C10.05 15 5.1 15 0 15 C0 10.05 0 5.1 0 0 Z " fill="#EEEEEE" transform="translate(345,240)"/>
<path d="M0 0 C4.95 0 9.9 0 15 0 C15 4.95 15 9.9 15 15 C10.05 15 5.1 15 0 15 C0 10.05 0 5.1 0 0 Z " fill="#FFFFFF" transform="translate(330,240)"/>
<path d="M0 0 C4.95 0 9.9 0 15 0 C15 4.95 15 9.9 15 15 C10.05 15 5.1 15 0 15 C0 10.05 0 5.1 0 0 Z " fill="#EEEEEE" transform="translate(255,240)"/>
<path d="M0 0 C4.95 0 9.9 0 15 0 C15 4.95 15 9.9 15 15 C10.05 15 5.1 15 0 15 C0 10.05 0 5.1 0 0 Z " fill="#EEEEEE" transform="translate(135,240)"/>
<path d="M0 0 C4.95 0 9.9 0 15 0 C15 4.95 15 9.9 15 15 C10.05 15 5.1 15 0 15 C0 10.05 0 5.1 0 0 Z " fill="#FFFFFF" transform="translate(120,240)"/>
<path d="M0 0 C4.95 0 9.9 0 15 0 C15 4.95 15 9.9 15 15 C10.05 15 5.1 15 0 15 C0 10.05 0 5.1 0 0 Z " fill="#EEEEEE" transform="translate(105,240)"/>
<path d="M0 0 C4.95 0 9.9 0 15 0 C15 4.95 15 9.9 15 15 C10.05 15 5.1 15 0 15 C0 10.05 0 5.1 0 0 Z " fill="#EEEEEE" transform="translate(45,240)"/>
<path d="M0 0 C4.95 0 9.9 0 15 0 C15 4.95 15 9.9 15 15 C10.05 15 5.1 15 0 15 C0 10.05 0 5.1 0 0 Z " fill="#FFFFFF" transform="translate(30,240)"/>
<path d="M0 0 C4.95 0 9.9 0 15 0 C15 4.95 15 9.9 15 15 C10.05 15 5.1 15 0 15 C0 10.05 0 5.1 0 0 Z " fill="#EEEEEE" transform="translate(15,240)"/>
<path d="M0 0 C4.95 0 9.9 0 15 0 C15 4.95 15 9.9 15 15 C10.05 15 5.1 15 0 15 C0 10.05 0 5.1 0 0 Z " fill="#FFFFFF" transform="translate(0,240)"/>
<path d="M0 0 C4.95 0 9.9 0 15 0 C15 4.95 15 9.9 15 15 C10.05 15 5.1 15 0 15 C0 10.05 0 5.1 0 0 Z " fill="#FFFFFF" transform="translate(345,225)"/>
<path d="M0 0 C4.95 0 9.9 0 15 0 C15 4.95 15 9.9 15 15 C10.05 15 5.1 15 0 15 C0 10.05 0 5.1 0 0 Z " fill="#EEEEEE" transform="translate(330,225)"/>
<path d="M0 0 C4.95 0 9.9 0 15 0 C15 4.95 15 9.9 15 15 C10.05 15 5.1 15 0 15 C0 10.05 0 5.1 0 0 Z " fill="#FFFFFF" transform="translate(315,225)"/>
<path d="M0 0 C4.95 0 9.9 0 15 0 C15 4.95 15 9.9 15 15 C10.05 15 5.1 15 0 15 C0 10.05 0 5.1 0 0 Z " fill="#EEEEEE" transform="translate(120,225)"/>
<path d="M0 0 C4.95 0 9.9 0 15 0 C15 4.95 15 9.9 15 15 C10.05 15 5.1 15 0 15 C0 10.05 0 5.1 0 0 Z " fill="#FFFFFF" transform="translate(105,225)"/>
<path d="M0 0 C4.95 0 9.9 0 15 0 C15 4.95 15 9.9 15 15 C10.05 15 5.1 15 0 15 C0 10.05 0 5.1 0 0 Z " fill="#EEEEEE" transform="translate(90,225)"/>
<path d="M0 0 C4.95 0 9.9 0 15 0 C15 4.95 15 9.9 15 15 C10.05 15 5.1 15 0 15 C0 10.05 0 5.1 0 0 Z " fill="#EEEEEE" transform="translate(30,225)"/>
<path d="M0 0 C4.95 0 9.9 0 15 0 C15 4.95 15 9.9 15 15 C10.05 15 5.1 15 0 15 C0 10.05 0 5.1 0 0 Z " fill="#FFFFFF" transform="translate(15,225)"/>
<path d="M0 0 C4.95 0 9.9 0 15 0 C15 4.95 15 9.9 15 15 C10.05 15 5.1 15 0 15 C0 10.05 0 5.1 0 0 Z " fill="#EEEEEE" transform="translate(345,210)"/>
<path d="M0 0 C4.95 0 9.9 0 15 0 C15 4.95 15 9.9 15 15 C10.05 15 5.1 15 0 15 C0 10.05 0 5.1 0 0 Z " fill="#FFFFFF" transform="translate(330,210)"/>
<path d="M0 0 C4.95 0 9.9 0 15 0 C15 4.95 15 9.9 15 15 C10.05 15 5.1 15 0 15 C0 10.05 0 5.1 0 0 Z " fill="#EEEEEE" transform="translate(315,210)"/>
<path d="M0 0 C4.95 0 9.9 0 15 0 C15 4.95 15 9.9 15 15 C10.05 15 5.1 15 0 15 C0 10.05 0 5.1 0 0 Z " fill="#FFFFFF" transform="translate(300,210)"/>
<path d="M0 0 C4.95 0 9.9 0 15 0 C15 4.95 15 9.9 15 15 C10.05 15 5.1 15 0 15 C0 10.05 0 5.1 0 0 Z " fill="#FFFFFF" transform="translate(210,210)"/>
<path d="M0 0 C4.95 0 9.9 0 15 0 C15 4.95 15 9.9 15 15 C10.05 15 5.1 15 0 15 C0 10.05 0 5.1 0 0 Z " fill="#EEEEEE" transform="translate(195,210)"/>
<path d="M0 0 C4.95 0 9.9 0 15 0 C15 4.95 15 9.9 15 15 C10.05 15 5.1 15 0 15 C0 10.05 0 5.1 0 0 Z " fill="#FFFFFF" transform="translate(180,210)"/>
<path d="M0 0 C4.95 0 9.9 0 15 0 C15 4.95 15 9.9 15 15 C10.05 15 5.1 15 0 15 C0 10.05 0 5.1 0 0 Z " fill="#EEEEEE" transform="translate(105,210)"/>
<path d="M0 0 C4.95 0 9.9 0 15 0 C15 4.95 15 9.9 15 15 C10.05 15 5.1 15 0 15 C0 10.05 0 5.1 0 0 Z " fill="#FFFFFF" transform="translate(90,210)"/>
<path d="M0 0 C4.95 0 9.9 0 15 0 C15 4.95 15 9.9 15 15 C10.05 15 5.1 15 0 15 C0 10.05 0 5.1 0 0 Z " fill="#EEEEEE" transform="translate(15,210)"/>
<path d="M0 0 C4.95 0 9.9 0 15 0 C15 4.95 15 9.9 15 15 C10.05 15 5.1 15 0 15 C0 10.05 0 5.1 0 0 Z " fill="#FFFFFF" transform="translate(0,210)"/>
<path d="M0 0 C4.95 0 9.9 0 15 0 C15 4.95 15 9.9 15 15 C10.05 15 5.1 15 0 15 C0 10.05 0 5.1 0 0 Z " fill="#FFFFFF" transform="translate(345,195)"/>
<path d="M0 0 C4.95 0 9.9 0 15 0 C15 4.95 15 9.9 15 15 C10.05 15 5.1 15 0 15 C0 10.05 0 5.1 0 0 Z " fill="#EEEEEE" transform="translate(330,195)"/>
<path d="M0 0 C4.95 0 9.9 0 15 0 C15 4.95 15 9.9 15 15 C10.05 15 5.1 15 0 15 C0 10.05 0 5.1 0 0 Z " fill="#FFFFFF" transform="translate(315,195)"/>
<path d="M0 0 C4.95 0 9.9 0 15 0 C15 4.95 15 9.9 15 15 C10.05 15 5.1 15 0 15 C0 10.05 0 5.1 0 0 Z " fill="#EEEEEE" transform="translate(300,195)"/>
<path d="M0 0 C4.95 0 9.9 0 15 0 C15 4.95 15 9.9 15 15 C10.05 15 5.1 15 0 15 C0 10.05 0 5.1 0 0 Z " fill="#FFFFFF" transform="translate(285,195)"/>
<path d="M0 0 C4.95 0 9.9 0 15 0 C15 4.95 15 9.9 15 15 C10.05 15 5.1 15 0 15 C0 10.05 0 5.1 0 0 Z " fill="#EEEEEE" transform="translate(270,195)"/>
<path d="M0 0 C4.95 0 9.9 0 15 0 C15 4.95 15 9.9 15 15 C10.05 15 5.1 15 0 15 C0 10.05 0 5.1 0 0 Z " fill="#FFFFFF" transform="translate(255,195)"/>
<path d="M0 0 C4.95 0 9.9 0 15 0 C15 4.95 15 9.9 15 15 C10.05 15 5.1 15 0 15 C0 10.05 0 5.1 0 0 Z " fill="#FFFFFF" transform="translate(225,195)"/>
<path d="M0 0 C4.95 0 9.9 0 15 0 C15 4.95 15 9.9 15 15 C10.05 15 5.1 15 0 15 C0 10.05 0 5.1 0 0 Z " fill="#EEEEEE" transform="translate(210,195)"/>
<path d="M0 0 C4.95 0 9.9 0 15 0 C15 4.95 15 9.9 15 15 C10.05 15 5.1 15 0 15 C0 10.05 0 5.1 0 0 Z " fill="#FFFFFF" transform="translate(195,195)"/>
<path d="M0 0 C4.95 0 9.9 0 15 0 C15 4.95 15 9.9 15 15 C10.05 15 5.1 15 0 15 C0 10.05 0 5.1 0 0 Z " fill="#EEEEEE" transform="translate(180,195)"/>
<path d="M0 0 C4.95 0 9.9 0 15 0 C15 4.95 15 9.9 15 15 C10.05 15 5.1 15 0 15 C0 10.05 0 5.1 0 0 Z " fill="#FFFFFF" transform="translate(165,195)"/>
<path d="M0 0 C4.95 0 9.9 0 15 0 C15 4.95 15 9.9 15 15 C10.05 15 5.1 15 0 15 C0 10.05 0 5.1 0 0 Z " fill="#EEEEEE" transform="translate(90,195)"/>
<path d="M0 0 C4.95 0 9.9 0 15 0 C15 4.95 15 9.9 15 15 C10.05 15 5.1 15 0 15 C0 10.05 0 5.1 0 0 Z " fill="#FFFFFF" transform="translate(75,195)"/>
<path d="M0 0 C4.95 0 9.9 0 15 0 C15 4.95 15 9.9 15 15 C10.05 15 5.1 15 0 15 C0 10.05 0 5.1 0 0 Z " fill="#EEEEEE" transform="translate(345,180)"/>
<path d="M0 0 C4.95 0 9.9 0 15 0 C15 4.95 15 9.9 15 15 C10.05 15 5.1 15 0 15 C0 10.05 0 5.1 0 0 Z " fill="#FFFFFF" transform="translate(330,180)"/>
<path d="M0 0 C4.95 0 9.9 0 15 0 C15 4.95 15 9.9 15 15 C10.05 15 5.1 15 0 15 C0 10.05 0 5.1 0 0 Z " fill="#EEEEEE" transform="translate(315,180)"/>
<path d="M0 0 C4.95 0 9.9 0 15 0 C15 4.95 15 9.9 15 15 C10.05 15 5.1 15 0 15 C0 10.05 0 5.1 0 0 Z " fill="#FFFFFF" transform="translate(300,180)"/>
<path d="M0 0 C4.95 0 9.9 0 15 0 C15 4.95 15 9.9 15 15 C10.05 15 5.1 15 0 15 C0 10.05 0 5.1 0 0 Z " fill="#EEEEEE" transform="translate(285,180)"/>
<path d="M0 0 C4.95 0 9.9 0 15 0 C15 4.95 15 9.9 15 15 C10.05 15 5.1 15 0 15 C0 10.05 0 5.1 0 0 Z " fill="#FFFFFF" transform="translate(270,180)"/>
<path d="M0 0 C4.95 0 9.9 0 15 0 C15 4.95 15 9.9 15 15 C10.05 15 5.1 15 0 15 C0 10.05 0 5.1 0 0 Z " fill="#EEEEEE" transform="translate(255,180)"/>
<path d="M0 0 C4.95 0 9.9 0 15 0 C15 4.95 15 9.9 15 15 C10.05 15 5.1 15 0 15 C0 10.05 0 5.1 0 0 Z " fill="#FFFFFF" transform="translate(240,180)"/>
<path d="M0 0 C4.95 0 9.9 0 15 0 C15 4.95 15 9.9 15 15 C10.05 15 5.1 15 0 15 C0 10.05 0 5.1 0 0 Z " fill="#EEEEEE" transform="translate(225,180)"/>
<path d="M0 0 C4.95 0 9.9 0 15 0 C15 4.95 15 9.9 15 15 C10.05 15 5.1 15 0 15 C0 10.05 0 5.1 0 0 Z " fill="#FFFFFF" transform="translate(210,180)"/>
<path d="M0 0 C4.95 0 9.9 0 15 0 C15 4.95 15 9.9 15 15 C10.05 15 5.1 15 0 15 C0 10.05 0 5.1 0 0 Z " fill="#EEEEEE" transform="translate(195,180)"/>
<path d="M0 0 C4.95 0 9.9 0 15 0 C15 4.95 15 9.9 15 15 C10.05 15 5.1 15 0 15 C0 10.05 0 5.1 0 0 Z " fill="#FFFFFF" transform="translate(180,180)"/>
<path d="M0 0 C4.95 0 9.9 0 15 0 C15 4.95 15 9.9 15 15 C10.05 15 5.1 15 0 15 C0 10.05 0 5.1 0 0 Z " fill="#EEEEEE" transform="translate(165,180)"/>
<path d="M0 0 C4.95 0 9.9 0 15 0 C15 4.95 15 9.9 15 15 C10.05 15 5.1 15 0 15 C0 10.05 0 5.1 0 0 Z " fill="#FFFFFF" transform="translate(150,180)"/>
<path d="M0 0 C4.95 0 9.9 0 15 0 C15 4.95 15 9.9 15 15 C10.05 15 5.1 15 0 15 C0 10.05 0 5.1 0 0 Z " fill="#EEEEEE" transform="translate(75,180)"/>
<path d="M0 0 C4.95 0 9.9 0 15 0 C15 4.95 15 9.9 15 15 C10.05 15 5.1 15 0 15 C0 10.05 0 5.1 0 0 Z " fill="#FFFFFF" transform="translate(60,180)"/>
<path d="M0 0 C4.95 0 9.9 0 15 0 C15 4.95 15 9.9 15 15 C10.05 15 5.1 15 0 15 C0 10.05 0 5.1 0 0 Z " fill="#FFFFFF" transform="translate(0,180)"/>
<path d="M0 0 C4.95 0 9.9 0 15 0 C15 4.95 15 9.9 15 15 C10.05 15 5.1 15 0 15 C0 10.05 0 5.1 0 0 Z " fill="#FFFFFF" transform="translate(315,165)"/>
<path d="M0 0 C4.95 0 9.9 0 15 0 C15 4.95 15 9.9 15 15 C10.05 15 5.1 15 0 15 C0 10.05 0 5.1 0 0 Z " fill="#EEEEEE" transform="translate(300,165)"/>
<path d="M0 0 C4.95 0 9.9 0 15 0 C15 4.95 15 9.9 15 15 C10.05 15 5.1 15 0 15 C0 10.05 0 5.1 0 0 Z " fill="#FFFFFF" transform="translate(255,165)"/>
<path d="M0 0 C4.95 0 9.9 0 15 0 C15 4.95 15 9.9 15 15 C10.05 15 5.1 15 0 15 C0 10.05 0 5.1 0 0 Z " fill="#EEEEEE" transform="translate(240,165)"/>
<path d="M0 0 C4.95 0 9.9 0 15 0 C15 4.95 15 9.9 15 15 C10.05 15 5.1 15 0 15 C0 10.05 0 5.1 0 0 Z " fill="#FFFFFF" transform="translate(225,165)"/>
<path d="M0 0 C4.95 0 9.9 0 15 0 C15 4.95 15 9.9 15 15 C10.05 15 5.1 15 0 15 C0 10.05 0 5.1 0 0 Z " fill="#EEEEEE" transform="translate(210,165)"/>
<path d="M0 0 C4.95 0 9.9 0 15 0 C15 4.95 15 9.9 15 15 C10.05 15 5.1 15 0 15 C0 10.05 0 5.1 0 0 Z " fill="#FFFFFF" transform="translate(195,165)"/>
<path d="M0 0 C4.95 0 9.9 0 15 0 C15 4.95 15 9.9 15 15 C10.05 15 5.1 15 0 15 C0 10.05 0 5.1 0 0 Z " fill="#EEEEEE" transform="translate(180,165)"/>
<path d="M0 0 C4.95 0 9.9 0 15 0 C15 4.95 15 9.9 15 15 C10.05 15 5.1 15 0 15 C0 10.05 0 5.1 0 0 Z " fill="#FFFFFF" transform="translate(165,165)"/>
<path d="M0 0 C4.95 0 9.9 0 15 0 C15 4.95 15 9.9 15 15 C10.05 15 5.1 15 0 15 C0 10.05 0 5.1 0 0 Z " fill="#EEEEEE" transform="translate(150,165)"/>
<path d="M0 0 C4.95 0 9.9 0 15 0 C15 4.95 15 9.9 15 15 C10.05 15 5.1 15 0 15 C0 10.05 0 5.1 0 0 Z " fill="#FFFFFF" transform="translate(135,165)"/>
<path d="M0 0 C4.95 0 9.9 0 15 0 C15 4.95 15 9.9 15 15 C10.05 15 5.1 15 0 15 C0 10.05 0 5.1 0 0 Z " fill="#FFFFFF" transform="translate(75,165)"/>
<path d="M0 0 C4.95 0 9.9 0 15 0 C15 4.95 15 9.9 15 15 C10.05 15 5.1 15 0 15 C0 10.05 0 5.1 0 0 Z " fill="#EEEEEE" transform="translate(60,165)"/>
<path d="M0 0 C4.95 0 9.9 0 15 0 C15 4.95 15 9.9 15 15 C10.05 15 5.1 15 0 15 C0 10.05 0 5.1 0 0 Z " fill="#EEEEEE" transform="translate(315,150)"/>
<path d="M0 0 C4.95 0 9.9 0 15 0 C15 4.95 15 9.9 15 15 C10.05 15 5.1 15 0 15 C0 10.05 0 5.1 0 0 Z " fill="#FFFFFF" transform="translate(300,150)"/>
<path d="M0 0 C4.95 0 9.9 0 15 0 C15 4.95 15 9.9 15 15 C10.05 15 5.1 15 0 15 C0 10.05 0 5.1 0 0 Z " fill="#FFFFFF" transform="translate(240,150)"/>
<path d="M0 0 C4.95 0 9.9 0 15 0 C15 4.95 15 9.9 15 15 C10.05 15 5.1 15 0 15 C0 10.05 0 5.1 0 0 Z " fill="#EEEEEE" transform="translate(225,150)"/>
<path d="M0 0 C4.95 0 9.9 0 15 0 C15 4.95 15 9.9 15 15 C10.05 15 5.1 15 0 15 C0 10.05 0 5.1 0 0 Z " fill="#FFFFFF" transform="translate(210,150)"/>
<path d="M0 0 C4.95 0 9.9 0 15 0 C15 4.95 15 9.9 15 15 C10.05 15 5.1 15 0 15 C0 10.05 0 5.1 0 0 Z " fill="#EEEEEE" transform="translate(195,150)"/>
<path d="M0 0 C4.95 0 9.9 0 15 0 C15 4.95 15 9.9 15 15 C10.05 15 5.1 15 0 15 C0 10.05 0 5.1 0 0 Z " fill="#FFFFFF" transform="translate(180,150)"/>
<path d="M0 0 C4.95 0 9.9 0 15 0 C15 4.95 15 9.9 15 15 C10.05 15 5.1 15 0 15 C0 10.05 0 5.1 0 0 Z " fill="#EEEEEE" transform="translate(165,150)"/>
<path d="M0 0 C4.95 0 9.9 0 15 0 C15 4.95 15 9.9 15 15 C10.05 15 5.1 15 0 15 C0 10.05 0 5.1 0 0 Z " fill="#FFFFFF" transform="translate(150,150)"/>
<path d="M0 0 C4.95 0 9.9 0 15 0 C15 4.95 15 9.9 15 15 C10.05 15 5.1 15 0 15 C0 10.05 0 5.1 0 0 Z " fill="#EEEEEE" transform="translate(135,150)"/>
<path d="M0 0 C4.95 0 9.9 0 15 0 C15 4.95 15 9.9 15 15 C10.05 15 5.1 15 0 15 C0 10.05 0 5.1 0 0 Z " fill="#FFFFFF" transform="translate(60,150)"/>
<path d="M0 0 C4.95 0 9.9 0 15 0 C15 4.95 15 9.9 15 15 C10.05 15 5.1 15 0 15 C0 10.05 0 5.1 0 0 Z " fill="#EEEEEE" transform="translate(45,150)"/>
<path d="M0 0 C4.95 0 9.9 0 15 0 C15 4.95 15 9.9 15 15 C10.05 15 5.1 15 0 15 C0 10.05 0 5.1 0 0 Z " fill="#FFFFFF" transform="translate(315,135)"/>
<path d="M0 0 C4.95 0 9.9 0 15 0 C15 4.95 15 9.9 15 15 C10.05 15 5.1 15 0 15 C0 10.05 0 5.1 0 0 Z " fill="#EEEEEE" transform="translate(300,135)"/>
<path d="M0 0 C4.95 0 9.9 0 15 0 C15 4.95 15 9.9 15 15 C10.05 15 5.1 15 0 15 C0 10.05 0 5.1 0 0 Z " fill="#FFFFFF" transform="translate(225,135)"/>
<path d="M0 0 C4.95 0 9.9 0 15 0 C15 4.95 15 9.9 15 15 C10.05 15 5.1 15 0 15 C0 10.05 0 5.1 0 0 Z " fill="#EEEEEE" transform="translate(210,135)"/>
<path d="M0 0 C4.95 0 9.9 0 15 0 C15 4.95 15 9.9 15 15 C10.05 15 5.1 15 0 15 C0 10.05 0 5.1 0 0 Z " fill="#FFFFFF" transform="translate(195,135)"/>
<path d="M0 0 C4.95 0 9.9 0 15 0 C15 4.95 15 9.9 15 15 C10.05 15 5.1 15 0 15 C0 10.05 0 5.1 0 0 Z " fill="#EEEEEE" transform="translate(180,135)"/>
<path d="M0 0 C4.95 0 9.9 0 15 0 C15 4.95 15 9.9 15 15 C10.05 15 5.1 15 0 15 C0 10.05 0 5.1 0 0 Z " fill="#FFFFFF" transform="translate(165,135)"/>
<path d="M0 0 C4.95 0 9.9 0 15 0 C15 4.95 15 9.9 15 15 C10.05 15 5.1 15 0 15 C0 10.05 0 5.1 0 0 Z " fill="#EEEEEE" transform="translate(150,135)"/>
<path d="M0 0 C4.95 0 9.9 0 15 0 C15 4.95 15 9.9 15 15 C10.05 15 5.1 15 0 15 C0 10.05 0 5.1 0 0 Z " fill="#FFFFFF" transform="translate(135,135)"/>
<path d="M0 0 C4.95 0 9.9 0 15 0 C15 4.95 15 9.9 15 15 C10.05 15 5.1 15 0 15 C0 10.05 0 5.1 0 0 Z " fill="#EEEEEE" transform="translate(60,135)"/>
<path d="M0 0 C4.95 0 9.9 0 15 0 C15 4.95 15 9.9 15 15 C10.05 15 5.1 15 0 15 C0 10.05 0 5.1 0 0 Z " fill="#FFFFFF" transform="translate(45,135)"/>
<path d="M0 0 C4.95 0 9.9 0 15 0 C15 4.95 15 9.9 15 15 C10.05 15 5.1 15 0 15 C0 10.05 0 5.1 0 0 Z " fill="#FFFFFF" transform="translate(300,120)"/>
<path d="M0 0 C4.95 0 9.9 0 15 0 C15 4.95 15 9.9 15 15 C10.05 15 5.1 15 0 15 C0 10.05 0 5.1 0 0 Z " fill="#EEEEEE" transform="translate(225,120)"/>
<path d="M0 0 C4.95 0 9.9 0 15 0 C15 4.95 15 9.9 15 15 C10.05 15 5.1 15 0 15 C0 10.05 0 5.1 0 0 Z " fill="#FFFFFF" transform="translate(210,120)"/>
<path d="M0 0 C4.95 0 9.9 0 15 0 C15 4.95 15 9.9 15 15 C10.05 15 5.1 15 0 15 C0 10.05 0 5.1 0 0 Z " fill="#EEEEEE" transform="translate(195,120)"/>
<path d="M0 0 C4.95 0 9.9 0 15 0 C15 4.95 15 9.9 15 15 C10.05 15 5.1 15 0 15 C0 10.05 0 5.1 0 0 Z " fill="#FFFFFF" transform="translate(180,120)"/>
<path d="M0 0 C4.95 0 9.9 0 15 0 C15 4.95 15 9.9 15 15 C10.05 15 5.1 15 0 15 C0 10.05 0 5.1 0 0 Z " fill="#EEEEEE" transform="translate(165,120)"/>
<path d="M0 0 C4.95 0 9.9 0 15 0 C15 4.95 15 9.9 15 15 C10.05 15 5.1 15 0 15 C0 10.05 0 5.1 0 0 Z " fill="#FFFFFF" transform="translate(150,120)"/>
<path d="M0 0 C4.95 0 9.9 0 15 0 C15 4.95 15 9.9 15 15 C10.05 15 5.1 15 0 15 C0 10.05 0 5.1 0 0 Z " fill="#EEEEEE" transform="translate(75,120)"/>
<path d="M0 0 C4.95 0 9.9 0 15 0 C15 4.95 15 9.9 15 15 C10.05 15 5.1 15 0 15 C0 10.05 0 5.1 0 0 Z " fill="#FFFFFF" transform="translate(60,120)"/>
<path d="M0 0 C4.95 0 9.9 0 15 0 C15 4.95 15 9.9 15 15 C10.05 15 5.1 15 0 15 C0 10.05 0 5.1 0 0 Z " fill="#EEEEEE" transform="translate(45,120)"/>
<path d="M0 0 C4.95 0 9.9 0 15 0 C15 4.95 15 9.9 15 15 C10.05 15 5.1 15 0 15 C0 10.05 0 5.1 0 0 Z " fill="#FFFFFF" transform="translate(30,120)"/>
<path d="M0 0 C4.95 0 9.9 0 15 0 C15 4.95 15 9.9 15 15 C10.05 15 5.1 15 0 15 C0 10.05 0 5.1 0 0 Z " fill="#EEEEEE" transform="translate(300,105)"/>
<path d="M0 0 C4.95 0 9.9 0 15 0 C15 4.95 15 9.9 15 15 C10.05 15 5.1 15 0 15 C0 10.05 0 5.1 0 0 Z " fill="#FFFFFF" transform="translate(285,105)"/>
<path d="M0 0 C4.95 0 9.9 0 15 0 C15 4.95 15 9.9 15 15 C10.05 15 5.1 15 0 15 C0 10.05 0 5.1 0 0 Z " fill="#EEEEEE" transform="translate(210,105)"/>
<path d="M0 0 C4.95 0 9.9 0 15 0 C15 4.95 15 9.9 15 15 C10.05 15 5.1 15 0 15 C0 10.05 0 5.1 0 0 Z " fill="#FFFFFF" transform="translate(195,105)"/>
<path d="M0 0 C4.95 0 9.9 0 15 0 C15 4.95 15 9.9 15 15 C10.05 15 5.1 15 0 15 C0 10.05 0 5.1 0 0 Z " fill="#EEEEEE" transform="translate(180,105)"/>
<path d="M0 0 C4.95 0 9.9 0 15 0 C15 4.95 15 9.9 15 15 C10.05 15 5.1 15 0 15 C0 10.05 0 5.1 0 0 Z " fill="#FFFFFF" transform="translate(165,105)"/>
<path d="M0 0 C4.95 0 9.9 0 15 0 C15 4.95 15 9.9 15 15 C10.05 15 5.1 15 0 15 C0 10.05 0 5.1 0 0 Z " fill="#EEEEEE" transform="translate(150,105)"/>
<path d="M0 0 C4.95 0 9.9 0 15 0 C15 4.95 15 9.9 15 15 C10.05 15 5.1 15 0 15 C0 10.05 0 5.1 0 0 Z " fill="#FFFFFF" transform="translate(75,105)"/>
<path d="M0 0 C4.95 0 9.9 0 15 0 C15 4.95 15 9.9 15 15 C10.05 15 5.1 15 0 15 C0 10.05 0 5.1 0 0 Z " fill="#EEEEEE" transform="translate(60,105)"/>
<path d="M0 0 C4.95 0 9.9 0 15 0 C15 4.95 15 9.9 15 15 C10.05 15 5.1 15 0 15 C0 10.05 0 5.1 0 0 Z " fill="#FFFFFF" transform="translate(45,105)"/>
<path d="M0 0 C4.95 0 9.9 0 15 0 C15 4.95 15 9.9 15 15 C10.05 15 5.1 15 0 15 C0 10.05 0 5.1 0 0 Z " fill="#EEEEEE" transform="translate(345,90)"/>
<path d="M0 0 C4.95 0 9.9 0 15 0 C15 4.95 15 9.9 15 15 C10.05 15 5.1 15 0 15 C0 10.05 0 5.1 0 0 Z " fill="#EEEEEE" transform="translate(285,90)"/>
<path d="M0 0 C4.95 0 9.9 0 15 0 C15 4.95 15 9.9 15 15 C10.05 15 5.1 15 0 15 C0 10.05 0 5.1 0 0 Z " fill="#FFFFFF" transform="translate(270,90)"/>
<path d="M0 0 C4.95 0 9.9 0 15 0 C15 4.95 15 9.9 15 15 C10.05 15 5.1 15 0 15 C0 10.05 0 5.1 0 0 Z " fill="#EEEEEE" transform="translate(195,90)"/>
<path d="M0 0 C4.95 0 9.9 0 15 0 C15 4.95 15 9.9 15 15 C10.05 15 5.1 15 0 15 C0 10.05 0 5.1 0 0 Z " fill="#FFFFFF" transform="translate(180,90)"/>
<path d="M0 0 C4.95 0 9.9 0 15 0 C15 4.95 15 9.9 15 15 C10.05 15 5.1 15 0 15 C0 10.05 0 5.1 0 0 Z " fill="#EEEEEE" transform="translate(165,90)"/>
<path d="M0 0 C4.95 0 9.9 0 15 0 C15 4.95 15 9.9 15 15 C10.05 15 5.1 15 0 15 C0 10.05 0 5.1 0 0 Z " fill="#FFFFFF" transform="translate(150,90)"/>
<path d="M0 0 C4.95 0 9.9 0 15 0 C15 4.95 15 9.9 15 15 C10.05 15 5.1 15 0 15 C0 10.05 0 5.1 0 0 Z " fill="#EEEEEE" transform="translate(105,90)"/>
<path d="M0 0 C4.95 0 9.9 0 15 0 C15 4.95 15 9.9 15 15 C10.05 15 5.1 15 0 15 C0 10.05 0 5.1 0 0 Z " fill="#FFFFFF" transform="translate(90,90)"/>
<path d="M0 0 C4.95 0 9.9 0 15 0 C15 4.95 15 9.9 15 15 C10.05 15 5.1 15 0 15 C0 10.05 0 5.1 0 0 Z " fill="#FFFFFF" transform="translate(60,90)"/>
<path d="M0 0 C4.95 0 9.9 0 15 0 C15 4.95 15 9.9 15 15 C10.05 15 5.1 15 0 15 C0 10.05 0 5.1 0 0 Z " fill="#EEEEEE" transform="translate(45,90)"/>
<path d="M0 0 C4.95 0 9.9 0 15 0 C15 4.95 15 9.9 15 15 C10.05 15 5.1 15 0 15 C0 10.05 0 5.1 0 0 Z " fill="#FFFFFF" transform="translate(30,90)"/>
<path d="M0 0 C4.95 0 9.9 0 15 0 C15 4.95 15 9.9 15 15 C10.05 15 5.1 15 0 15 C0 10.05 0 5.1 0 0 Z " fill="#FFFFFF" transform="translate(345,75)"/>
<path d="M0 0 C4.95 0 9.9 0 15 0 C15 4.95 15 9.9 15 15 C10.05 15 5.1 15 0 15 C0 10.05 0 5.1 0 0 Z " fill="#EEEEEE" transform="translate(270,75)"/>
<path d="M0 0 C4.95 0 9.9 0 15 0 C15 4.95 15 9.9 15 15 C10.05 15 5.1 15 0 15 C0 10.05 0 5.1 0 0 Z " fill="#FFFFFF" transform="translate(255,75)"/>
<path d="M0 0 C4.95 0 9.9 0 15 0 C15 4.95 15 9.9 15 15 C10.05 15 5.1 15 0 15 C0 10.05 0 5.1 0 0 Z " fill="#FFFFFF" transform="translate(165,75)"/>
<path d="M0 0 C4.95 0 9.9 0 15 0 C15 4.95 15 9.9 15 15 C10.05 15 5.1 15 0 15 C0 10.05 0 5.1 0 0 Z " fill="#EEEEEE" transform="translate(150,75)"/>
<path d="M0 0 C4.95 0 9.9 0 15 0 C15 4.95 15 9.9 15 15 C10.05 15 5.1 15 0 15 C0 10.05 0 5.1 0 0 Z " fill="#EEEEEE" transform="translate(90,75)"/>
<path d="M0 0 C4.95 0 9.9 0 15 0 C15 4.95 15 9.9 15 15 C10.05 15 5.1 15 0 15 C0 10.05 0 5.1 0 0 Z " fill="#FFFFFF" transform="translate(75,75)"/>
<path d="M0 0 C4.95 0 9.9 0 15 0 C15 4.95 15 9.9 15 15 C10.05 15 5.1 15 0 15 C0 10.05 0 5.1 0 0 Z " fill="#FFFFFF" transform="translate(45,75)"/>
<path d="M0 0 C4.95 0 9.9 0 15 0 C15 4.95 15 9.9 15 15 C10.05 15 5.1 15 0 15 C0 10.05 0 5.1 0 0 Z " fill="#EEEEEE" transform="translate(30,75)"/>
<path d="M0 0 C4.95 0 9.9 0 15 0 C15 4.95 15 9.9 15 15 C10.05 15 5.1 15 0 15 C0 10.05 0 5.1 0 0 Z " fill="#EEEEEE" transform="translate(345,60)"/>
<path d="M0 0 C4.95 0 9.9 0 15 0 C15 4.95 15 9.9 15 15 C10.05 15 5.1 15 0 15 C0 10.05 0 5.1 0 0 Z " fill="#FFFFFF" transform="translate(330,60)"/>
<path d="M0 0 C4.95 0 9.9 0 15 0 C15 4.95 15 9.9 15 15 C10.05 15 5.1 15 0 15 C0 10.05 0 5.1 0 0 Z " fill="#FFFFFF" transform="translate(240,60)"/>
<path d="M0 0 C4.95 0 9.9 0 15 0 C15 4.95 15 9.9 15 15 C10.05 15 5.1 15 0 15 C0 10.05 0 5.1 0 0 Z " fill="#FFFFFF" transform="translate(150,60)"/>
<path d="M0 0 C4.95 0 9.9 0 15 0 C15 4.95 15 9.9 15 15 C10.05 15 5.1 15 0 15 C0 10.05 0 5.1 0 0 Z " fill="#EEEEEE" transform="translate(75,60)"/>
<path d="M0 0 C4.95 0 9.9 0 15 0 C15 4.95 15 9.9 15 15 C10.05 15 5.1 15 0 15 C0 10.05 0 5.1 0 0 Z " fill="#FFFFFF" transform="translate(60,60)"/>
<path d="M0 0 C4.95 0 9.9 0 15 0 C15 4.95 15 9.9 15 15 C10.05 15 5.1 15 0 15 C0 10.05 0 5.1 0 0 Z " fill="#FFFFFF" transform="translate(345,45)"/>
<path d="M0 0 C4.95 0 9.9 0 15 0 C15 4.95 15 9.9 15 15 C10.05 15 5.1 15 0 15 C0 10.05 0 5.1 0 0 Z " fill="#EEEEEE" transform="translate(330,45)"/>
<path d="M0 0 C4.95 0 9.9 0 15 0 C15 4.95 15 9.9 15 15 C10.05 15 5.1 15 0 15 C0 10.05 0 5.1 0 0 Z " fill="#FFFFFF" transform="translate(315,45)"/>
<path d="M0 0 C4.95 0 9.9 0 15 0 C15 4.95 15 9.9 15 15 C10.05 15 5.1 15 0 15 C0 10.05 0 5.1 0 0 Z " fill="#EEEEEE" transform="translate(240,45)"/>
<path d="M0 0 C4.95 0 9.9 0 15 0 C15 4.95 15 9.9 15 15 C10.05 15 5.1 15 0 15 C0 10.05 0 5.1 0 0 Z " fill="#FFFFFF" transform="translate(225,45)"/>
<path d="M0 0 C4.95 0 9.9 0 15 0 C15 4.95 15 9.9 15 15 C10.05 15 5.1 15 0 15 C0 10.05 0 5.1 0 0 Z " fill="#FFFFFF" transform="translate(195,45)"/>
<path d="M0 0 C4.95 0 9.9 0 15 0 C15 4.95 15 9.9 15 15 C10.05 15 5.1 15 0 15 C0 10.05 0 5.1 0 0 Z " fill="#EEEEEE" transform="translate(180,45)"/>
<path d="M0 0 C4.95 0 9.9 0 15 0 C15 4.95 15 9.9 15 15 C10.05 15 5.1 15 0 15 C0 10.05 0 5.1 0 0 Z " fill="#FFFFFF" transform="translate(165,45)"/>
<path d="M0 0 C4.95 0 9.9 0 15 0 C15 4.95 15 9.9 15 15 C10.05 15 5.1 15 0 15 C0 10.05 0 5.1 0 0 Z " fill="#EEEEEE" transform="translate(150,45)"/>
<path d="M0 0 C4.95 0 9.9 0 15 0 C15 4.95 15 9.9 15 15 C10.05 15 5.1 15 0 15 C0 10.05 0 5.1 0 0 Z " fill="#FFFFFF" transform="translate(135,45)"/>
<path d="M0 0 C4.95 0 9.9 0 15 0 C15 4.95 15 9.9 15 15 C10.05 15 5.1 15 0 15 C0 10.05 0 5.1 0 0 Z " fill="#EEEEEE" transform="translate(60,45)"/>
<path d="M0 0 C4.95 0 9.9 0 15 0 C15 4.95 15 9.9 15 15 C10.05 15 5.1 15 0 15 C0 10.05 0 5.1 0 0 Z " fill="#EEEEEE" transform="translate(345,30)"/>
<path d="M0 0 C4.95 0 9.9 0 15 0 C15 4.95 15 9.9 15 15 C10.05 15 5.1 15 0 15 C0 10.05 0 5.1 0 0 Z " fill="#FFFFFF" transform="translate(330,30)"/>
<path d="M0 0 C4.95 0 9.9 0 15 0 C15 4.95 15 9.9 15 15 C10.05 15 5.1 15 0 15 C0 10.05 0 5.1 0 0 Z " fill="#EEEEEE" transform="translate(315,30)"/>
<path d="M0 0 C4.95 0 9.9 0 15 0 C15 4.95 15 9.9 15 15 C10.05 15 5.1 15 0 15 C0 10.05 0 5.1 0 0 Z " fill="#FFFFFF" transform="translate(300,30)"/>
<path d="M0 0 C4.95 0 9.9 0 15 0 C15 4.95 15 9.9 15 15 C10.05 15 5.1 15 0 15 C0 10.05 0 5.1 0 0 Z " fill="#FFFFFF" transform="translate(210,30)"/>
<path d="M0 0 C4.95 0 9.9 0 15 0 C15 4.95 15 9.9 15 15 C10.05 15 5.1 15 0 15 C0 10.05 0 5.1 0 0 Z " fill="#EEEEEE" transform="translate(195,30)"/>
<path d="M0 0 C4.95 0 9.9 0 15 0 C15 4.95 15 9.9 15 15 C10.05 15 5.1 15 0 15 C0 10.05 0 5.1 0 0 Z " fill="#FFFFFF" transform="translate(180,30)"/>
<path d="M0 0 C4.95 0 9.9 0 15 0 C15 4.95 15 9.9 15 15 C10.05 15 5.1 15 0 15 C0 10.05 0 5.1 0 0 Z " fill="#EEEEEE" transform="translate(165,30)"/>
<path d="M0 0 C4.95 0 9.9 0 15 0 C15 4.95 15 9.9 15 15 C10.05 15 5.1 15 0 15 C0 10.05 0 5.1 0 0 Z " fill="#FFFFFF" transform="translate(150,30)"/>
<path d="M0 0 C4.95 0 9.9 0 15 0 C15 4.95 15 9.9 15 15 C10.05 15 5.1 15 0 15 C0 10.05 0 5.1 0 0 Z " fill="#EEEEEE" transform="translate(135,30)"/>
<path d="M0 0 C4.95 0 9.9 0 15 0 C15 4.95 15 9.9 15 15 C10.05 15 5.1 15 0 15 C0 10.05 0 5.1 0 0 Z " fill="#FFFFFF" transform="translate(120,30)"/>
<path d="M0 0 C4.95 0 9.9 0 15 0 C15 4.95 15 9.9 15 15 C10.05 15 5.1 15 0 15 C0 10.05 0 5.1 0 0 Z " fill="#FFFFFF" transform="translate(0,30)"/>
<path d="M0 0 C4.95 0 9.9 0 15 0 C15 4.95 15 9.9 15 15 C10.05 15 5.1 15 0 15 C0 10.05 0 5.1 0 0 Z " fill="#FFFFFF" transform="translate(345,15)"/>
<path d="M0 0 C4.95 0 9.9 0 15 0 C15 4.95 15 9.9 15 15 C10.05 15 5.1 15 0 15 C0 10.05 0 5.1 0 0 Z " fill="#EEEEEE" transform="translate(330,15)"/>
<path d="M0 0 C4.95 0 9.9 0 15 0 C15 4.95 15 9.9 15 15 C10.05 15 5.1 15 0 15 C0 10.05 0 5.1 0 0 Z " fill="#FFFFFF" transform="translate(315,15)"/>
<path d="M0 0 C4.95 0 9.9 0 15 0 C15 4.95 15 9.9 15 15 C10.05 15 5.1 15 0 15 C0 10.05 0 5.1 0 0 Z " fill="#EEEEEE" transform="translate(300,15)"/>
<path d="M0 0 C4.95 0 9.9 0 15 0 C15 4.95 15 9.9 15 15 C10.05 15 5.1 15 0 15 C0 10.05 0 5.1 0 0 Z " fill="#FFFFFF" transform="translate(285,15)"/>
<path d="M0 0 C4.95 0 9.9 0 15 0 C15 4.95 15 9.9 15 15 C10.05 15 5.1 15 0 15 C0 10.05 0 5.1 0 0 Z " fill="#FFFFFF" transform="translate(165,15)"/>
<path d="M0 0 C4.95 0 9.9 0 15 0 C15 4.95 15 9.9 15 15 C10.05 15 5.1 15 0 15 C0 10.05 0 5.1 0 0 Z " fill="#EEEEEE" transform="translate(150,15)"/>
<path d="M0 0 C4.95 0 9.9 0 15 0 C15 4.95 15 9.9 15 15 C10.05 15 5.1 15 0 15 C0 10.05 0 5.1 0 0 Z " fill="#FFFFFF" transform="translate(135,15)"/>
<path d="M0 0 C4.95 0 9.9 0 15 0 C15 4.95 15 9.9 15 15 C10.05 15 5.1 15 0 15 C0 10.05 0 5.1 0 0 Z " fill="#EEEEEE" transform="translate(120,15)"/>
<path d="M0 0 C4.95 0 9.9 0 15 0 C15 4.95 15 9.9 15 15 C10.05 15 5.1 15 0 15 C0 10.05 0 5.1 0 0 Z " fill="#FFFFFF" transform="translate(105,15)"/>
<path d="M0 0 C4.95 0 9.9 0 15 0 C15 4.95 15 9.9 15 15 C10.05 15 5.1 15 0 15 C0 10.05 0 5.1 0 0 Z " fill="#FFFFFF" transform="translate(15,15)"/>
<path d="M0 0 C4.95 0 9.9 0 15 0 C15 4.95 15 9.9 15 15 C10.05 15 5.1 15 0 15 C0 10.05 0 5.1 0 0 Z " fill="#EEEEEE" transform="translate(0,15)"/>
<path d="M0 0 C4.95 0 9.9 0 15 0 C15 4.95 15 9.9 15 15 C10.05 15 5.1 15 0 15 C0 10.05 0 5.1 0 0 Z " fill="#EEEEEE" transform="translate(345,0)"/>
<path d="M0 0 C4.95 0 9.9 0 15 0 C15 4.95 15 9.9 15 15 C10.05 15 5.1 15 0 15 C0 10.05 0 5.1 0 0 Z " fill="#FFFFFF" transform="translate(330,0)"/>
<path d="M0 0 C4.95 0 9.9 0 15 0 C15 4.95 15 9.9 15 15 C10.05 15 5.1 15 0 15 C0 10.05 0 5.1 0 0 Z " fill="#EEEEEE" transform="translate(315,0)"/>
<path d="M0 0 C4.95 0 9.9 0 15 0 C15 4.95 15 9.9 15 15 C10.05 15 5.1 15 0 15 C0 10.05 0 5.1 0 0 Z " fill="#FFFFFF" transform="translate(300,0)"/>
<path d="M0 0 C4.95 0 9.9 0 15 0 C15 4.95 15 9.9 15 15 C10.05 15 5.1 15 0 15 C0 10.05 0 5.1 0 0 Z " fill="#EEEEEE" transform="translate(285,0)"/>
<path d="M0 0 C4.95 0 9.9 0 15 0 C15 4.95 15 9.9 15 15 C10.05 15 5.1 15 0 15 C0 10.05 0 5.1 0 0 Z " fill="#FFFFFF" transform="translate(270,0)"/>
<path d="M0 0 C4.95 0 9.9 0 15 0 C15 4.95 15 9.9 15 15 C10.05 15 5.1 15 0 15 C0 10.05 0 5.1 0 0 Z " fill="#EEEEEE" transform="translate(255,0)"/>
<path d="M0 0 C4.95 0 9.9 0 15 0 C15 4.95 15 9.9 15 15 C10.05 15 5.1 15 0 15 C0 10.05 0 5.1 0 0 Z " fill="#EEEEEE" transform="translate(165,0)"/>
<path d="M0 0 C4.95 0 9.9 0 15 0 C15 4.95 15 9.9 15 15 C10.05 15 5.1 15 0 15 C0 10.05 0 5.1 0 0 Z " fill="#FFFFFF" transform="translate(150,0)"/>
<path d="M0 0 C4.95 0 9.9 0 15 0 C15 4.95 15 9.9 15 15 C10.05 15 5.1 15 0 15 C0 10.05 0 5.1 0 0 Z " fill="#EEEEEE" transform="translate(135,0)"/>
<path d="M0 0 C4.95 0 9.9 0 15 0 C15 4.95 15 9.9 15 15 C10.05 15 5.1 15 0 15 C0 10.05 0 5.1 0 0 Z " fill="#FFFFFF" transform="translate(120,0)"/>
<path d="M0 0 C4.95 0 9.9 0 15 0 C15 4.95 15 9.9 15 15 C10.05 15 5.1 15 0 15 C0 10.05 0 5.1 0 0 Z " fill="#EEEEEE" transform="translate(105,0)"/>
<path d="M0 0 C4.95 0 9.9 0 15 0 C15 4.95 15 9.9 15 15 C10.05 15 5.1 15 0 15 C0 10.05 0 5.1 0 0 Z " fill="#FFFFFF" transform="translate(90,0)"/>
<path d="M0 0 C4.95 0 9.9 0 15 0 C15 4.95 15 9.9 15 15 C10.05 15 5.1 15 0 15 C0 10.05 0 5.1 0 0 Z " fill="#FFFFFF" transform="translate(60,0)"/>
<path d="M0 0 C4.95 0 9.9 0 15 0 C15 4.95 15 9.9 15 15 C10.05 15 5.1 15 0 15 C0 10.05 0 5.1 0 0 Z " fill="#EEEEEE" transform="translate(45,0)"/>
<path d="M0 0 C4.95 0 9.9 0 15 0 C15 4.95 15 9.9 15 15 C10.05 15 5.1 15 0 15 C0 10.05 0 5.1 0 0 Z " fill="#FFFFFF" transform="translate(30,0)"/>
<path d="M0 0 C4.95 0 9.9 0 15 0 C15 4.95 15 9.9 15 15 C10.05 15 5.1 15 0 15 C0 10.05 0 5.1 0 0 Z " fill="#FFFFFF" transform="translate(0,0)"/>
<path d="M0 0 C3.61328125 0.03255208 7.2265625 0.06510417 10.83984375 0.09765625 C10.83984375 5.04765625 10.83984375 9.99765625 10.83984375 15.09765625 C5.88984375 15.09765625 0.93984375 15.09765625 -4.16015625 15.09765625 C-4.2578125 4.2578125 -4.2578125 4.2578125 -4.16015625 1.09765625 C-3.16015625 0.09765625 -3.16015625 0.09765625 0 0 Z " fill="#EEEEEE" transform="translate(319.16015625,329.90234375)"/>
<path d="M0 0 C10.83984375 -0.09765625 10.83984375 -0.09765625 14 0 C15 1 15 1 15.09765625 4.16015625 C15.04882812 9.58007812 15.04882812 9.58007812 15 15 C10.05 15 5.1 15 0 15 C0 10.05 0 5.1 0 0 Z " fill="#EEEEEE" transform="translate(90,285)"/>
<path d="M0 0 C4.95 0 9.9 0 15 0 C15 4.95 15 9.9 15 15 C4.16015625 15.09765625 4.16015625 15.09765625 1 15 C0 14 0 14 -0.09765625 10.83984375 C-0.04882812 5.41992188 -0.04882812 5.41992188 0 0 Z " fill="#EEEEEE" transform="translate(135,270)"/>
<path d="M0 0 C10.83984375 -0.09765625 10.83984375 -0.09765625 14 0 C15 1 15 1 15.09765625 4.16015625 C15.04882812 9.58007812 15.04882812 9.58007812 15 15 C10.05 15 5.1 15 0 15 C0 10.05 0 5.1 0 0 Z " fill="#EEEEEE" transform="translate(60,255)"/>
<path d="M0 0 C4.95 0 9.9 0 15 0 C15 4.95 15 9.9 15 15 C4.16015625 15.09765625 4.16015625 15.09765625 1 15 C0 14 0 14 -0.09765625 10.83984375 C-0.04882812 5.41992188 -0.04882812 5.41992188 0 0 Z " fill="#EEEEEE" transform="translate(75,210)"/>
<path d="M0 0 C4.95 0 9.9 0 15 0 C15 4.95 15 9.9 15 15 C10.38 15 5.76 15 1 15 C-1.13079691 10.73840618 -0.04502317 4.59236298 0 0 Z " fill="#EEEEEE" transform="translate(330,255)"/>
<path d="M0 0 C4.95 0 9.9 0 15 0 C15 4.62 15 9.24 15 14 C10.73840618 16.13079691 4.59236298 15.04502317 0 15 C0 10.05 0 5.1 0 0 Z " fill="#EEEEEE" transform="translate(30,15)"/>
<path d="M0 0 C9.9609375 -0.1953125 9.9609375 -0.1953125 13 0 C15 2 15 2 15.1953125 5.0390625 C15.13020833 8.359375 15.06510417 11.6796875 15 15 C10.05 15 5.1 15 0 15 C0 10.05 0 5.1 0 0 Z " fill="#EEEEEE" transform="translate(75,270)"/>
<path d="M0 0 C4.95 0 9.9 0 15 0 C15 4.95 15 9.9 15 15 C5.0390625 15.1953125 5.0390625 15.1953125 2 15 C0 13 0 13 -0.1953125 9.9609375 C-0.13020833 6.640625 -0.06510417 3.3203125 0 0 Z " fill="#EEEEEE" transform="translate(315,240)"/>
<path d="M0 0 C4.95 0 9.9 0 15 0 C15 4.95 15 9.9 15 15 C5.0390625 15.1953125 5.0390625 15.1953125 2 15 C0 13 0 13 -0.1953125 9.9609375 C-0.13020833 6.640625 -0.06510417 3.3203125 0 0 Z " fill="#EEEEEE" transform="translate(300,225)"/>
<path d="M0 0 C4.95 0 9.9 0 15 0 C15 4.95 15 9.9 15 15 C5.0390625 15.1953125 5.0390625 15.1953125 2 15 C0 13 0 13 -0.1953125 9.9609375 C-0.13020833 6.640625 -0.06510417 3.3203125 0 0 Z " fill="#EEEEEE" transform="translate(285,210)"/>
<path d="M0 0 C4.95 0 9.9 0 15 0 C15.1953125 9.9609375 15.1953125 9.9609375 15 13 C13 15 13 15 9.9609375 15.1953125 C6.640625 15.13020833 3.3203125 15.06510417 0 15 C0 10.05 0 5.1 0 0 Z " fill="#EEEEEE" transform="translate(0,45)"/>
<path d="M0 0 C4.95 0 9.9 0 15 0 C15.1953125 9.9609375 15.1953125 9.9609375 15 13 C13 15 13 15 9.9609375 15.1953125 C6.640625 15.13020833 3.3203125 15.06510417 0 15 C0 10.05 0 5.1 0 0 Z " fill="#EEEEEE" transform="translate(15,30)"/>
<path d="M0 0 C4.95 0 9.9 0 15 0 C15 4.95 15 9.9 15 15 C3.375 15.25 3.375 15.25 0 13 C-0.41996896 8.64352194 -0.12895366 4.38442431 0 0 Z " fill="#EEEEEE" transform="translate(90,15)"/>
<path d="M0 0 C4.95 0 9.9 0 15 0 C15 4.95 15 9.9 15 15 C3.6122449 15.36734694 3.6122449 15.36734694 1.125 13.875 C-1.28300744 9.86165427 -0.14460124 4.48263837 0 0 Z " fill="#EEEEEE" transform="translate(135,60)"/>
<path d="M0 0 C4.95 0 9.9 0 15 0 C15 4.95 15 9.9 15 15 C3.6122449 15.36734694 3.6122449 15.36734694 1.125 13.875 C-1.28300744 9.86165427 -0.14460124 4.48263837 0 0 Z " fill="#EEEEEE" transform="translate(120,45)"/>
<path d="M0 0 C4.95 0 9.9 0 15 0 C15 4.95 15 9.9 15 15 C3.6122449 15.36734694 3.6122449 15.36734694 1.125 13.875 C-1.28300744 9.86165427 -0.14460124 4.48263837 0 0 Z " fill="#EEEEEE" transform="translate(105,30)"/>
<path d="M0 0 C10.23822715 -0.36565097 10.23822715 -0.36565097 13.34375 1.125 C16.64974003 4.86763022 15.20203198 10.30275648 15 15 C10.05 15 5.1 15 0 15 C0 10.05 0 5.1 0 0 Z " fill="#EEEEEE" transform="translate(180,15)"/>
<path d="M0 0 C10.02272727 -0.47727273 10.02272727 -0.47727273 13.6875 1.3125 C15.87022824 5.78189592 15.23429278 10.07985156 15 15 C10.05 15 5.1 15 0 15 C0 10.05 0 5.1 0 0 Z " fill="#EEEEEE" transform="translate(330,165)"/>
<path d="M0 0 C0 4.95 0 9.9 0 15 C-4.95 15 -9.9 15 -15 15 C-16.75303788 7.4035025 -16.75303788 7.4035025 -14.82421875 3.80859375 C-10.09560995 -1.57223696 -6.77626437 -1.56375332 0 0 Z " fill="#FEFEFE" transform="translate(240,255)"/>
<path d="M0 0 C0 4.95 0 9.9 0 15 C-4.95 15 -9.9 15 -15 15 C-16.75303788 7.4035025 -16.75303788 7.4035025 -14.82421875 3.80859375 C-10.09560995 -1.57223696 -6.77626437 -1.56375332 0 0 Z " fill="#FEFEFE" transform="translate(255,240)"/>
<path d="M0 0 C12.54 0 25.08 0 38 0 C38 2.97 38 5.94 38 9 C33.43036451 10.39746826 30.7205829 9.46613726 26.3125 7.8125 C17.71487216 4.71412809 8.93909303 2.83287245 0 1 C0 0.67 0 0.34 0 0 Z " fill="#ECECEC" transform="translate(202,0)"/>
<path d="M0 0 C0.33 0 0.66 0 1 0 C1.06469482 0.58265625 1.12938965 1.1653125 1.19604492 1.765625 C2.50064433 13.16099286 4.12695957 23.86976353 8.01171875 34.6875 C8.99541041 37.98461671 9.19271993 40.58312777 9 44 C6.03 44 3.06 44 0 44 C0 29.48 0 14.96 0 0 Z " fill="#EBEBEB" transform="translate(0,106)"/>
<path d="M0 0 C1.4606285 2.64738916 2 3.89448334 2 7 C3.32 7 4.64 7 6 7 C6 11.95 6 16.9 6 22 C1.05 22 -3.9 22 -9 22 C-9 20.02 -9 18.04 -9 16 C-9.99 15.67 -10.98 15.34 -12 15 C-10.906875 14.731875 -9.81375 14.46375 -8.6875 14.1875 C-4.65751434 12.91507115 -4.65751434 12.91507115 -2 10 C-1.21201945 7.50556226 -1.21201945 7.50556226 -0.8125 4.8125 C-0.57466797 3.46091797 -0.57466797 3.46091797 -0.33203125 2.08203125 C-0.22246094 1.39496094 -0.11289062 0.70789063 0 0 Z " fill="#FDFDFD" transform="translate(294,158)"/>
<path d="M0 0 C0.66 0.33 1.32 0.66 2 1 C2 3.31 2 5.62 2 8 C-0.64 8 -3.28 8 -6 8 C-6 5 -6 5 -4.6875 3.61328125 C-3.125 2.40885417 -1.5625 1.20442708 0 0 Z M-11 9 C-10.34 9.33 -9.68 9.66 -9 10 C-9.99 10.66 -10.98 11.32 -12 12 C-11.67 11.01 -11.34 10.02 -11 9 Z M-15 14 C-14.34 14.33 -13.68 14.66 -13 15 C-13 17.64 -13 20.28 -13 23 C-15.64 23 -18.28 23 -21 23 C-21 20 -21 20 -19.6875 18.39453125 C-19.130625 17.87246094 -18.57375 17.35039062 -18 16.8125 C-17.443125 16.28269531 -16.88625 15.75289062 -16.3125 15.20703125 C-15.6628125 14.60955078 -15.6628125 14.60955078 -15 14 Z M-26 24 C-25.01 24.495 -25.01 24.495 -24 25 C-24.99 25.495 -24.99 25.495 -26 26 C-26 25.34 -26 24.68 -26 24 Z M-28 26 C-27.01 26.495 -27.01 26.495 -26 27 C-26.99 27.495 -26.99 27.495 -28 28 C-28 27.34 -28 26.68 -28 26 Z M-30 29 C-29.34 29.33 -28.68 29.66 -28 30 C-28 32.64 -28 35.28 -28 38 C-32.62 38 -37.24 38 -42 38 C-39.94234109 34.91351164 -39.21010589 34.3950297 -36 32.9375 C-33.45629163 31.77319231 -32.00643448 31.00643448 -30 29 Z " fill="#EDEDED" transform="translate(253,232)"/>
<path d="M0 0 C2.97 0 5.94 0 9 0 C9 12.54 9 25.08 9 38 C8.67 38 8.34 38 8 38 C7.74605469 36.83984375 7.49210937 35.6796875 7.23046875 34.484375 C6.88323376 32.90615726 6.53554615 31.32803906 6.1875 29.75 C6.00662842 28.92967285 5.82575684 28.1093457 5.6394043 27.26416016 C4.60576948 22.6125755 3.51014972 17.98773009 2.3125 13.375 C1.16907384 8.91315226 0.44070114 4.58329181 0 0 Z " fill="#EDEDED" transform="translate(351,120)"/>
<path d="M0 0 C0.33 0 0.66 0 1 0 C1.11214844 0.62648437 1.22429687 1.25296875 1.33984375 1.8984375 C1.97877358 4.54602907 2.60835563 6.65052633 4 9 C6.94366533 10.39354369 9.76734274 10.78991116 13 11 C12.01 11.66 11.02 12.32 10 13 C10 14.98 10 16.96 10 19 C5.05 19 0.1 19 -5 19 C-5 14.05 -5 9.1 -5 4 C-3.35 4 -1.7 4 0 4 C0 2.68 0 1.36 0 0 Z " fill="#EAEAEA" transform="translate(275,161)"/>
<path d="M0 0 C2.44413389 3.08269139 4.33109524 6.28471111 6.1875 9.75 C6.71730469 10.73484375 7.24710938 11.7196875 7.79296875 12.734375 C8.19128906 13.48203125 8.58960937 14.2296875 9 15 C8 16 8 16 4.62109375 16.09765625 C3.22652508 16.09191424 1.83198403 16.07890228 0.4375 16.0625 C-2.016875 16.041875 -4.47125 16.02125 -7 16 C-7 11.05 -7 6.1 -7 1 C-5.02 1 -3.04 1 -1 1 C-0.67 0.67 -0.34 0.34 0 0 Z " fill="#EDEDED" transform="translate(97,164)"/>
<path d="M0 0 C5.37687003 1.07537401 9.83915326 2.31958092 14 6 C15.1028952 9.21184602 15.05164903 11.5395152 15 15 C10.05 15 5.1 15 0 15 C0 10.05 0 5.1 0 0 Z " fill="#ECECEC" transform="translate(180,255)"/>
<path d="M0 0 C5.71356975 -0.19130256 10.50434127 0.36154711 16 1.875 C16.66 2.04902344 17.32 2.22304688 18 2.40234375 C19.330125 2.7530603 20.65956072 3.10640183 21.98828125 3.46240234 C29.40967048 5.46702512 29.40967048 5.46702512 37 6.625 C37.763125 6.69976562 38.52625 6.77453125 39.3125 6.8515625 C39.869375 6.90054687 40.42625 6.94953125 41 7 C41 7.33 41 7.66 41 8 C27.47 8 13.94 8 0 8 C0 5.36 0 2.72 0 0 Z " fill="#EFEFEF" transform="translate(210,352)"/>
<path d="M0 0 C4.95 0 9.9 0 15 0 C15.22786458 3.05989583 15.45572917 6.11979167 15.68359375 9.1796875 C15.83001703 11.94728971 15.83001703 11.94728971 17 14 C10.28460827 12.70024676 4.27980887 10.70071112 -2 8 C-1.34 7.67 -0.68 7.34 0 7 C0 4.69 0 2.38 0 0 Z " fill="#F9F9F9" transform="translate(210,60)"/>
<path d="M0 0 C1.98 0 3.96 0 6 0 C7 2 8 4 9 6 C10.64363134 6.72159424 12.31050386 7.39351421 14 8 C14.33 10.31 14.66 12.62 15 15 C10.05 15 5.1 15 0 15 C0 10.05 0 5.1 0 0 Z " fill="#EDEDED" transform="translate(180,75)"/>
<path d="M0 0 C0.99 0.495 0.99 0.495 2 1 C5.00474497 1.13559318 7.99068847 1.04299016 11 1 C11 5.95 11 10.9 11 16 C7.7 16 4.4 16 1 16 C0.67 10.72 0.34 5.44 0 0 Z " fill="#EDEDED" transform="translate(19,89)"/>
<path d="M0 0 C4.95 0 9.9 0 15 0 C15.09765625 6.93359375 15.09765625 6.93359375 15 9 C14 10 14 10 10.83984375 10.09765625 C8.90818359 10.08025391 8.90818359 10.08025391 6.9375 10.0625 C5.64714844 10.05347656 4.35679687 10.04445313 3.02734375 10.03515625 C2.02832031 10.02355469 1.02929688 10.01195312 0 10 C0 6.7 0 3.4 0 0 Z " fill="#EEEEEE" transform="translate(255,330)"/>
<path d="M0 0 C0.66 0.33 1.32 0.66 2 1 C2 5.95 2 10.9 2 16 C-2.95 16 -7.9 16 -13 16 C-12.04767365 12.19069459 -11.86073419 11.48618469 -9.27734375 8.984375 C-8.73916016 8.45585938 -8.20097656 7.92734375 -7.64648438 7.3828125 C-7.08251953 6.84398437 -6.51855469 6.30515625 -5.9375 5.75 C-5.36966797 5.19570313 -4.80183594 4.64140625 -4.21679688 4.0703125 C-2.81787531 2.70665786 -1.40980886 1.35239583 0 0 Z " fill="#FEFEFE" transform="translate(58,44)"/>
<path d="M0 0 C0.99 0 1.98 0 3 0 C3 9.9 3 19.8 3 30 C-0.96 30.495 -0.96 30.495 -5 31 C-7.38740541 31.93786348 -7.38740541 31.93786348 -9 33 C-8.51789063 32.14019531 -8.03578125 31.28039062 -7.5390625 30.39453125 C-2.14139087 20.42610161 0.15340013 11.45387646 0 0 Z " fill="#F8F8F8" transform="translate(147,90)"/>
<path d="M0 0 C0.66 0.33 1.32 0.66 2 1 C-6 9 -14 17 -22 25 C-20.02 25.33 -18.04 25.66 -16 26 C-16 30.62 -16 35.24 -16 40 C-16.99 40 -17.98 40 -19 40 C-20.03544174 38.09118566 -21.05290085 36.17260796 -22.0625 34.25 C-22.63097656 33.18265625 -23.19945313 32.1153125 -23.78515625 31.015625 C-25.11728231 27.70886835 -25.33238347 27.16798474 -24 24 C-22.26624268 22.01135897 -20.53938987 20.19021062 -18.65234375 18.359375 C-17.85540855 17.56880707 -17.85540855 17.56880707 -17.04237366 16.76226807 C-15.34767175 15.08432813 -13.64282783 13.41713272 -11.9375 11.75 C-10.78512255 10.61267255 -9.63342148 9.47465934 -8.48242188 8.3359375 C-5.66272816 5.54928008 -2.83389412 2.77221208 0 0 Z " fill="#EBEBEB" transform="translate(136,124)"/>
<path d="M0 0 C9.9 0 19.8 0 30 0 C29.67 1.32 29.34 2.64 29 4 C27.36804688 3.91298828 27.36804688 3.91298828 25.703125 3.82421875 C16.01659284 3.47073599 8.7361305 4.28686601 0 9 C0 6.03 0 3.06 0 0 Z " fill="#FAFAFA" transform="translate(240,210)"/>
<path d="M0 0 C4.73624704 -0.37889976 8.09935347 -0.44213557 12.4375 1.6875 C15 4 15 4 17 9 C11.39 9 5.78 9 0 9 C-1 2 -1 2 0 0 Z " fill="#F8F8F8" transform="translate(255,231)"/>
<path d="M0 0 C0 4.62 0 9.24 0 14 C-4.62 14 -9.24 14 -14 14 C-2.28571429 0 -2.28571429 0 0 0 Z " fill="#FFFFFF" transform="translate(315,331)"/>
<path d="M0 0 C0 4.62 0 9.24 0 14 C-4.62 14 -9.24 14 -14 14 C-2.28571429 0 -2.28571429 0 0 0 Z " fill="#FFFFFF" transform="translate(330,316)"/>
<path d="M0 0 C4.93548406 2.96129044 8.93205976 5.93205976 13 10 C13 10.99 13 11.98 13 13 C8.71 13 4.42 13 0 13 C0 8.71 0 4.42 0 0 Z " fill="#EDEDED" transform="translate(240,107)"/>
<path d="M0 0 C0.99 0 1.98 0 3 0 C5.078125 2.30078125 5.078125 2.30078125 7.25 5.3125 C8.34054688 6.79169922 8.34054688 6.79169922 9.453125 8.30078125 C9.96359375 9.19152344 10.4740625 10.08226562 11 11 C10.67 11.99 10.34 12.98 10 14 C6.7 14 3.4 14 0 14 C0 9.38 0 4.76 0 0 Z " fill="#ECECEC" transform="translate(105,181)"/>
<path d="M0 0 C5.73681953 1.28785745 9.46625506 3.20645832 14 7 C14 7.99 14 8.98 14 10 C9.38 10 4.76 10 0 10 C0 6.7 0 3.4 0 0 Z " fill="#EDEDED" transform="translate(165,245)"/>
<path d="M0 0 C7.71518987 2.91139241 7.71518987 2.91139241 10 7 C10.66 8.65 11.32 10.3 12 12 C8.04 12 4.08 12 0 12 C0 8.04 0 4.08 0 0 Z " fill="#EDEDED" transform="translate(285,63)"/>
<path d="M0 0 C2.31 0 4.62 0 7 0 C7 4.95 7 9.9 7 15 C5.68 15 4.36 15 3 15 C2.566875 13.63875 2.566875 13.63875 2.125 12.25 C1.15625677 9.12191528 1.15625677 9.12191528 -0.1875 6.9375 C-1.27962923 4.33319183 -0.74076957 2.66677045 0 0 Z " fill="#ECECEC" transform="translate(293,150)"/>
<path d="M0 0 C4.95 0 9.9 0 15 0 C15 2.31 15 4.62 15 7 C10.55784062 8.23393316 10.55784062 8.23393316 8.0625 7.1875 C7.381875 6.795625 6.70125 6.40375 6 6 C4.00779443 5.31039038 2.00894394 4.63920943 0 4 C0 2.68 0 1.36 0 0 Z " fill="#EBEBEB" transform="translate(195,60)"/>
<path d="M0 0 C7 8.20689655 7 8.20689655 7 13 C7.33 13.99 7.66 14.98 8 16 C5.03 16 2.06 16 -1 16 C-1.02685095 13.52076199 -1.04676547 11.0418116 -1.0625 8.5625 C-1.07506836 7.50192383 -1.07506836 7.50192383 -1.08789062 6.41992188 C-1.09653588 4.61306441 -1.05220011 2.80612397 -1 1 C-0.67 0.67 -0.34 0.34 0 0 Z " fill="#EDEDED" transform="translate(31,194)"/>
<path d="M0 0 C6.05537521 0.30276876 9.51483458 3.27754038 14 7 C13.67 7.66 13.34 8.32 13 9 C8.71 9 4.42 9 0 9 C0 6.03 0 3.06 0 0 Z " fill="#EDEDED" transform="translate(225,96)"/>
<path d="M0 0 C1.98 0 3.96 0 6 0 C6 4.95 6 9.9 6 15 C3.36 15 0.72 15 -2 15 C-2 14.34 -2 13.68 -2 13 C-1.34 13 -0.68 13 0 13 C0 8.71 0 4.42 0 0 Z " fill="#EDEDED" transform="translate(339,285)"/>
<path d="M0 0 C4 1 4 1 5.73828125 3.21484375 C6.25777344 4.11332031 6.77726562 5.01179688 7.3125 5.9375 C7.84488281 6.83339844 8.37726563 7.72929687 8.92578125 8.65234375 C9.28027344 9.42707031 9.63476562 10.20179688 10 11 C9.67 11.66 9.34 12.32 9 13 C6.03 13 3.06 13 0 13 C0 8.71 0 4.42 0 0 Z " fill="#ECECEC" transform="translate(255,122)"/>
<path d="M0 0 C5.02471458 2.00988583 5.70054345 2.37297771 8.3125 6.625 C8.82425781 7.44226563 9.33601563 8.25953125 9.86328125 9.1015625 C10.23839844 9.72804688 10.61351562 10.35453125 11 11 C10 12 10 12 7.71484375 12.09765625 C5.14322917 12.06510417 2.57161458 12.03255208 0 12 C0 8.04 0 4.08 0 0 Z " fill="#ECECEC" transform="translate(300,78)"/>
<path d="M0 0 C4.68733545 0.28408094 7.20928915 2.51449271 10.64453125 5.4296875 C12 7 12 7 12 10 C8.04 10 4.08 10 0 10 C0 6.7 0 3.4 0 0 Z " fill="#EDEDED" transform="translate(270,50)"/>
<path d="M0 0 C0.99 0 1.98 0 3 0 C5.31 5.28 7.62 10.56 10 16 C6.7 15.34 3.4 14.68 0 14 C0 9.38 0 4.76 0 0 Z " fill="#F4F4F4" transform="translate(15,166)"/>
<path d="M0 0 C2 2 2 2 3 5 C4.32 5.33 5.64 5.66 7 6 C7 13.59 7 21.18 7 29 C6.67 29 6.34 29 6 29 C5.60167969 27.17275391 5.60167969 27.17275391 5.1953125 25.30859375 C4.83865655 23.6848706 4.48187926 22.06117409 4.125 20.4375 C3.86396484 19.23770508 3.86396484 19.23770508 3.59765625 18.01367188 C2.79157586 14.3564553 1.9527928 10.74533426 0.8671875 7.16015625 C0 4 0 4 0 0 Z " fill="#F8F8F8" transform="translate(353,129)"/>
<path d="M0 0 C4.95 0 9.9 0 15 0 C15 1.65 15 3.3 15 5 C10.05 5 5.1 5 0 5 C0 3.35 0 1.7 0 0 Z " fill="#EEEEEE" transform="translate(60,15)"/>
<path d="M0 0 C0.66 0.33 1.32 0.66 2 1 C-0.01550104 3.06421406 -2.09805347 4.96458255 -4.3125 6.8125 C-10.8478316 12.04106632 -10.8478316 12.04106632 -15 19 C-17.5 20.5 -17.5 20.5 -20 22 C-22.20939901 23.9603932 -24.25728007 26.0673521 -26.3125 28.1875 C-26.86228516 28.74630859 -27.41207031 29.30511719 -27.97851562 29.88085938 C-29.32363696 31.24937412 -30.66246643 32.62406833 -32 34 C-32 30.06903465 -30.32368837 28.97217476 -27.65544128 26.28990173 C-27.03051285 25.6773201 -26.40558441 25.06473846 -25.76171875 24.43359375 C-25.12514847 23.79889664 -24.48857819 23.16419952 -23.8327179 22.51026917 C-22.48352007 21.16780015 -21.13072624 19.82893705 -19.7746582 18.4934082 C-17.69942451 16.44924597 -15.63497252 14.39468507 -13.57226562 12.33789062 C-12.26103596 11.03583439 -10.94920652 9.7343818 -9.63671875 8.43359375 C-9.01786301 7.81898788 -8.39900726 7.20438202 -7.76139832 6.57115173 C-7.1810231 6.00038406 -6.60064789 5.42961639 -6.00268555 4.84155273 C-5.4941655 4.33986069 -4.98564545 3.83816864 -4.4617157 3.3212738 C-3 2 -3 2 0 0 Z " fill="#E9E9E9" transform="translate(60,41)"/>
<path d="M0 0 C0.66 0 1.32 0 2 0 C2.86846831 1.74294678 3.71930627 3.49468663 4.5625 5.25 C5.27599609 6.71179688 5.27599609 6.71179688 6.00390625 8.203125 C7.03510273 11.09856297 7.11346788 12.19966161 6 15 C3.03 14.505 3.03 14.505 0 14 C0 9.38 0 4.76 0 0 Z " fill="#F8F8F8" transform="translate(90,151)"/>
<path d="M0 0 C0.66 0.33 1.32 0.66 2 1 C-1.18510649 4.19826809 -4.39257873 7.37264978 -7.609375 10.5390625 C-9.32304306 12.23424724 -11.03658131 13.92956321 -12.75 15.625 C-13.62527344 16.48351562 -14.50054687 17.34203125 -15.40234375 18.2265625 C-16.64951172 19.4640625 -16.64951172 19.4640625 -17.921875 20.7265625 C-18.68081055 21.47502441 -19.43974609 22.22348633 -20.22167969 22.99462891 C-22.20842189 24.97054169 -22.20842189 24.97054169 -23 28 C-23.66 28 -24.32 28 -25 28 C-24.55970115 23.62424647 -21.64457907 21.26247892 -18.65234375 18.359375 C-17.85540855 17.56880707 -17.85540855 17.56880707 -17.04237366 16.76226807 C-15.34767175 15.08432813 -13.64282783 13.41713272 -11.9375 11.75 C-10.78512255 10.61267255 -9.63342148 9.47465934 -8.48242188 8.3359375 C-5.66272816 5.54928008 -2.83389412 2.77221208 0 0 Z " fill="#DADADA" transform="translate(136,124)"/>
<path d="M0 0 C1.98 0 3.96 0 6 0 C6 3.96 6 7.92 6 12 C1.46508117 9.73254058 0.75122251 8.60848028 -1 4 C-0.6875 1.625 -0.6875 1.625 0 0 Z " fill="#E9E9E9" transform="translate(39,165)"/>
<path d="M0 0 C6.63377609 4.03795066 6.63377609 4.03795066 8 8 C8 8.33 8 8.66 8 9 C5.03 9 2.06 9 -1 9 C-1.09765625 2.84765625 -1.09765625 2.84765625 -1 1 C-0.67 0.67 -0.34 0.34 0 0 Z " fill="#EDEDED" transform="translate(151,231)"/>
<path d="M0 0 C3.63 0 7.26 0 11 0 C11 1.98 11 3.96 11 6 C8 7 8 7 5.95703125 6.22265625 C5.24933594 5.83980469 4.54164063 5.45695312 3.8125 5.0625 C3.09707031 4.68222656 2.38164062 4.30195313 1.64453125 3.91015625 C1.10183594 3.60980469 0.55914062 3.30945313 0 3 C0 2.01 0 1.02 0 0 Z " fill="#EDEDED" transform="translate(184,315)"/>
<path d="M0 0 C2.31 0 4.62 0 7 0 C6.29423828 0.81210938 6.29423828 0.81210938 5.57421875 1.640625 C3.73777329 4.39301472 3.31616146 6.49557207 2.8125 9.75 C2.65394531 10.73484375 2.49539062 11.7196875 2.33203125 12.734375 C2.22246094 13.48203125 2.11289063 14.2296875 2 15 C-0.02558881 11.65060119 -0.21738987 9.13037449 -0.125 5.25 C-0.09792969 3.77273437 -0.09792969 3.77273437 -0.0703125 2.265625 C-0.04710938 1.51796875 -0.02390625 0.7703125 0 0 Z " fill="#EDEDED" transform="translate(90,135)"/>
<path d="M0 0 C0 1.32 0 2.64 0 4 C-5.94 4 -11.88 4 -18 4 C-18 3.67 -18 3.34 -18 3 C-15.37700199 2.30391966 -12.7520793 1.61784618 -10.125 0.9375 C-9.00544922 0.63875977 -9.00544922 0.63875977 -7.86328125 0.33398438 C-2.2265625 -1.11328125 -2.2265625 -1.11328125 0 0 Z " fill="#E0E0E0" transform="translate(285,356)"/>
<path d="M0 0 C2.31 0.66 4.62 1.32 7 2 C7 5.3 7 8.6 7 12 C6.34 12 5.68 12 5 12 C4.15885829 10.56705502 3.32734313 9.12845595 2.5 7.6875 C1.80390625 6.48673828 1.80390625 6.48673828 1.09375 5.26171875 C0 3 0 3 0 0 Z " fill="#F6F6F6" transform="translate(278,118)"/>
<path d="M0 0 C3.3 0 6.6 0 10 0 C10 1.32 10 2.64 10 4 C11.65 4.33 13.3 4.66 15 5 C11.52348473 6.19935725 9.30131722 5.80128318 5.8125 4.75 C4.93207031 4.49734375 4.05164063 4.2446875 3.14453125 3.984375 C2.43683594 3.65953125 1.72914063 3.3346875 1 3 C0.67 2.01 0.34 1.02 0 0 Z " fill="#F6F6F6" transform="translate(215,330)"/>
<path d="M0 0 C2.475 0.495 2.475 0.495 5 1 C5.33 5.62 5.66 10.24 6 15 C3.33986587 12.33986587 2.511763 11.36840488 1.3125 8.0625 C1.06113281 7.39347656 0.80976563 6.72445312 0.55078125 6.03515625 C0 4 0 4 0 0 Z " fill="#F6F6F6" transform="translate(25,134)"/>
<path d="M0 0 C4.95 0 9.9 0 15 0 C14.67 1.32 14.34 2.64 14 4 C9.71 3.67 5.42 3.34 1 3 C0.67 2.01 0.34 1.02 0 0 Z " fill="#E9E9E9" transform="translate(255,210)"/>
<path d="M0 0 C2.93200474 2.85276137 5.64315404 5.65079784 8 9 C5.36 9 2.72 9 0 9 C0 6.03 0 3.06 0 0 Z " fill="#EEEEEE" transform="translate(120,201)"/>
<path d="M0 0 C0.99 0 1.98 0 3 0 C4.30211046 3.90633137 3.47812346 6.19538173 2.5625 10.1875 C2.27503906 11.45980469 1.98757812 12.73210937 1.69140625 14.04296875 C1.46324219 15.01878906 1.23507813 15.99460937 1 17 C0.67 17 0.34 17 0 17 C0 11.39 0 5.78 0 0 Z " fill="#E9E9E9" transform="translate(0,75)"/>
<path d="M0 0 C2.97 0.495 2.97 0.495 6 1 C6 3.64 6 6.28 6 9 C3 8 3 8 1.3125 5.625 C0 3 0 3 0 0 Z " fill="#F7F7F7" transform="translate(54,194)"/>
<path d="M0 0 C1.43793392 0.31049726 2.8753318 0.6234776 4.3125 0.9375 C5.11300781 1.11152344 5.91351563 1.28554688 6.73828125 1.46484375 C9 2 9 2 12 3 C12 3.66 12 4.32 12 5 C8.7 5 5.4 5 2 5 C2 3.68 2 2.36 2 1 C1.34 0.67 0.68 0.34 0 0 Z " fill="#F7F7F7" transform="translate(223,25)"/>
<path d="M0 0 C0.99 0 1.98 0 3 0 C3 4.95 3 9.9 3 15 C1 14 1 14 0 12 C-0.07065617 9.95944995 -0.08421976 7.91665743 -0.0625 5.875 C-0.05347656 4.77929688 -0.04445312 3.68359375 -0.03515625 2.5546875 C-0.02355469 1.71164063 -0.01195312 0.86859375 0 0 Z " fill="#EBEBEB" transform="translate(147,90)"/>
<path d="M0 0 C2.31 0 4.62 0 7 0 C7.33 1.98 7.66 3.96 8 6 C4.65750371 5.40312566 2.53563658 4.26396123 0 2 C0 1.34 0 0.68 0 0 Z " fill="#FBFBFB" transform="translate(158,300)"/>
<path d="M0 0 C2.97 0.495 2.97 0.495 6 1 C6 3.31 6 5.62 6 8 C2.24623848 6.74874616 1.75926711 5.4347596 0 2 C0 1.34 0 0.68 0 0 Z " fill="#F6F6F6" transform="translate(324,74)"/>
<path d="M0 0 C2.625 0.9375 2.625 0.9375 5 2 C5 2.99 5 3.98 5 5 C2.69 5 0.38 5 -2 5 C-2 3.68 -2 2.36 -2 1 C-1.34 0.67 -0.68 0.34 0 0 Z " fill="#EBEBEB" transform="translate(257,40)"/>
<path d="M0 0 C1.16959987 0.97566112 2.33561177 1.955625 3.5 2.9375 C4.1496875 3.48277344 4.799375 4.02804688 5.46875 4.58984375 C5.9740625 5.05519531 6.479375 5.52054688 7 6 C7 6.33 7 6.66 7 7 C4.69 7 2.38 7 0 7 C0 4.69 0 2.38 0 0 Z " fill="#EEEEEE" transform="translate(135,218)"/>
<path d="M0 0 C0.33 0 0.66 0 1 0 C1 2.31 1 4.62 1 7 C-1.31 7 -3.62 7 -6 7 C-5.02433888 5.83040013 -4.044375 4.66438823 -3.0625 3.5 C-2.51722656 2.8503125 -1.97195312 2.200625 -1.41015625 1.53125 C-0.71212891 0.77328125 -0.71212891 0.77328125 0 0 Z " fill="#FFFFFF" transform="translate(119,143)"/>
<path d="M0 0 C0.33 0 0.66 0 1 0 C1 2.31 1 4.62 1 7 C-1.31 7 -3.62 7 -6 7 C-5.02433888 5.83040013 -4.044375 4.66438823 -3.0625 3.5 C-2.51722656 2.8503125 -1.97195312 2.200625 -1.41015625 1.53125 C-0.71212891 0.77328125 -0.71212891 0.77328125 0 0 Z " fill="#FFFFFF" transform="translate(134,128)"/>
<path d="M0 0 C2.31 0 4.62 0 7 0 C6.02433888 1.16959987 5.044375 2.33561177 4.0625 3.5 C3.51722656 4.1496875 2.97195312 4.799375 2.41015625 5.46875 C1.94480469 5.9740625 1.47945313 6.479375 1 7 C0.67 7 0.34 7 0 7 C0 4.69 0 2.38 0 0 Z " fill="#EEEEEE" transform="translate(105,120)"/>
<path d="M0 0 C1.98 0 3.96 0 6 0 C6.33 2.31 6.66 4.62 7 7 C3.535 5.02 3.535 5.02 0 3 C0 2.01 0 1.02 0 0 Z " fill="#F5F5F5" transform="translate(279,30)"/>
<path d="M0 0 C1.98 0 3.96 0 6 0 C4.19587357 3.26460973 3.16605307 4.88929795 0 7 C0 4.69 0 2.38 0 0 Z " fill="#EEEEEE" transform="translate(120,105)"/>
<path d="M0 0 C0.99 0 1.98 0 3 0 C3.33 2.31 3.66 4.62 4 7 C2.68 7 1.36 7 0 7 C0 4.69 0 2.38 0 0 Z " fill="#EAEAEA" transform="translate(315,98)"/>
<path d="M0 0 C2.31 0.66 4.62 1.32 7 2 C6.67 2.66 6.34 3.32 6 4 C4.02 4 2.04 4 0 4 C0 2.68 0 1.36 0 0 Z " fill="#EDEDED" transform="translate(135,311)"/>
<path d="M0 0 C1.9375 0.3125 1.9375 0.3125 4 1 C4.33 1.99 4.66 2.98 5 4 C4.67 4.66 4.34 5.32 4 6 C2.68 6 1.36 6 0 6 C0 4.02 0 2.04 0 0 Z " fill="#EAEAEA" transform="translate(45,219)"/>
<path d="M0 0 C2.33333333 2.33333333 4.66666667 4.66666667 7 7 C6.67 7.99 6.34 8.98 6 10 C4.99106869 8.90398831 3.99311775 7.79786082 3 6.6875 C2.1646875 5.76517578 2.1646875 5.76517578 1.3125 4.82421875 C0 3 0 3 0 0 Z " fill="#E6E6E6" transform="translate(317,65)"/>
</svg>
