<?xml version="1.0" encoding="UTF-8"?>
<svg version="1.1" xmlns="http://www.w3.org/2000/svg" width="1920" height="1920">
<path d="M0 0 C3.12295732 0.66969326 6.23235683 1.17353703 9.39086914 1.63769531 C29.15002424 4.67142418 48.2715734 11.91387304 66.5703125 19.765625 C67.31120117 20.07967285 68.05208984 20.3937207 68.81542969 20.71728516 C86.34648057 28.17706022 103.5354016 36.44929859 119.5703125 46.765625 C121.25411837 47.77183275 122.94147439 48.77213033 124.6328125 49.765625 C129.45300654 52.64206599 134.10078145 55.75288567 138.75390625 58.890625 C141.06149223 60.42688196 143.38609975 61.89472405 145.7578125 63.328125 C149.45091488 65.60490358 152.79942926 68.23147805 156.1953125 70.92578125 C161.15425703 74.76733203 166.35245588 78.28705392 171.5703125 81.765625 C171.5703125 82.425625 171.5703125 83.085625 171.5703125 83.765625 C172.14265625 84.0234375 172.715 84.28125 173.3046875 84.546875 C175.78160245 85.87928442 177.7044291 87.41618618 179.8203125 89.265625 C180.87992188 90.17828125 180.87992188 90.17828125 181.9609375 91.109375 C183.5703125 92.765625 183.5703125 92.765625 183.5703125 94.765625 C184.13105469 95.01054687 184.69179687 95.25546875 185.26953125 95.5078125 C192.30111275 99.35190289 197.93964066 105.9771774 203.0390625 112.05078125 C204.67093399 113.97402533 204.67093399 113.97402533 207.3828125 116.015625 C209.71168222 117.87872077 210.29631195 119.13799887 211.5703125 121.765625 C212.70519646 122.9338879 213.84554686 124.09759816 215.01953125 125.2265625 C220.66913372 130.83347276 226.30220318 137.02395232 230.5703125 143.765625 C230.5703125 144.425625 230.5703125 145.085625 230.5703125 145.765625 C231.2303125 145.765625 231.8903125 145.765625 232.5703125 145.765625 C233.7265625 147.2421875 233.7265625 147.2421875 235.0703125 149.390625 C237.38309606 152.99333944 239.79185747 156.48858762 242.31054688 159.94799805 C245.90550804 164.88974212 249.33409769 169.76520628 252.17578125 175.1875 C253.72749738 178.05621889 255.39438781 180.84055979 257.0715332 183.63720703 C261.67498713 191.32877202 265.90224854 199.12026528 269.82421875 207.1796875 C271.28076576 210.17098538 272.78807173 213.12541786 274.3203125 216.078125 C276.42467906 220.27282901 277.99908203 224.56513884 279.54296875 228.9921875 C280.57005941 231.76494176 281.74891849 234.40346545 283.0078125 237.078125 C293.39081511 259.60609429 305.10643106 290.56805278 304.5703125 315.765625 C306.42504093 315.05876391 308.27904721 314.35000811 310.1328125 313.640625 C311.93685547 312.95033203 311.93685547 312.95033203 313.77734375 312.24609375 C316.16646315 311.32270671 318.52968293 310.36541759 320.89453125 309.37890625 C341.57879886 300.7702886 363.28850629 294.50792244 385.26806641 290.22607422 C387.5238544 289.77491662 389.76462208 289.27524966 392.0078125 288.765625 C430.95572862 281.08490241 475.99218652 282.07830698 514.54052734 291.29394531 C517.39132191 291.95641044 520.26186615 292.5102455 523.1328125 293.078125 C540.7872322 296.9343805 557.6363801 302.31611684 574.4453125 308.890625 C575.21635315 309.19199371 575.9873938 309.49336243 576.78179932 309.80386353 C588.24105431 314.3021016 599.49467329 319.12836826 610.5078125 324.640625 C611.18602051 324.97940674 611.86422852 325.31818848 612.56298828 325.66723633 C617.78004777 328.30279111 622.82042748 331.18106546 627.8359375 334.18359375 C630.41142874 335.6736994 633.01055714 336.98578044 635.6953125 338.265625 C640.09985522 340.41880114 643.97793556 343.01656949 647.9453125 345.88671875 C650.7325115 347.8817228 653.57806493 349.76272718 656.4453125 351.640625 C661.72219809 355.14046171 666.79934628 358.85133984 671.8359375 362.6875 C673.43657673 363.90398581 675.04699726 365.10813183 676.6796875 366.28125 C681.51976327 369.76130448 685.84717555 373.71996992 690.19238281 377.78833008 C692.94891453 380.34992426 695.71056302 382.70870142 698.8203125 384.828125 C699.7278125 385.4675 700.6353125 386.106875 701.5703125 386.765625 C701.5703125 387.425625 701.5703125 388.085625 701.5703125 388.765625 C702.2303125 388.765625 702.8903125 388.765625 703.5703125 388.765625 C706.1953125 391.140625 706.1953125 391.140625 708.5703125 393.765625 C708.5703125 394.425625 708.5703125 395.085625 708.5703125 395.765625 C709.13234375 395.9925 709.694375 396.219375 710.2734375 396.453125 C713.21658111 398.13492135 715.07075982 400.2367161 717.3203125 402.765625 C718.11953125 403.6525 718.91875 404.539375 719.7421875 405.453125 C721.5703125 407.765625 721.5703125 407.765625 721.5703125 409.765625 C722.5603125 410.095625 723.5503125 410.425625 724.5703125 410.765625 C726.26171875 412.59375 726.26171875 412.59375 728.1328125 415.015625 C729.19628906 416.38847656 729.19628906 416.38847656 730.28125 417.7890625 C731.03664063 418.77132813 731.79203125 419.75359375 732.5703125 420.765625 C733.32570313 421.70664062 734.08109375 422.64765625 734.859375 423.6171875 C742.46343896 433.2027665 749.04928225 443.4217536 755.5703125 453.765625 C756.19035156 454.7453125 756.81039063 455.725 757.44921875 456.734375 C758.5703125 458.765625 758.5703125 458.765625 758.5703125 460.765625 C759.2303125 460.765625 759.8903125 460.765625 760.5703125 460.765625 C766.15593439 471.53577359 771.10598934 482.45669248 775.70361328 493.68261719 C776.43196979 495.43313485 777.19801578 497.16790364 777.97265625 498.8984375 C789.82244637 525.47528307 794.79346051 556.13347522 794.52539062 585.05151367 C794.5704371 587.77315306 794.81243739 590.40888177 795.11328125 593.11328125 C795.75292328 599.53128801 795.36347424 605.78351346 794.8828125 612.203125 C794.74516479 614.09297119 794.74516479 614.09297119 794.60473633 616.02099609 C793.55658242 629.36854201 791.73611161 642.55798454 789.5703125 655.765625 C789.29380859 657.47927246 789.29380859 657.47927246 789.01171875 659.22753906 C785.42187201 681.10703603 779.97916799 701.90448979 771.3671875 722.35546875 C770.12486484 725.31715026 769.05000956 728.28025477 768.07421875 731.33984375 C766.6713744 735.65661227 764.83852726 739.61348382 762.7578125 743.640625 C762.40452881 744.33406006 762.05124512 745.02749512 761.68725586 745.74194336 C760.65704479 747.7545301 759.61646247 749.76128494 758.5703125 751.765625 C758.06242187 752.73886719 757.55453125 753.71210937 757.03125 754.71484375 C754.0943716 760.20303272 750.97283387 765.58660956 747.8203125 770.953125 C747.43109619 771.62609619 747.04187988 772.29906738 746.64086914 772.99243164 C745.67374486 774.61839216 744.6284939 776.19740017 743.5703125 777.765625 C742.9103125 777.765625 742.2503125 777.765625 741.5703125 777.765625 C741.35890625 778.41789063 741.1475 779.07015625 740.9296875 779.7421875 C739.0543505 783.91319566 736.47788498 787.43298729 733.8203125 791.140625 C733.30726562 791.87023437 732.79421875 792.59984375 732.265625 793.3515625 C729.34478519 797.46128685 726.292944 801.36879897 722.97216797 805.16210938 C720.92548902 807.50320783 718.97026664 809.91630748 717.0078125 812.328125 C716.24210937 813.26398437 715.47640625 814.19984375 714.6875 815.1640625 C713.43422122 816.70406927 712.18692271 818.24902952 710.953125 819.8046875 C709.86768777 821.15987836 708.72601545 822.46983684 707.5703125 823.765625 C706.9103125 823.765625 706.2503125 823.765625 705.5703125 823.765625 C705.20292969 824.62220703 705.20292969 824.62220703 704.828125 825.49609375 C699.24313099 835.57336555 687.10972741 843.32226378 678.37060547 850.70068359 C671.01553545 856.71029654 671.01553545 856.71029654 664.171875 863.265625 C662.16013844 865.14978802 659.9401256 866.36129131 657.5703125 867.765625 C655.82843999 869.08231603 654.10036256 870.41736059 652.3828125 871.765625 C644.52808651 877.76619384 636.07689963 882.7549643 627.5703125 887.765625 C626.72726562 888.26529785 625.88421875 888.7649707 625.015625 889.27978516 C606.50043678 900.21583946 588.01066256 909.06028923 567.5703125 915.765625 C566.62438232 916.08982422 565.67845215 916.41402344 564.70385742 916.74804688 C559.11289623 918.5636391 553.39556359 919.90159157 547.6953125 921.328125 C546.45394531 921.64458984 545.21257812 921.96105469 543.93359375 922.28710938 C537.8135832 923.8220002 531.85759751 925.19047236 525.5703125 925.765625 C525.5703125 926.425625 525.5703125 927.085625 525.5703125 927.765625 C526.30507812 928.01699219 527.03984375 928.26835938 527.796875 928.52734375 C530.77584626 929.85739148 532.5819284 931.34698803 534.9453125 933.578125 C537.64381907 936.06146825 540.29525562 938.3791777 543.3203125 940.453125 C545.83674048 942.2436603 547.84495938 943.96863854 549.98632812 946.15307617 C551.96177138 948.16414317 553.96568115 950.14535598 555.96875 952.12890625 C557.62766948 953.77858016 559.28652182 955.42832158 560.9453125 957.078125 C561.7703125 957.89474609 562.5953125 958.71136719 563.4453125 959.55273438 C568.36796605 964.45585359 573.08090402 969.46274582 577.5703125 974.765625 C578.3746875 975.714375 579.1790625 976.663125 580.0078125 977.640625 C581.5703125 979.765625 581.5703125 979.765625 581.5703125 981.765625 C582.2303125 981.765625 582.8903125 981.765625 583.5703125 981.765625 C584.7265625 983.05859375 584.7265625 983.05859375 586.0703125 984.953125 C588.8400078 988.77503297 591.68326836 992.5319514 594.5703125 996.265625 C595.44031634 997.39827456 596.3101121 998.53108398 597.1796875 999.6640625 C598.55479056 1001.44810143 599.9363843 1003.22726422 601.3359375 1004.9921875 C604.74499935 1009.35219818 607.36468058 1013.90442699 609.9453125 1018.796875 C611.66229848 1021.93367631 613.53143595 1024.93278856 615.4453125 1027.953125 C620.01096252 1035.31707664 623.8577115 1042.94233524 627.5703125 1050.765625 C627.9327002 1051.52230469 628.29508789 1052.27898437 628.66845703 1053.05859375 C649.42197475 1096.67432356 660.41720208 1145.40155148 658.5703125 1193.765625 C658.52245605 1195.04598633 658.47459961 1196.32634766 658.42529297 1197.64550781 C656.97081896 1234.2339276 650.63767126 1269.09700816 638.5703125 1303.765625 C638.30814941 1304.5189209 638.04598633 1305.2722168 637.77587891 1306.04833984 C623.89552151 1345.16887123 601.45072443 1380.9356963 571.5703125 1409.765625 C570.7865625 1410.56484375 570.0028125 1411.3640625 569.1953125 1412.1875 C566.43239172 1414.90108291 563.5428077 1417.41362122 560.5703125 1419.890625 C557.16415468 1422.7335218 553.76425144 1425.57223511 550.46484375 1428.5390625 C542.49507713 1435.63810768 533.92840792 1441.17322594 524.70703125 1446.52392578 C522.78698602 1447.63971075 520.8801461 1448.77442205 518.9765625 1449.91796875 C506.10499275 1457.51159343 492.6276334 1464.0282846 478.453125 1468.79296875 C475.64724607 1469.69539435 475.64724607 1469.69539435 473.3125 1470.7421875 C469.16204972 1472.29121595 464.88209289 1473.20739363 460.5703125 1474.203125 C459.62406006 1474.42411865 458.67780762 1474.6451123 457.70288086 1474.87280273 C455.82553743 1475.31087629 453.94786035 1475.74752286 452.06982422 1476.18261719 C450.06859434 1476.64940142 448.07079209 1477.13087131 446.07421875 1477.6171875 C442.91476569 1478.38082689 439.74890424 1479.08576943 436.5703125 1479.765625 C435.86052246 1479.9188623 435.15073242 1480.07209961 434.41943359 1480.22998047 C416.95439343 1483.92028477 399.33190471 1485.38097164 381.5703125 1486.765625 C379.95832949 1486.90099595 378.3463495 1487.03640285 376.734375 1487.171875 C372.67953832 1487.46796855 368.63332281 1487.65173196 364.5703125 1487.765625 C363.56693848 1487.79817383 362.56356445 1487.83072266 361.52978516 1487.86425781 C317.89033727 1489.10199033 274.02288828 1481.78122581 233.07226562 1466.68652344 C230.53976275 1465.7543805 228.00056446 1464.84221506 225.4609375 1463.9296875 C203.09420084 1455.77087129 182.01190604 1444.9146362 161.5703125 1432.765625 C160.97428223 1432.41209961 160.37825195 1432.05857422 159.76416016 1431.69433594 C147.67606303 1424.51693083 135.85982965 1417.16603067 124.5703125 1408.765625 C123.13365234 1407.71568359 123.13365234 1407.71568359 121.66796875 1406.64453125 C114.01242056 1401.00095367 106.77265547 1394.96657269 99.5703125 1388.765625 C98.83296875 1388.14171875 98.095625 1387.5178125 97.3359375 1386.875 C91.09840239 1381.59708567 91.09840239 1381.59708567 88.5703125 1378.765625 C88.5703125 1378.105625 88.5703125 1377.445625 88.5703125 1376.765625 C87.99796875 1376.5078125 87.425625 1376.25 86.8359375 1375.984375 C84.35902255 1374.65196558 82.4361959 1373.11506382 80.3203125 1371.265625 C79.26070312 1370.35296875 79.26070312 1370.35296875 78.1796875 1369.421875 C76.5703125 1367.765625 76.5703125 1367.765625 76.5703125 1365.765625 C75.9103125 1365.765625 75.2503125 1365.765625 74.5703125 1365.765625 C73.16015625 1364.40234375 73.16015625 1364.40234375 71.5078125 1362.453125 C70.89035156 1361.72609375 70.27289062 1360.9990625 69.63671875 1360.25 C68.95480469 1359.43015625 68.27289062 1358.6103125 67.5703125 1357.765625 C66.81621094 1356.86328125 66.06210937 1355.9609375 65.28515625 1355.03125 C53.5703125 1340.87173936 53.5703125 1340.87173936 53.5703125 1337.765625 C52.9103125 1337.765625 52.2503125 1337.765625 51.5703125 1337.765625 C50.17237023 1335.8102388 48.84959073 1333.800625 47.5703125 1331.765625 C43.60160294 1325.73752203 39.60797704 1319.76067063 35.3203125 1313.953125 C27.5703125 1303.39603839 27.5703125 1303.39603839 27.5703125 1299.765625 C26.9103125 1299.765625 26.2503125 1299.765625 25.5703125 1299.765625 C25.44358154 1300.35263184 25.31685059 1300.93963867 25.1862793 1301.54443359 C24.19514613 1305.11848416 22.22197685 1308.19585522 20.3828125 1311.390625 C19.97571045 1312.10484619 19.5686084 1312.81906738 19.14916992 1313.55493164 C12.04984342 1325.96998236 4.50137243 1337.73782436 -4.17822266 1349.1171875 C-5.51522828 1350.87829987 -6.8379712 1352.64961423 -8.16015625 1354.421875 C-9.06216376 1355.62004487 -9.96449997 1356.81796737 -10.8671875 1358.015625 C-11.29225586 1358.58893555 -11.71732422 1359.16224609 -12.15527344 1359.75292969 C-13.19932099 1361.12783144 -14.30914227 1362.45232057 -15.4296875 1363.765625 C-16.0896875 1363.765625 -16.7496875 1363.765625 -17.4296875 1363.765625 C-17.80673828 1364.58740234 -17.80673828 1364.58740234 -18.19140625 1365.42578125 C-21.81764032 1372.27787655 -27.40959423 1381.32729399 -34.6171875 1384.828125 C-36.56552144 1385.5986446 -36.56552144 1385.5986446 -37.19921875 1387.46484375 C-38.90937079 1390.66255662 -41.37092031 1392.99652862 -43.9296875 1395.515625 C-44.42855469 1396.02222656 -44.92742188 1396.52882813 -45.44140625 1397.05078125 C-49.17627611 1400.765625 -49.17627611 1400.765625 -51.4296875 1400.765625 C-51.7596875 1401.755625 -52.0896875 1402.745625 -52.4296875 1403.765625 C-54.06182507 1405.24573569 -55.76058939 1406.65321218 -57.4921875 1408.015625 C-61.74947807 1411.40261008 -65.86169667 1414.87480596 -69.87109375 1418.55078125 C-71.4296875 1419.765625 -71.4296875 1419.765625 -73.4296875 1419.765625 C-73.4296875 1420.425625 -73.4296875 1421.085625 -73.4296875 1421.765625 C-75.52217499 1423.41489108 -77.61361247 1424.94486577 -79.8046875 1426.453125 C-80.7632666 1427.12359863 -80.7632666 1427.12359863 -81.74121094 1427.80761719 C-83.03431523 1428.71142766 -84.32922994 1429.61265366 -85.62597656 1430.51123047 C-87.17049651 1431.58537009 -88.70363621 1432.67584183 -90.234375 1433.76953125 C-95.80186512 1437.74503937 -101.50665223 1441.34539404 -107.4296875 1444.765625 C-108.00460937 1445.10352051 -108.57953125 1445.44141602 -109.171875 1445.78955078 C-118.4148136 1451.21402434 -127.75883767 1455.85974838 -137.64013672 1460 C-140.22598709 1461.10630651 -142.76200727 1462.31402084 -145.3046875 1463.515625 C-149.35574728 1465.36685113 -153.36693724 1466.75874223 -157.65234375 1467.95703125 C-161.01236074 1468.93526404 -164.30637176 1470.06966155 -167.6171875 1471.203125 C-178.25753418 1474.80020345 -189.11058567 1477.55504882 -200.06933594 1480.00097656 C-202.18405516 1480.4821812 -204.29490337 1480.98107542 -206.39941406 1481.50512695 C-214.42118222 1483.47713424 -222.33750435 1484.61121439 -230.5546875 1485.390625 C-232.46036499 1485.57782104 -232.46036499 1485.57782104 -234.40454102 1485.76879883 C-244.40645013 1486.72477505 -254.38451904 1487.5120125 -264.4296875 1487.765625 C-265.66549561 1487.79849609 -265.66549561 1487.79849609 -266.92626953 1487.83203125 C-316.52670416 1488.94936787 -366.66903953 1479.18448574 -411.97753906 1458.86523438 C-413.69770427 1458.09386599 -415.42133372 1457.33019859 -417.14746094 1456.57226562 C-453.38360388 1440.65649293 -487.17595489 1420.36870292 -517.4296875 1394.765625 C-518.12320313 1394.18425781 -518.81671875 1393.60289063 -519.53125 1393.00390625 C-525.12693447 1388.22193686 -530.2659576 1383.00516823 -535.4296875 1377.765625 C-536.69619141 1376.51458984 -536.69619141 1376.51458984 -537.98828125 1375.23828125 C-540.19536182 1373.00295005 -542.25845829 1370.70973203 -544.3046875 1368.328125 C-546.72417619 1365.56364355 -549.09160021 1363.13939492 -551.9921875 1360.890625 C-555.94647918 1357.67832855 -558.27895525 1353.59968905 -560.8515625 1349.25390625 C-562.25925088 1347.03435799 -563.57690951 1345.5863004 -565.4296875 1343.765625 C-566.96585999 1341.74223362 -568.46073363 1339.71168503 -569.9296875 1337.640625 C-570.3625708 1337.0317041 -570.7954541 1336.4227832 -571.24145508 1335.79541016 C-585.806788 1315.1218662 -598.61021704 1293.52007266 -607.4296875 1269.765625 C-607.84863281 1268.65703125 -608.26757812 1267.5484375 -608.69921875 1266.40625 C-613.96805716 1251.6200495 -617.13694866 1236.01723211 -619.9934082 1220.60473633 C-620.26133522 1218.75904379 -620.26133522 1218.75904379 -621.4296875 1217.765625 C-621.66194519 1215.17071308 -621.83392998 1212.59672152 -621.96484375 1209.99609375 C-622.00782089 1209.20471512 -622.05079803 1208.41333649 -622.09507751 1207.59797668 C-622.18552197 1205.91252434 -622.27362948 1204.22694526 -622.35961914 1202.54125977 C-622.48969622 1200.00176226 -622.62799686 1197.46281886 -622.76757812 1194.92382812 C-623.43410936 1182.49913767 -623.74718731 1170.24291155 -622.6796875 1157.828125 C-622.59315918 1156.81814453 -622.50663086 1155.80816406 -622.41748047 1154.76757812 C-620.8459245 1137.48308605 -618.98847103 1120.05406194 -614.35546875 1103.29296875 C-613.37350839 1099.55157547 -612.70089712 1095.82863967 -612.0546875 1092.015625 C-606.51352041 1060.96834401 -592.7338323 1029.69840113 -575.49902344 1003.42285156 C-574.02719604 1001.14185513 -572.6663779 998.80112087 -571.3046875 996.453125 C-568.59883261 991.89468196 -565.5261957 987.65411391 -562.359375 983.40625 C-561.0198752 981.57325028 -559.73927353 979.69632531 -558.5078125 977.7890625 C-555.62118102 973.58933925 -552.16320829 970.05009658 -548.671875 966.3515625 C-546.74841984 964.13322223 -545.65189098 962.37868355 -544.4296875 959.765625 C-545.00074219 959.48066162 -545.57179688 959.19569824 -546.16015625 958.90209961 C-561.82405295 951.0343534 -576.72066613 942.2920439 -591.4296875 932.765625 C-592.41364502 932.13116455 -592.41364502 932.13116455 -593.41748047 931.48388672 C-600.60166222 926.83578525 -607.55602049 921.86879893 -614.49609375 916.8671875 C-616.45070001 915.46695026 -618.42910394 914.09934738 -620.4296875 912.765625 C-620.4296875 912.105625 -620.4296875 911.445625 -620.4296875 910.765625 C-621.02007813 910.49492188 -621.61046875 910.22421875 -622.21875 909.9453125 C-624.41229081 908.77490733 -625.9707494 907.55859585 -627.8046875 905.890625 C-630.39805592 903.56287159 -633.00840369 901.26567042 -635.67578125 899.0234375 C-645.99603131 890.33745401 -655.5530165 881.3723031 -663.98046875 870.78125 C-666.35182203 867.86149764 -668.79951202 865.03239196 -671.28320312 862.20874023 C-677.06091044 855.63948702 -682.4350554 848.95922123 -687.4296875 841.765625 C-688.33460938 840.52232422 -688.33460938 840.52232422 -689.2578125 839.25390625 C-692.83500587 834.30027109 -695.85847753 829.26413911 -698.70703125 823.86328125 C-700.76182856 820.16837361 -703.02542699 816.63708325 -705.3046875 813.078125 C-713.01147352 800.93672406 -718.99175389 788.06167147 -724.4296875 774.765625 C-724.7405127 774.00757568 -725.05133789 773.24952637 -725.37158203 772.46850586 C-727.70041298 766.72900323 -729.84073335 760.95226326 -731.8046875 755.078125 C-732.10141357 754.19108887 -732.39813965 753.30405273 -732.70385742 752.39013672 C-735.86123836 742.75075439 -738.37311792 732.9564814 -740.82104492 723.1171875 C-741.3263677 721.16481326 -741.90416439 719.2313676 -742.5 717.3046875 C-743.78172309 712.42552311 -744.36882247 707.51573819 -744.9921875 702.515625 C-745.24086016 700.5517486 -745.49204967 698.58818879 -745.74609375 696.625 C-745.85381104 695.76358398 -745.96152832 694.90216797 -746.07250977 694.01464844 C-746.39233465 691.60516059 -746.39233465 691.60516059 -747.4296875 688.765625 C-747.5786877 687.11794142 -747.67764539 685.46549034 -747.74609375 683.8125 C-747.80917725 682.3123938 -747.80917725 682.3123938 -747.87353516 680.78198242 C-747.91269043 679.70408447 -747.9518457 678.62618652 -747.9921875 677.515625 C-748.0547876 675.84173706 -748.0547876 675.84173706 -748.11865234 674.1340332 C-748.88076986 652.10261565 -749.51378773 629.72299176 -745.234375 608.0078125 C-744.67136613 605.14507798 -744.20321247 602.2897098 -743.8125 599.3984375 C-741.29055543 580.90084406 -735.90053029 563.10063931 -730.3046875 545.328125 C-729.99249268 544.32894043 -729.68029785 543.32975586 -729.35864258 542.30029297 C-727.46268062 536.41920378 -725.215164 530.83797271 -722.59155273 525.24389648 C-721.63002204 523.19294081 -720.72110723 521.13617444 -719.84765625 519.046875 C-718.26555072 515.38580435 -716.53593602 511.82646901 -714.7421875 508.265625 C-714.39623535 507.57855469 -714.0502832 506.89148438 -713.69384766 506.18359375 C-712.61068578 504.0417427 -711.52143117 501.90311328 -710.4296875 499.765625 C-710.08180176 499.08242188 -709.73391602 498.39921875 -709.37548828 497.6953125 C-705.9376717 490.97852234 -702.53078735 484.47939219 -697.78125 478.57421875 C-696.31856415 476.61692526 -695.23821625 474.62273507 -694.1171875 472.453125 C-691.54156691 467.63315334 -688.18870404 463.67035441 -684.671875 459.5078125 C-682.67092731 457.06066045 -680.91708462 454.58947386 -679.1796875 451.953125 C-676.02149405 447.33156059 -672.40462395 443.24712866 -668.6171875 439.140625 C-668.04129883 438.5118042 -667.46541016 437.8829834 -666.87207031 437.23510742 C-665.43505253 435.70301164 -663.93697529 434.2286428 -662.4296875 432.765625 C-661.7696875 432.765625 -661.1096875 432.765625 -660.4296875 432.765625 C-660.16414063 432.17394531 -659.89859375 431.58226562 -659.625 430.97265625 C-656.15149158 424.55915214 -647.84728293 416.81976722 -641.25390625 413.75390625 C-639.07562474 412.84261222 -639.07562474 412.84261222 -638.4296875 409.765625 C-636.47177495 408.37122326 -634.46306291 407.04748389 -632.4296875 405.765625 C-630.84685661 404.61861738 -629.26418362 403.47136111 -627.6875 402.31591797 C-620.45926776 397.03839241 -613.00736697 392.31792761 -605.26464844 387.8359375 C-603.48769869 386.79946229 -601.7272803 385.73923167 -599.96875 384.671875 C-585.75253593 376.2137156 -570.35074706 370.81974901 -554.72436523 365.546875 C-553.23709873 365.04051764 -551.75439187 364.52048081 -550.27758789 363.984375 C-543.92726759 361.7298064 -537.4863625 360.47621158 -530.8671875 359.265625 C-529.80177734 359.06582031 -528.73636719 358.86601563 -527.63867188 358.66015625 C-525.41815325 358.2443883 -523.19659132 357.83416125 -520.97412109 357.42895508 C-518.5246161 356.97053759 -516.0797347 356.48695704 -513.63916016 355.9831543 C-503.74159984 353.95777589 -494.01381795 353.0374444 -483.9296875 352.578125 C-483.13388275 352.53926178 -482.338078 352.50039856 -481.51815796 352.46035767 C-453.59784151 351.10684471 -426.20782776 351.69500547 -398.4296875 354.765625 C-397.39215332 354.87777344 -396.35461914 354.98992187 -395.28564453 355.10546875 C-381.01410438 356.70629236 -367.28353867 360.0376204 -353.4296875 363.765625 C-353.71972656 362.68474609 -353.71972656 362.68474609 -354.015625 361.58203125 C-363.65771571 321.82034036 -360.54497007 275.09729844 -350.4296875 235.765625 C-349.9474702 233.81781881 -349.46573152 231.86989409 -348.984375 229.921875 C-348.46799603 227.86932531 -347.94978209 225.81723634 -347.4296875 223.765625 C-347.19266113 222.82138672 -346.95563477 221.87714844 -346.71142578 220.90429688 C-345.07722139 214.62486927 -342.95020285 208.73873289 -340.4296875 202.765625 C-339.61442468 200.76699179 -338.7993292 198.76829032 -337.984375 196.76953125 C-330.59704726 178.91785602 -322.66864965 161.99304978 -311.6796875 146.0703125 C-309.7295177 143.20600061 -307.92532688 140.31935081 -306.1796875 137.328125 C-301.15102757 128.81162017 -294.71713104 121.37121534 -288.4296875 113.765625 C-287.93082031 113.15203125 -287.43195313 112.5384375 -286.91796875 111.90625 C-284.26285223 108.65645439 -281.40589046 105.72068168 -278.4296875 102.765625 C-276.71787249 101.03211609 -275.00697682 99.29769899 -273.296875 97.5625 C-271.80874695 96.05958454 -270.31963078 94.55765584 -268.83007812 93.05615234 C-267.822048 92.03811936 -266.81582686 91.01829163 -265.81152344 89.99658203 C-259.72334158 83.80619567 -253.54885545 78.01421453 -246.74194336 72.6081543 C-244.8078141 71.06693653 -242.95020625 69.48652638 -241.1171875 67.828125 C-231.98404635 59.94041219 -221.50592109 53.35856731 -211.4296875 46.765625 C-210.77033203 46.33072754 -210.11097656 45.89583008 -209.43164062 45.44775391 C-200.95152454 39.8568296 -192.5191138 34.32735955 -183.4296875 29.765625 C-182.76179199 29.42241211 -182.09389648 29.07919922 -181.40576172 28.72558594 C-157.1198359 16.31779054 -132.12727994 7.96494724 -105.50219727 2.46069336 C-103.30538355 1.96372644 -101.12693498 1.38261374 -98.96606445 0.74731445 C-87.03319774 -2.56521969 -74.11811845 -2.84420684 -61.8046875 -3.484375 C-60.96018036 -3.52895844 -60.11567322 -3.57354187 -59.24557495 -3.61947632 C-39.38126897 -4.62405473 -19.51867404 -4.226974 0 0 Z " fill="#FBA2C0" transform="translate(949.4296875,193.234375)"/>
<path d="M0 0 C2.98077175 -0.00221162 5.96118637 -0.02054626 8.94189453 -0.03930664 C22.11419799 -0.07764296 34.6668785 0.62099275 47.51611328 3.74780273 C50.59857263 4.39919037 53.70024393 4.67241574 56.83642578 4.93920898 C58.58642578 5.18530273 58.58642578 5.18530273 59.58642578 6.18530273 C60.78267578 6.30905273 61.97892578 6.43280273 63.21142578 6.56030273 C67.47191347 7.0294178 70.73368642 8.33919846 74.58642578 10.18530273 C74.58642578 10.84530273 74.58642578 11.50530273 74.58642578 12.18530273 C75.74142578 12.39155273 76.89642578 12.59780273 78.08642578 12.81030273 C88.14359578 15.05052544 97.98108168 19.1282391 107.08642578 23.89624023 C113.30624115 27.10333253 119.70687447 30.0434117 126.21142578 32.62280273 C131.66177949 35.14611464 137.82940282 38.2911615 142.01000977 42.6796875 C143.69546966 44.28944918 145.14188442 45.05138114 147.26220703 45.99389648 C151.87710758 48.2132278 155.74830995 51.10820761 159.77392578 54.24780273 C163.94642279 57.4703992 168.03834794 60.50415739 172.58642578 63.18530273 C174.27516457 64.82960103 175.93948093 66.49914491 177.58642578 68.18530273 C179.44995772 69.76483085 181.33093638 71.31786034 183.23095703 72.85327148 C183.67826172 73.2928418 184.12556641 73.73241211 184.58642578 74.18530273 C184.58642578 74.84530273 184.58642578 75.50530273 184.58642578 76.18530273 C185.14845703 76.4237793 185.71048828 76.66225586 186.28955078 76.90795898 C189.09163992 78.46626366 191.06535986 80.36286948 193.33642578 82.62280273 C194.13564453 83.40526367 194.93486328 84.18772461 195.75830078 84.99389648 C197.58642578 87.18530273 197.58642578 87.18530273 197.58642578 90.18530273 C198.48554687 90.57975586 198.48554687 90.57975586 199.40283203 90.98217773 C201.69807066 92.24681727 202.8820357 93.41591437 204.52392578 95.43530273 C205.03955078 96.06307617 205.55517578 96.69084961 206.08642578 97.33764648 C206.58142578 97.94737305 207.07642578 98.55709961 207.58642578 99.18530273 C208.79298828 100.57749023 208.79298828 100.57749023 210.02392578 101.99780273 C219.58642578 113.52905273 219.58642578 113.52905273 219.58642578 117.18530273 C220.57642578 117.51530273 221.56642578 117.84530273 222.58642578 118.18530273 C224.48876953 120.73217773 224.48876953 120.73217773 226.52392578 123.93530273 C228.51935016 127.05723838 230.43337058 130.00598677 232.84033203 132.82592773 C234.58642578 135.18530273 234.58642578 135.18530273 234.58642578 139.18530273 C235.24642578 139.18530273 235.90642578 139.18530273 236.58642578 139.18530273 C236.85455078 139.90717773 237.12267578 140.62905273 237.39892578 141.37280273 C238.4900208 144.14068434 238.4900208 144.14068434 239.89892578 146.37280273 C243.94726344 153.12003217 246.93307431 159.65497092 248.82861328 167.30249023 C249.93156392 171.49825093 251.37958775 175.56284243 252.81689453 179.65405273 C253.58642578 182.18530273 253.58642578 182.18530273 253.58642578 185.18530273 C254.24642578 185.18530273 254.90642578 185.18530273 255.58642578 185.18530273 C255.82425781 186.08055664 255.82425781 186.08055664 256.06689453 186.99389648 C257.46205253 192.18141766 258.92658478 197.33909156 260.48510742 202.47949219 C264.79417387 216.79814441 266.21033808 230.26251424 266.58642578 245.18530273 C266.62944824 246.84722656 266.62944824 246.84722656 266.67333984 248.54272461 C266.97040608 262.02727566 266.74569949 275.33144312 265.27392578 288.74780273 C265.09748535 290.35969482 265.09748535 290.35969482 264.91748047 292.00415039 C263.80983521 301.06219571 261.70239341 309.73954796 258.96142578 318.43530273 C257.64517858 322.69415493 256.9970843 326.7501907 256.58642578 331.18530273 C255.92642578 331.18530273 255.26642578 331.18530273 254.58642578 331.18530273 C254.45751953 331.90588867 254.32861328 332.62647461 254.19580078 333.36889648 C251.27812603 346.85379071 244.47758983 360.15683596 238.52392578 372.56030273 C238.22357422 373.18678711 237.92322266 373.81327148 237.61376953 374.45874023 C236.48889456 376.34921453 235.14233346 377.6419427 233.58642578 379.18530273 C232.39614594 381.78445811 232.39614594 381.78445811 231.58642578 384.18530273 C230.92642578 384.18530273 230.26642578 384.18530273 229.58642578 384.18530273 C229.47685547 384.92135742 229.36728516 385.65741211 229.25439453 386.41577148 C228.55103293 389.33204852 227.60350156 391.05055089 225.89892578 393.49780273 C225.35494141 394.27897461 224.81095703 395.06014648 224.25048828 395.86499023 C223.70134766 396.63069336 223.15220703 397.39639648 222.58642578 398.18530273 C222.11978516 398.84788086 221.65314453 399.51045898 221.17236328 400.19311523 C217.69995923 404.98464485 213.81002854 409.31170073 209.81298828 413.66967773 C207.75266565 415.99748085 205.87991183 418.38120502 204.02392578 420.87280273 C201.12230507 424.70538841 197.905335 427.73955255 194.18798828 430.77514648 C192.46577081 432.11347758 192.46577081 432.11347758 191.58642578 434.18530273 C190.92642578 434.57717773 190.26642578 434.96905273 189.58642578 435.37280273 C186.90369304 436.99362043 184.63956735 438.71709925 182.21142578 440.68530273 C179.5160861 442.82190699 177.11059665 444.57121021 173.89892578 445.81030273 C170.78760764 447.10179328 168.76351529 448.5648177 166.26220703 450.78295898 C162.16705048 454.20990817 157.66451679 457.49260573 152.58642578 459.18530273 C151.78205078 460.05155273 151.78205078 460.05155273 150.96142578 460.93530273 C145.11898288 466.47024864 137.88719525 468.94742836 130.28564453 471.19311523 C127.56371308 472.19365154 125.85978492 473.42483559 123.58642578 475.18530273 C119.06665813 477.15006756 114.56398224 478.66700175 109.58642578 478.18530273 C109.58642578 478.84530273 109.58642578 479.50530273 109.58642578 480.18530273 C98.3613031 484.05445265 87.33730588 486.51243439 75.58642578 488.18530273 C75.58642578 488.84530273 75.58642578 489.50530273 75.58642578 490.18530273 C59.63144606 496.57841307 39.33612721 495.47131078 22.33642578 495.43530273 C21.55861755 495.43443665 20.78080933 495.43357056 19.97943115 495.43267822 C12.43939865 495.41093983 5.0624976 495.22013209 -2.41357422 494.18530273 C-2.41357422 493.52530273 -2.41357422 492.86530273 -2.41357422 492.18530273 C-3.49123047 492.22268555 -4.56888672 492.26006836 -5.67919922 492.29858398 C-11.2715724 492.29489508 -16.66698994 491.32802018 -22.16357422 490.37280273 C-23.2310791 490.19120605 -24.29858398 490.00960938 -25.3984375 489.82250977 C-31.64828506 488.73645189 -37.80817161 487.50623195 -43.93310547 485.84155273 C-47.37623351 484.93061492 -50.85550308 484.27006482 -54.35498047 483.61499023 C-56.41357422 483.18530273 -56.41357422 483.18530273 -59.41357422 482.18530273 C-59.41357422 481.52530273 -59.41357422 480.86530273 -59.41357422 480.18530273 C-60.16123047 480.06413086 -60.90888672 479.94295898 -61.67919922 479.81811523 C-62.66404297 479.65053711 -63.64888672 479.48295898 -64.66357422 479.31030273 C-66.12537109 479.06666992 -66.12537109 479.06666992 -67.61669922 478.81811523 C-70.21036829 478.23127949 -72.07452238 477.39616325 -74.41357422 476.18530273 C-76.30076172 475.84499023 -76.30076172 475.84499023 -78.22607422 475.49780273 C-84.1340178 474.27916751 -89.3471416 471.53761566 -94.73779297 468.93530273 C-100.15449174 466.32430545 -105.70977592 464.08656883 -111.41357422 462.18530273 C-111.41357422 461.52530273 -111.41357422 460.86530273 -111.41357422 460.18530273 C-112.09419922 460.10280273 -112.77482422 460.02030273 -113.47607422 459.93530273 C-117.36773877 458.94168625 -120.04269543 457.38933886 -123.41357422 455.18530273 C-123.90857422 453.70030273 -123.90857422 453.70030273 -124.41357422 452.18530273 C-125.23857422 451.85530273 -126.06357422 451.52530273 -126.91357422 451.18530273 C-127.73857422 450.85530273 -128.56357422 450.52530273 -129.41357422 450.18530273 C-129.90857422 448.70030273 -129.90857422 448.70030273 -130.41357422 447.18530273 C-131.11482422 447.08217773 -131.81607422 446.97905273 -132.53857422 446.87280273 C-137.35479516 445.72109773 -140.63638995 444.35107914 -143.41357422 440.18530273 C-144.58919922 439.50467773 -144.58919922 439.50467773 -145.78857422 438.81030273 C-148.41357422 437.18530273 -148.41357422 437.18530273 -150.25732422 434.84545898 C-152.48130704 432.10174105 -154.75474752 430.1607468 -157.53857422 427.99780273 C-165.31237868 421.75802902 -172.22169016 414.77491847 -178.68310547 407.19311523 C-179.94618282 405.72760336 -181.23971264 404.28817984 -182.55029297 402.86499023 C-183.26830078 402.08381836 -183.98630859 401.30264648 -184.72607422 400.49780273 C-185.38220703 399.79268555 -186.03833984 399.08756836 -186.71435547 398.36108398 C-188.52219049 396.04622396 -189.36588587 393.91192262 -190.41357422 391.18530273 C-191.6564071 389.45569889 -191.6564071 389.45569889 -193.03857422 387.99780273 C-195.41357422 385.18530273 -195.41357422 385.18530273 -195.41357422 383.18530273 C-196.07357422 383.18530273 -196.73357422 383.18530273 -197.41357422 383.18530273 C-197.41357422 382.52530273 -197.41357422 381.86530273 -197.41357422 381.18530273 C-198.40357422 380.85530273 -199.39357422 380.52530273 -200.41357422 380.18530273 C-201.17004611 378.51233604 -201.9167886 376.83346169 -202.58740234 375.12426758 C-203.90867597 372.0233352 -205.79487948 369.2874542 -207.66357422 366.49780273 C-213.6480054 357.36148141 -219.07718363 348.22089145 -223.41357422 338.18530273 C-223.76057373 337.39164307 -224.10757324 336.5979834 -224.46508789 335.78027344 C-225.52077487 333.35710867 -226.56224424 330.9282361 -227.60107422 328.49780273 C-227.95621094 327.6824707 -228.31134766 326.86713867 -228.67724609 326.02709961 C-230.5027689 321.74214381 -231.90728734 317.86278898 -232.41357422 313.18530273 C-233.07357422 313.18530273 -233.73357422 313.18530273 -234.41357422 313.18530273 C-236.2489415 307.65611451 -237.60355956 302.46011516 -238.10498047 296.65795898 C-238.62294948 292.50765035 -239.69093849 288.48504939 -240.65576172 284.41967773 C-241.7632187 279.69300567 -242.6839547 274.98511378 -243.41357422 270.18530273 C-243.60048828 268.99420898 -243.78740234 267.80311523 -243.97998047 266.57592773 C-247.16995673 243.5445184 -247.1793731 218.38480081 -242.84130859 195.54125977 C-242.37253312 192.95924872 -241.98813574 190.37289221 -241.61669922 187.77514648 C-241.4881958 186.88972168 -241.35969238 186.00429688 -241.22729492 185.09204102 C-240.98333977 183.40984284 -240.74212264 181.72724442 -240.50415039 180.04418945 C-239.64013521 174.41186373 -239.64013521 174.41186373 -237.41357422 172.18530273 C-236.53445345 169.46089878 -235.72934884 166.75670019 -234.97607422 163.99780273 C-233.79471478 159.70093387 -232.62396527 155.49792269 -230.82763672 151.41186523 C-229.690352 148.8168454 -228.85212957 146.49281468 -228.22607422 143.74780273 C-227.95794922 142.57217773 -227.68982422 141.39655273 -227.41357422 140.18530273 C-226.75357422 140.18530273 -226.09357422 140.18530273 -225.41357422 140.18530273 C-225.17123047 139.36674805 -224.92888672 138.54819336 -224.67919922 137.70483398 C-223.1814276 133.53973451 -221.25312142 129.76648713 -219.16357422 125.87280273 C-218.75880859 125.11515625 -218.35404297 124.35750977 -217.93701172 123.5769043 C-215.04484003 118.22316292 -211.94494746 113.14297271 -208.41357422 108.18530273 C-207.2549165 106.50234739 -206.09632099 104.81934874 -204.93896484 103.13549805 C-199.97522484 95.92168911 -199.97522484 95.92168911 -197.83154297 93.11108398 C-196.32492899 91.14430929 -196.32492899 91.14430929 -194.98779297 88.67358398 C-193.30902257 86.02004368 -191.61879957 84.39488216 -189.22607422 82.37280273 C-183.59544573 77.4553319 -178.36011496 72.19076235 -173.1237793 66.85791016 C-169.37314594 63.06000575 -165.55398985 59.55243486 -161.41357422 56.18530273 C-160.67107422 55.42217773 -159.92857422 54.65905273 -159.16357422 53.87280273 C-151.87091786 46.74588857 -143.53679996 41.14245902 -135.03466797 35.58764648 C-131.9349065 33.55537396 -128.95429987 31.39258554 -125.97607422 29.18530273 C-122.48575686 26.71514381 -119.74302839 25.53119763 -115.57763672 24.75952148 C-112.78832847 24.01939818 -110.46887856 22.77494342 -107.91357422 21.43530273 C-97.42780408 16.01345699 -83.37927725 9.18530273 -71.41357422 9.18530273 C-71.41357422 8.52530273 -71.41357422 7.86530273 -71.41357422 7.18530273 C-47.96929732 0.33491828 -24.2753155 -0.00200988 0 0 Z " fill="#FDE28E" transform="translate(965.41357421875,728.814697265625)"/>
<path d="M0 0 C0.99 0.495 0.99 0.495 2 1 C1.00766026 2.19390875 0.00551846 3.37966913 -1 4.5625 C-1.556875 5.22378906 -2.11375 5.88507812 -2.6875 6.56640625 C-4.62511592 8.60548517 -6.57515997 10.40071335 -8.703125 12.23046875 C-13.2836619 16.18219005 -17.51216189 20.43688946 -21.75 24.75 C-23.22156022 26.24715257 -24.69543684 27.74203266 -26.171875 29.234375 C-26.8122168 29.88631836 -27.45255859 30.53826172 -28.11230469 31.20996094 C-30 33 -30 33 -32.14672852 34.55859375 C-34.74924777 36.5827373 -35.58497134 39.04626408 -37 42 C-38.39632107 43.94687052 -39.83613439 45.86310786 -41.3125 47.75 C-45.30420539 52.95978619 -48.77397891 58.28758217 -52 64 C-52.742101 65.29952857 -53.48429589 66.59900352 -54.2265625 67.8984375 C-55.02688077 69.30681517 -55.82635846 70.71567084 -56.625 72.125 C-56.99753906 72.78209961 -57.37007812 73.43919922 -57.75390625 74.11621094 C-60.31585954 78.677126 -62.6898003 83.30642685 -65 88 C-65.66 88 -66.32 88 -67 88 C-67.309375 89.918125 -67.309375 89.918125 -67.625 91.875 C-69.12349624 99.45435056 -71.78906443 106.68982877 -74.3046875 113.97851562 C-75.22220964 116.64603083 -76.11307793 119.32217758 -77 122 C-77.66 122 -78.32 122 -79 122 C-78.938125 123.134375 -78.87625 124.26875 -78.8125 125.4375 C-78.80407798 130.793904 -79.75202343 135.9396624 -80.75708008 141.17944336 C-81.19030833 143.44990531 -81.59849535 145.72370639 -82 148 C-82.26683594 149.46336792 -82.26683594 149.46336792 -82.5390625 150.95629883 C-84.11555951 160.5412599 -84.30693007 169.94439101 -84.26074219 179.6394043 C-84.25005727 182.2982485 -84.26067947 184.95641101 -84.2734375 187.61523438 C-84.28647116 202.31507362 -82.98013861 216.53413472 -79.9375 230.9375 C-79.67743164 232.22817383 -79.67743164 232.22817383 -79.41210938 233.54492188 C-78.58176549 237.89749964 -78.58176549 237.89749964 -77 242 C-76.63297601 243.8896001 -76.30523418 245.78694028 -76 247.6875 C-75.82726562 248.75871094 -75.65453125 249.82992188 -75.4765625 250.93359375 C-74.95557275 254.28586385 -74.45836784 257.63863584 -74 261 C-73.34 261 -72.68 261 -72 261 C-71.57589844 262.11375 -71.15179687 263.2275 -70.71484375 264.375 C-62.78063312 285.1978402 -62.78063312 285.1978402 -52.1875 304.7421875 C-51.795625 305.48726562 -51.40375 306.23234375 -51 307 C-51.33 307.66 -51.66 308.32 -52 309 C-52.66 307.35 -53.32 305.7 -54 304 C-54.66 304 -55.32 304 -56 304 C-56.81498562 302.3970947 -57.62689927 300.79262722 -58.4375 299.1875 C-59.11619141 297.84751953 -59.11619141 297.84751953 -59.80859375 296.48046875 C-61 294 -61 294 -62 291 C-62.99 290.34 -63.98 289.68 -65 289 C-65.6875 286.375 -65.6875 286.375 -66 284 C-66.66 284 -67.32 284 -68 284 C-68.48919922 282.49759766 -68.48919922 282.49759766 -68.98828125 280.96484375 C-69.42952315 279.6223418 -69.87093871 278.27989693 -70.3125 276.9375 C-70.52583984 276.28072266 -70.73917969 275.62394531 -70.95898438 274.94726562 C-71.99409914 271.81102237 -73.08090588 268.82064766 -74.44140625 265.8046875 C-76.78501285 260.47775957 -78.1092484 254.79128505 -79.625 249.1875 C-80.24042743 246.93050892 -80.85752871 244.67397337 -81.4765625 242.41796875 C-81.74549316 241.42563232 -82.01442383 240.4332959 -82.29150391 239.41088867 C-82.91778098 237.01703361 -82.91778098 237.01703361 -84 235 C-84.30869938 232.70190464 -84.50883648 230.40279871 -84.71875 228.09375 C-84.892155 225.94556067 -84.892155 225.94556067 -86 224 C-92.27384875 193.76595205 -90.63762401 156.83765114 -83 127 C-82.34 127 -81.68 127 -81 127 C-81.061875 126.05125 -81.12375 125.1025 -81.1875 124.125 C-81.1875 118.37181393 -79.56949222 112.47387663 -76.48828125 107.6171875 C-74.19376051 103.58220351 -73.69555931 99.2883268 -72.84375 94.765625 C-72.5653125 93.85296875 -72.286875 92.9403125 -72 92 C-70.515 91.505 -70.515 91.505 -69 91 C-68.92265625 90.34902344 -68.8453125 89.69804688 -68.765625 89.02734375 C-67.70979662 84.85251214 -65.77936851 81.34211676 -63.75 77.5625 C-63.17572266 76.45551758 -63.17572266 76.45551758 -62.58984375 75.32617188 C-60.73507301 71.83684565 -58.85709947 68.67061709 -56.28125 65.6640625 C-54.11882805 63.13876837 -53.24632315 61.11571108 -52.08203125 58.05859375 C-50.02880843 54.15228174 -46.94666609 50.95857624 -44.05859375 47.6484375 C-42.06672783 45.08584719 -41.16528287 42.99042471 -40 40 C-38.72793374 38.18465543 -37.39097056 36.41342855 -36 34.6875 C-35.29875 33.80449219 -34.5975 32.92148437 -33.875 32.01171875 C-33.25625 31.34785156 -32.6375 30.68398438 -32 30 C-31.34 30 -30.68 30 -30 30 C-29.7532251 29.42870361 -29.5064502 28.85740723 -29.25219727 28.26879883 C-27.7955546 25.62957475 -26.09295848 23.83392572 -23.96484375 21.69921875 C-23.15466797 20.88646484 -22.34449219 20.07371094 -21.50976562 19.23632812 C-20.23649414 17.9746582 -20.23649414 17.9746582 -18.9375 16.6875 C-18.11572266 15.85798828 -17.29394531 15.02847656 -16.44726562 14.17382812 C-11.26103708 9.0039213 -5.9001976 4.33819745 0 0 Z " fill="#F9C6AC" transform="translate(805,781)"/>
<path d="M0 0 C11.52164009 3.07517084 11.52164009 3.07517084 17 5 C17 5.66 17 6.32 17 7 C17.67160156 7.08636719 18.34320312 7.17273437 19.03515625 7.26171875 C26.45525965 8.30532039 33.69430126 9.78727445 41 11.4375 C51.93280162 13.89534572 62.88827072 15.58953282 74 17 C74 17.66 74 18.32 74 19 C100.23396954 19.3474344 126.0659279 19.58970692 152 15 C152 14.34 152 13.68 152 13 C158.16863838 11.43435574 164.33587982 9.89297266 170.5546875 8.5390625 C175.7127041 7.40199175 180.85465721 6.19289246 186 5 C186 4.34 186 3.68 186 3 C187.57914015 2.46658816 189.16354387 1.94874237 190.75 1.4375 C192.07257813 1.00244141 192.07257813 1.00244141 193.421875 0.55859375 C196.07834316 -0.01697435 197.47031106 0.10751629 200 1 C198.75336669 1.50833591 197.50250613 2.00631145 196.25 2.5 C195.55390625 2.7784375 194.8578125 3.056875 194.140625 3.34375 C192 4 192 4 188 4 C188 4.99 188 5.98 188 7 C186.96101563 7.25394531 185.92203125 7.50789063 184.8515625 7.76953125 C172.13653998 10.41635382 172.13653998 10.41635382 160.12109375 14.99609375 C155.53387991 17.16720601 150.3445059 17.74067677 145.37207031 18.59130859 C143.79879088 18.86237382 142.22769252 19.14643878 140.65917969 19.44384766 C109.81084302 25.12255024 73.5209439 24.17957662 43 17 C41.74533936 16.71406982 41.74533936 16.71406982 40.46533203 16.42236328 C35.94747252 15.38073338 31.46528854 14.25107935 27 13 C27 12.34 27 11.68 27 11 C26.27425781 10.87496094 25.54851563 10.74992187 24.80078125 10.62109375 C22.07271277 10.01612459 19.75135556 9.16011183 17.1875 8.0625 C14.01988402 6.75485525 10.96220758 5.6547214 7.625 4.875 C4.72806051 4.17573874 2.54567228 3.4849755 0 2 C0 1.34 0 0.68 0 0 Z " fill="#F5ABA7" transform="translate(889,1204)"/>
<path d="M0 0 C0.66 0 1.32 0 2 0 C2.15855469 0.59683594 2.31710937 1.19367187 2.48046875 1.80859375 C3.87562675 6.99611493 5.340159 12.15378882 6.89868164 17.29418945 C11.20774809 31.61284168 12.6239123 45.0772115 13 60 C13.02868164 61.10794922 13.05736328 62.21589844 13.08691406 63.35742188 C13.3839803 76.84197293 13.15927371 90.14614039 11.6875 103.5625 C11.56987305 104.63709473 11.45224609 105.71168945 11.33105469 106.81884766 C10.22340943 115.87689298 8.11596763 124.55424523 5.375 133.25 C4.0587528 137.50885219 3.41065852 141.56488797 3 146 C2.34 146 1.68 146 1 146 C0.87496094 146.70640625 0.74992187 147.4128125 0.62109375 148.140625 C-0.02564237 151.11805164 -0.91058143 153.88237832 -1.9375 156.75 C-2.27652344 157.71421875 -2.61554688 158.6784375 -2.96484375 159.671875 C-4 162 -4 162 -6 163 C-5.54548816 161.26982492 -5.08621143 159.54090123 -4.625 157.8125 C-4.36976562 156.84957031 -4.11453125 155.88664062 -3.8515625 154.89453125 C-3 152 -3 152 -1.89453125 149.328125 C-0.80841225 146.93903455 -0.80841225 146.93903455 -1.0625 143.9375 C-1 141 -1 141 0.39453125 139.18359375 C2.32792589 136.55398888 2.962171 134.28435508 3.75 131.125 C4.01296875 130.11695313 4.2759375 129.10890625 4.546875 128.0703125 C5.17642461 124.98152377 5.17642461 124.98152377 4.390625 121.8671875 C4 119 4 119 5.36328125 117.03125 C5.90339844 116.3609375 6.44351562 115.690625 7 115 C8.8322154 107.39679598 9.22762241 99.60950229 8.97265625 91.81640625 C9 89 9 89 9.48828125 85.8359375 C10.1478688 80.89154842 10.1451825 76.04421346 10.125 71.0625 C10.12886719 70.11181641 10.13273437 69.16113281 10.13671875 68.18164062 C10.12915518 62.69427392 9.8075064 57.42823747 9 52 C8.01 52.495 8.01 52.495 7 53 C7.33 52.01 7.66 51.02 8 50 C8.08178114 48.29983156 8.10749501 46.59663703 8.09765625 44.89453125 C8.09443359 43.91162109 8.09121094 42.92871094 8.08789062 41.91601562 C8.07951172 40.89185547 8.07113281 39.86769531 8.0625 38.8125 C8.05798828 37.77673828 8.05347656 36.74097656 8.04882812 35.67382812 C8.0370401 33.11582734 8.02058515 30.55794267 8 28 C7.01 27.67 6.02 27.34 5 27 C4.67 24.36 4.34 21.72 4 19 C3.34 19 2.68 19 2 19 C2 15.04 2 11.08 2 7 C1.34 7 0.68 7 0 7 C0 4.69 0 2.38 0 0 Z " fill="#FACA86" transform="translate(1219,914)"/>
<path d="M0 0 C2.98077175 -0.00221162 5.96118637 -0.02054626 8.94189453 -0.03930664 C22.11419799 -0.07764296 34.6668785 0.62099275 47.51611328 3.74780273 C50.59857263 4.39919037 53.70024393 4.67241574 56.83642578 4.93920898 C58.58642578 5.18530273 58.58642578 5.18530273 59.58642578 6.18530273 C60.78267578 6.30905273 61.97892578 6.43280273 63.21142578 6.56030273 C67.47191347 7.0294178 70.73368642 8.33919846 74.58642578 10.18530273 C74.58642578 10.51530273 74.58642578 10.84530273 74.58642578 11.18530273 C64.81416766 11.88332117 55.56018725 9.02734192 46.29907227 6.17163086 C42.59401314 5.18731845 39.13044604 4.69056669 35.31689453 4.33374023 C34.64295654 4.26980072 33.96901855 4.20586121 33.2746582 4.13998413 C31.10843004 3.93811463 28.94143338 3.74790457 26.77392578 3.56030273 C25.66170151 3.46174988 25.66170151 3.46174988 24.52700806 3.36120605 C14.22639903 2.45619046 3.99031906 1.70455798 -6.35449219 2.10717773 C-8.55247812 2.19057298 -10.7496337 2.23454224 -12.94873047 2.27905273 C-33.05621884 2.83228117 -52.86309739 5.926396 -72.28857422 11.06030273 C-73.49304199 11.37555908 -74.69750977 11.69081543 -75.93847656 12.015625 C-83.48127755 14.09774692 -90.40065888 16.78478994 -97.45703125 20.11547852 C-100.43449606 21.1928733 -101.54631445 21.37992148 -104.41357422 20.18530273 C-80.19016996 9.18530273 -80.19016996 9.18530273 -71.41357422 9.18530273 C-71.41357422 8.52530273 -71.41357422 7.86530273 -71.41357422 7.18530273 C-47.96929732 0.33491828 -24.2753155 -0.00200988 0 0 Z " fill="#FACC9F" transform="translate(965.41357421875,728.814697265625)"/>
<path d="M0 0 C0.33 0 0.66 0 1 0 C2.40093827 12.57091928 3.37432123 24.95385904 3.05761719 37.60644531 C3.01914828 39.20453481 2.99118398 40.8029111 2.97363281 42.40136719 C2.78552297 58.57232696 0.01365902 74.16127084 -3 90 C-3.66 90 -4.32 90 -5 90 C-5.02578125 90.64324219 -5.0515625 91.28648438 -5.078125 91.94921875 C-6.00826151 106.76798447 -12.00494651 120.50615554 -18.7890625 133.55078125 C-19.71762522 135.42887423 -20.56332392 137.34812563 -21.37109375 139.28125 C-23.11893584 143.40680221 -25.24281627 147.28543293 -27.4375 151.1875 C-27.81970703 151.88552734 -28.20191406 152.58355469 -28.59570312 153.30273438 C-30.69936148 157.05646092 -32.73139666 160.11856608 -36 163 C-36 161.68 -36 160.36 -36 159 C-35.34 158.67 -34.68 158.34 -34 158 C-32.94647157 155.69034152 -31.94280904 153.3570226 -31 151 C-30.34 151 -29.68 151 -29 151 C-28.5978125 149.6696875 -28.5978125 149.6696875 -28.1875 148.3125 C-27 145 -27 145 -25.546875 142.65625 C-23.92266069 139.86719512 -23.0035864 137.26925505 -22.0625 134.1875 C-20.93587222 130.67532324 -19.804293 127.37681516 -18.0625 124.125 C-15.00331108 118.39663828 -13.09973556 112.12709721 -11 106 C-10.34 106 -9.68 106 -9 106 C-9.061875 104.88625 -9.12375 103.7725 -9.1875 102.625 C-9.1875 98.37263206 -8.21123057 94.84317427 -6.890625 90.82592773 C2.33932797 61.53955011 0.36440804 30.29985342 0 0 Z " fill="#F4A8A4" transform="translate(1231,954)"/>
<path d="M0 0 C-2.69902016 2.69902016 -5.84807161 3.50974358 -9.375 4.75 C-15.58685296 6.99311093 -21.43124611 9.55939558 -27.25390625 12.703125 C-30 14 -30 14 -33.41015625 14.8984375 C-37.41154496 16.12628474 -40.4860466 18.00185333 -43.875 20.375 C-44.50559326 20.80619141 -45.13618652 21.23738281 -45.78588867 21.68164062 C-47.86535223 23.10976409 -49.9332678 24.55352152 -52 26 C-52.76425293 26.53141602 -53.52850586 27.06283203 -54.31591797 27.61035156 C-58.09113665 30.23719995 -61.85943634 32.87393458 -65.61328125 35.53125 C-66.21954346 35.95986328 -66.82580566 36.38847656 -67.45043945 36.83007812 C-69.14739724 38.05522463 -69.14739724 38.05522463 -71 40 C-72.04671875 40.4021875 -73.0934375 40.804375 -74.171875 41.21875 C-78.69589524 43.09011308 -81.78474451 46.11397637 -85.25 49.5 C-85.89533691 50.11713867 -86.54067383 50.73427734 -87.20556641 51.37011719 C-89.14832514 53.23551155 -91.07611018 55.11516885 -93 57 C-93.57524414 57.56009766 -94.15048828 58.12019531 -94.74316406 58.69726562 C-100.5353762 63.85328667 -100.5353762 63.85328667 -105 70 C-105.66 70 -106.32 70 -107 70 C-107.28875 70.639375 -107.5775 71.27875 -107.875 71.9375 C-109 74 -109 74 -111 75 C-107.27459961 66.83568077 -99.71069714 60.55224008 -93.4375 54.3125 C-92.34405273 53.21325195 -92.34405273 53.21325195 -91.22851562 52.09179688 C-80.11671551 41 -80.11671551 41 -77 41 C-77 40.34 -77 39.68 -77 39 C-76.360625 38.71125 -75.72125 38.4225 -75.0625 38.125 C-72.84793921 37.17176549 -72.84793921 37.17176549 -72 35 C-70.34151823 33.98648336 -68.67334039 32.98879205 -67 32 C-66.21625 31.360625 -65.4325 30.72125 -64.625 30.0625 C-62.15425542 28.12120069 -59.6219708 26.63277826 -56.890625 25.0949707 C-54.50685336 23.71439015 -52.21411362 22.21792021 -49.9152832 20.70141602 C-40.2208161 14.31104029 -31.71288313 9.49194519 -20 8 C-19.67 7.01 -19.34 6.02 -19 5 C-16.015625 3.61328125 -16.015625 3.61328125 -12.25 2.3125 C-11.01765625 1.87550781 -9.7853125 1.43851563 -8.515625 0.98828125 C-5.43533649 0.12237792 -3.16076452 -0.22318375 0 0 Z " fill="#F3A6AF" transform="translate(880,741)"/>
<path d="M0 0 C7.33647432 0.32935693 13.24828583 1.90083147 19.9375 4.875 C20.77345703 5.22691406 21.60941406 5.57882812 22.47070312 5.94140625 C26.33137628 7.6097132 29.04599056 8.99349927 32 12 C34.26135255 13.06678056 36.55824512 14.05958364 38.875 15 C47.37873258 18.46648971 47.37873258 18.46648971 51 21 C51 21.66 51 22.32 51 23 C51.515625 23.0825 52.03125 23.165 52.5625 23.25 C56.04455732 24.32140225 58.87200885 26.13523605 62 28 C62 28.66 62 29.32 62 30 C62.68449219 30.2371875 63.36898438 30.474375 64.07421875 30.71875 C67.60534028 32.26508894 70.66554983 34.30380066 73.8125 36.5 C74.40998047 36.90347656 75.00746094 37.30695312 75.62304688 37.72265625 C77.12143611 38.76039782 78.56615614 39.87475797 80 41 C80 41.66 80 42.32 80 43 C80.55558594 43.24878906 81.11117188 43.49757813 81.68359375 43.75390625 C84.41074982 45.22095985 86.65663723 46.98886002 89.0625 48.9375 C89.91972656 49.62714844 90.77695313 50.31679688 91.66015625 51.02734375 C95.47022624 54.23950626 95.47022624 54.23950626 97 56 C97 56.66 97 57.32 97 58 C94.06559801 56.65263662 91.74926573 55.11433035 89.3125 53 C88.71050781 52.484375 88.10851563 51.96875 87.48828125 51.4375 C86 50 86 50 85 48 C83.34151823 46.98648336 81.67261997 45.9900102 80 45 C77.54980408 43.25333986 75.15509791 41.43307272 72.75 39.625 C68.04161422 36.12215669 63.40931168 32.94600774 58.1875 30.24609375 C54.42900959 28.10509654 51.0318004 25.46249328 47.578125 22.8671875 C43.64328604 20.01741019 39.78953555 17.79078723 35.25 16.0625 C29.11314808 13.66785303 23.09455003 11.10704594 17.25 8.0625 C11.70356091 5.2329142 5.8282303 3.16781737 0 1 C0 0.67 0 0.34 0 0 Z " fill="#F4ABA4" transform="translate(1052,744)"/>
<path d="M0 0 C0.33 0 0.66 0 1 0 C0.27598754 6.76673182 -0.57726844 13.50766443 -1.5 20.25 C-1.63019531 21.21679688 -1.76039063 22.18359375 -1.89453125 23.1796875 C-2.02214844 24.11554687 -2.14976562 25.05140625 -2.28125 26.015625 C-2.39533203 26.85383789 -2.50941406 27.69205078 -2.62695312 28.55566406 C-3 31 -3 31 -3.53442383 33.2578125 C-4.19181401 37.12976139 -4.16263277 40.93856417 -4.16796875 44.859375 C-4.17129715 45.72201965 -4.17462555 46.58466431 -4.17805481 47.47344971 C-4.18311098 49.30244415 -4.18546354 51.13144779 -4.18530273 52.96044922 C-4.18745987 55.69905848 -4.20554706 58.43724477 -4.22460938 61.17578125 C-4.27342011 76.04602726 -3.01587681 90.36495577 0.0625 104.9375 C0.23587891 105.79794922 0.40925781 106.65839844 0.58789062 107.54492188 C1.41823451 111.89749964 1.41823451 111.89749964 3 116 C3.039992 117.99960012 3.04346799 120.00047242 3 122 C0.60336232 117.48573236 -0.63343776 112.77974071 -2 107.875 C-2.26039063 106.99457031 -2.52078125 106.11414063 -2.7890625 105.20703125 C-6.78510555 90.85760393 -7.32154373 76.0964865 -7.20581055 61.28564453 C-7.1874522 58.86870756 -7.18530288 56.45215618 -7.18554688 54.03515625 C-7.15750475 41.17979828 -7.0972123 28.15347373 -4.625 15.5 C-4.49633545 14.84128906 -4.3676709 14.18257812 -4.23510742 13.50390625 C-3.26709442 8.76644709 -1.93513 4.42315429 0 0 Z " fill="#FBD2AC" transform="translate(725,907)"/>
<path d="M0 0 C1.14356445 2.81237071 1.07034549 3.82933788 -0.109375 6.69140625 C-0.65078125 7.63886719 -1.1921875 8.58632812 -1.75 9.5625 C-2.28109375 10.51253906 -2.8121875 11.46257812 -3.359375 12.44140625 C-4.77410485 14.64771114 -6.13866138 16.19699393 -8 18 C-9.19027984 20.59915538 -9.19027984 20.59915538 -10 23 C-10.66 23 -11.32 23 -12 23 C-12.10957031 23.73605469 -12.21914062 24.47210937 -12.33203125 25.23046875 C-13.03539285 28.14674578 -13.98292422 29.86524816 -15.6875 32.3125 C-16.50347656 33.48425781 -16.50347656 33.48425781 -17.3359375 34.6796875 C-17.88507813 35.44539063 -18.43421875 36.21109375 -19 37 C-19.46664063 37.66257812 -19.93328125 38.32515625 -20.4140625 39.0078125 C-23.88646656 43.79934212 -27.77639724 48.12639799 -31.7734375 52.484375 C-33.83376013 54.81217811 -35.70651395 57.19590229 -37.5625 59.6875 C-40.46412071 63.52008567 -43.68109079 66.55424981 -47.3984375 69.58984375 C-49.12065497 70.92817485 -49.12065497 70.92817485 -50 73 C-50.99 73.5878125 -50.99 73.5878125 -52 74.1875 C-56.27541336 76.77056224 -60.09467282 79.8944566 -64 83 C-64.66 82.67 -65.32 82.34 -66 82 C-65.154375 81.28714844 -64.30875 80.57429688 -63.4375 79.83984375 C-60.49984974 77.36124198 -57.56712941 74.876891 -54.63720703 72.38916016 C-53.25868713 71.21949445 -51.87767607 70.05276561 -50.49609375 68.88671875 C-45.72335355 64.80226746 -41.59464834 60.83795877 -39 55 C-38.34 55 -37.68 55 -37 55 C-36.75636719 54.43539063 -36.51273438 53.87078125 -36.26171875 53.2890625 C-34.76470019 50.57310932 -32.94366063 48.62720762 -30.8125 46.375 C-19.31059305 33.77418474 -10.80607606 18.42855023 -2.49609375 3.59765625 C-1 1 -1 1 0 0 Z " fill="#FBCB88" transform="translate(1207,1090)"/>
<path d="M0 0 C4.17443363 3.50074982 8.3145494 6.97950843 12 11 C12 11.66 12 12.32 12 13 C12.5671875 13.23589844 13.134375 13.47179688 13.71875 13.71484375 C16.51774407 15.29167431 18.30122137 17.22080076 20.5 19.5625 C25.22545852 24.42196406 30.21120335 28.29757415 35.7265625 32.1875 C36.47679687 32.785625 37.22703125 33.38375 38 34 C38 34.66 38 35.32 38 36 C38.66 36 39.32 36 40 36 C40.33 36.66 40.66 37.32 41 38 C42.99482184 39.01028997 44.99571848 40.00860926 47 41 C48.8395365 42.2743304 50.6525474 43.58777532 52.4375 44.9375 C55.56895273 47.26689127 58.62729082 49.45834944 62.0625 51.3125 C65 53 65 53 67 56 C69.05003955 57.19232613 69.05003955 57.19232613 71 58 C69.296875 58.67578125 69.296875 58.67578125 67 59 C64.640625 57.85546875 64.640625 57.85546875 62.25 56.1875 C61.45078125 55.64480469 60.6515625 55.10210938 59.828125 54.54296875 C59.22484375 54.03378906 58.6215625 53.52460937 58 53 C58 52.34 58 51.68 58 51 C57.195625 50.731875 56.39125 50.46375 55.5625 50.1875 C54.716875 49.795625 53.87125 49.40375 53 49 C52.67 48.01 52.34 47.02 52 46 C51.29875 45.896875 50.5975 45.79375 49.875 45.6875 C45.05877906 44.53579499 41.77718427 43.1657764 39 39 C38.21625 38.54625 37.4325 38.0925 36.625 37.625 C34 36 34 36 32.15625 33.66015625 C29.93226718 30.91643832 27.6588267 28.97544407 24.875 26.8125 C15.92829432 19.63127758 4.88276271 10.65756862 0 0 Z " fill="#F9C1A9" transform="translate(783,1130)"/>
<path d="M0 0 C0.66 0 1.32 0 2 0 C2.15855469 0.59683594 2.31710937 1.19367187 2.48046875 1.80859375 C3.87562675 6.99611493 5.340159 12.15378882 6.89868164 17.29418945 C13.9801189 40.82518821 13.1661241 64.62064888 13 89 C12.67 89 12.34 89 12 89 C11.98018066 88.23445801 11.96036133 87.46891602 11.93994141 86.68017578 C11.84380795 83.16147896 11.73449084 79.64330552 11.625 76.125 C11.5940625 74.92101562 11.563125 73.71703125 11.53125 72.4765625 C11.30224491 65.45373972 10.67853161 58.83049936 9 52 C8.01 52.495 8.01 52.495 7 53 C7.33 52.01 7.66 51.02 8 50 C8.08178114 48.29983156 8.10749501 46.59663703 8.09765625 44.89453125 C8.09443359 43.91162109 8.09121094 42.92871094 8.08789062 41.91601562 C8.07951172 40.89185547 8.07113281 39.86769531 8.0625 38.8125 C8.05798828 37.77673828 8.05347656 36.74097656 8.04882812 35.67382812 C8.0370401 33.11582734 8.02058515 30.55794267 8 28 C7.01 27.67 6.02 27.34 5 27 C4.67 24.36 4.34 21.72 4 19 C3.34 19 2.68 19 2 19 C2 15.04 2 11.08 2 7 C1.34 7 0.68 7 0 7 C0 4.69 0 2.38 0 0 Z " fill="#FAC290" transform="translate(1219,914)"/>
<path d="M0 0 C0.33 0 0.66 0 1 0 C1.47321095 8.2023232 -0.15885451 15.94947993 -3.5625 23.4375 C-9.49641988 38.14330143 -8.18688763 56.7536584 -8.18530273 72.45361328 C-8.18749219 74.86638994 -8.20575636 77.27870947 -8.22460938 79.69140625 C-8.27550712 93.88917334 -6.99670812 107.76503978 -4.26953125 121.71484375 C-4 124 -4 124 -5 127 C-6.43445114 124.13109771 -6.43073118 121.26195706 -6.71875 118.09375 C-6.892155 115.94556067 -6.892155 115.94556067 -8 114 C-14.27384875 83.76595205 -12.63762401 46.83765114 -5 17 C-4.34 17 -3.68 17 -3 17 C-3.061875 16.05125 -3.12375 15.1025 -3.1875 14.125 C-3.21810541 9.15672169 -1.57575543 4.6616098 0 0 Z " fill="#F8B2B5" transform="translate(727,891)"/>
<path d="M0 0 C11.52164009 3.07517084 11.52164009 3.07517084 17 5 C17 5.66 17 6.32 17 7 C17.67160156 7.08636719 18.34320312 7.17273437 19.03515625 7.26171875 C26.45525965 8.30532039 33.69430126 9.78727445 41 11.4375 C51.93280162 13.89534572 62.88827072 15.58953282 74 17 C74 17.33 74 17.66 74 18 C39.00804829 17.00804829 39.00804829 17.00804829 35 13 C33.40012764 12.72384942 31.794667 12.47992375 30.1875 12.25 C24.6476526 11.30031187 19.92224066 9.4331019 14.80078125 7.16796875 C12.35749702 6.14908174 10.07143964 5.408845 7.5 4.8125 C4.64120549 4.14885127 2.50934229 3.463783 0 2 C0 1.34 0 0.68 0 0 Z " fill="#F9C79B" transform="translate(889,1204)"/>
<path d="M0 0 C2.67815176 2.47214009 4.99964648 5.14173108 7.25 8 C8.03117187 8.99 8.03117187 8.99 8.828125 10 C10 12 10 12 10 16 C10.66 16 11.32 16 12 16 C12.268125 16.721875 12.53625 17.44375 12.8125 18.1875 C13.90359501 20.95538161 13.90359501 20.95538161 15.3125 23.1875 C19.79061337 30.65102228 23.58590284 38.32783272 25 47 C24.67 47.99 24.34 48.98 24 50 C21.81668822 45.33888322 19.95237752 41.07934676 19 36 C18.34 35.67 17.68 35.34 17 35 C14 28.76923077 14 28.76923077 14 25 C13.34 25 12.68 25 12 25 C11.73445313 24.43410156 11.46890625 23.86820313 11.1953125 23.28515625 C10.66550781 22.18494141 10.66550781 22.18494141 10.125 21.0625 C9.77695313 20.33160156 9.42890625 19.60070312 9.0703125 18.84765625 C8.1315023 16.83667541 8.1315023 16.83667541 6 16 C5.66666667 13.66666667 5.33333333 11.33333333 5 9 C4.34 8.67 3.68 8.34 3 8 C3 7.01 3 6.02 3 5 C2.34 5 1.68 5 1 5 C0.67 3.35 0.34 1.7 0 0 Z " fill="#F9BE98" transform="translate(1190,852)"/>
<path d="M0 0 C0.495 1.485 0.495 1.485 1 3 C-0.66796875 5.35546875 -0.66796875 5.35546875 -3 8 C-3.69738281 8.86238281 -4.39476562 9.72476562 -5.11328125 10.61328125 C-9.16639476 15.58788415 -13.26150349 20.50367288 -17.5234375 25.30078125 C-18.71734308 26.67472022 -19.83972384 28.1106025 -20.9375 29.5625 C-23.45868823 32.54208609 -26.30424408 34.94844913 -29.29296875 37.44921875 C-31.10394589 38.90679775 -31.10394589 38.90679775 -32 41 C-32.99 41.5878125 -32.99 41.5878125 -34 42.1875 C-38.27541336 44.77056224 -42.09467282 47.8944566 -46 51 C-46.66 50.67 -47.32 50.34 -48 50 C-46.7315625 48.93072266 -46.7315625 48.93072266 -45.4375 47.83984375 C-42.49984974 45.36124198 -39.56712941 42.876891 -36.63720703 40.38916016 C-35.25868713 39.21949445 -33.87767607 38.05276561 -32.49609375 36.88671875 C-28.90275142 33.81158139 -25.88100248 30.7751067 -23 27 C-21.33769822 25.32897985 -19.67020147 23.66312435 -18 22 C-15.95711572 19.87444779 -13.94496647 17.72147337 -11.9375 15.5625 C-11.42123047 15.01529297 -10.90496094 14.46808594 -10.37304688 13.90429688 C-7.18521133 10.47280511 -4.51021364 6.97497082 -2 3 C-1.34 2.01 -0.68 1.02 0 0 Z " fill="#F9B79E" transform="translate(1189,1122)"/>
<path d="M0 0 C2.90208584 2.63743021 4.94866806 5.68906357 7.125 8.9375 C7.82882812 9.97777344 8.53265625 11.01804687 9.2578125 12.08984375 C10.74618767 14.57603097 11.37497228 16.25115359 12 19 C12.66 19.33 13.32 19.66 14 20 C14 20.66 14 21.32 14 22 C14.66 22 15.32 22 16 22 C17.76171875 23.828125 17.76171875 23.828125 19.6875 26.25 C20.33074219 27.03890625 20.97398437 27.8278125 21.63671875 28.640625 C23 31 23 31 22.70703125 33.296875 C22.47371094 33.85890625 22.24039063 34.4209375 22 35 C20.5 33.625 20.5 33.625 19 32 C19 31.34 19 30.68 19 30 C18.01 29.67 17.02 29.34 16 29 C15.67 27.35 15.34 25.7 15 24 C14.01 24 13.02 24 12 24 C8.3681799 19.55102038 6.21901669 15.30634425 4 10 C2.9171875 8.4221875 2.9171875 8.4221875 1.8125 6.8125 C0 4 0 4 0 0 Z " fill="#F9C4A8" transform="translate(754,1090)"/>
<path d="M0 0 C4.17443363 3.50074982 8.3145494 6.97950843 12 11 C12 11.66 12 12.32 12 13 C12.5671875 13.23589844 13.134375 13.47179688 13.71875 13.71484375 C16.51774407 15.29167431 18.30122137 17.22080076 20.5 19.5625 C25.22545852 24.42196406 30.21120335 28.29757415 35.7265625 32.1875 C36.47679687 32.785625 37.22703125 33.38375 38 34 C38 34.66 38 35.32 38 36 C38.99 36.495 38.99 36.495 40 37 C27.92353961 35.13135601 13.30924076 16.58650633 5.1875 7.875 C4.66551025 7.31844727 4.14352051 6.76189453 3.60571289 6.18847656 C0 2.24784689 0 2.24784689 0 0 Z " fill="#FBCEA3" transform="translate(783,1130)"/>
<path d="M0 0 C5.55262043 -0.14237488 10.51410459 0.29496607 15.9375 1.4375 C20.42563864 2.33815426 24.87716874 3.17919839 29.4375 3.625 C33 4 33 4 34 5 C35.19625 5.12375 36.3925 5.2475 37.625 5.375 C41.88548769 5.84411507 45.14726063 7.15389572 49 9 C49 9.33 49 9.66 49 10 C39.16002306 10.7028555 29.90493008 7.77349436 20.56640625 4.96875 C16.42627437 3.84415777 12.28980212 3.0849839 8.0625 2.375 C6.89364258 2.17390625 6.89364258 2.17390625 5.70117188 1.96875 C3.80136729 1.6424032 1.90076363 1.32071377 0 1 C0 0.67 0 0.34 0 0 Z " fill="#F9BF9D" transform="translate(991,730)"/>
<path d="M0 0 C0.57105469 0.22300781 1.14210938 0.44601562 1.73046875 0.67578125 C-0.43228291 3.91990873 -1.57177288 4.57020074 -4.95703125 6.30078125 C-15.61422338 11.94447169 -26.02027066 17.88033398 -35.26953125 25.67578125 C-35.92953125 25.34578125 -36.58953125 25.01578125 -37.26953125 24.67578125 C-31.06197884 19.44683122 -24.61125291 14.77565607 -17.82470703 10.34301758 C-13.19023094 7.31568673 -8.71839209 4.12283713 -4.3203125 0.7578125 C-2.26953125 -0.32421875 -2.26953125 -0.32421875 0 0 Z " fill="#FAD0A5" transform="translate(846.26953125,755.32421875)"/>
<path d="M0 0 C-1.24663331 0.50833591 -2.49749387 1.00631145 -3.75 1.5 C-4.44609375 1.7784375 -5.1421875 2.056875 -5.859375 2.34375 C-8 3 -8 3 -12 3 C-12 3.99 -12 4.98 -12 6 C-20.20646113 8.14983091 -28.42172206 10.18697368 -36.75 11.8125 C-38.04421875 12.06644531 -39.3384375 12.32039063 -40.671875 12.58203125 C-43.59862769 12.94959291 -45.28030728 13.00958291 -48 12 C-41.83136162 10.43435574 -35.66412018 8.89297266 -29.4453125 7.5390625 C-24.2872959 6.40199175 -19.14534279 5.19289246 -14 4 C-14 3.34 -14 2.68 -14 2 C-12.42085985 1.46658816 -10.83645613 0.94874237 -9.25 0.4375 C-8.36828125 0.14746094 -7.4865625 -0.14257812 -6.578125 -0.44140625 C-3.92165684 -1.01697435 -2.52968894 -0.89248371 0 0 Z " fill="#F9BF9C" transform="translate(1089,1205)"/>
<path d="M0 0 C4.33029662 1.36299999 8.38915474 3.01421168 12.5 4.9375 C14.12421875 5.69353516 14.12421875 5.69353516 15.78125 6.46484375 C17.94408155 7.49638841 20.09268891 8.55825027 22.2265625 9.6484375 C24.87055491 10.93691831 27.10466333 11.57421519 30 12 C30 12.66 30 13.32 30 14 C31.98 14.66 33.96 15.32 36 16 C26.78802492 19.07065836 8.43620134 6.072281 0 2 C0 1.34 0 0.68 0 0 Z " fill="#F5ACAC" transform="translate(859,1192)"/>
<path d="M0 0 C4.13019527 3.22356704 7.53745331 6.62388012 10.9296875 10.609375 C13.95939713 14.10783215 17.11395455 17.48919135 20.26831055 20.87524414 C22.39504603 23.17477453 24.25736359 25.38604539 26 28 C22.14936584 26.43122312 19.84819869 23.9838272 17 21 C16.45472656 20.47535156 15.90945313 19.95070313 15.34765625 19.41015625 C13.86025405 17.97875037 12.42612994 16.49246156 11 15 C11 14.34 11 13.68 11 13 C10.401875 12.731875 9.80375 12.46375 9.1875 12.1875 C4.27085718 9.51846533 1.74417482 5.23252445 0 0 Z " fill="#F6AFAF" transform="translate(777,1125)"/>
<path d="M0 0 C2.93891969 3.47004976 4.53664969 7.34139228 6.25 11.5 C8.96671172 17.95071385 12.06728049 23.81763767 15.8125 29.7421875 C16.204375 30.48726562 16.59625 31.23234375 17 32 C16.67 32.66 16.34 33.32 16 34 C15.34 32.35 14.68 30.7 14 29 C13.34 29 12.68 29 12 29 C8.97884476 23.08299089 6.05315919 17.11869319 3.1875 11.125 C2.87353271 10.48296631 2.55956543 9.84093262 2.23608398 9.17944336 C0.63074163 5.79028838 0 3.83157374 0 0 Z " fill="#FACFA8" transform="translate(737,1056)"/>
<path d="M0 0 C0 0.66 0 1.32 0 2 C-8 6 -8 6 -16 10 C-16.68352539 10.36754395 -17.36705078 10.73508789 -18.07128906 11.11376953 C-20.47917293 12.22017693 -22.38130978 12.14548279 -25 12 C-21.56390835 7.85515837 -17.87391288 6.55453561 -12.9375 4.875 C-8.90903807 3.4684645 -3.95741277 0 0 0 Z " fill="#F7B1A7" transform="translate(1114,1192)"/>
<path d="M0 0 C0.66 0.33 1.32 0.66 2 1 C1.113125 1.721875 0.22625 2.44375 -0.6875 3.1875 C-2.76514917 4.90192379 -4.53156123 6.57352659 -6.375 8.5625 C-10.7941131 12.66596216 -15.97231595 15.24653949 -22 16 C-20.71256366 13.42512733 -19.47961008 13.05811839 -16.9375 11.75 C-12.26453034 9.23493034 -8.16760729 6.26626181 -4 3 C-2.66862781 1.99739047 -1.33580623 0.99669428 0 0 Z " fill="#F8B7A1" transform="translate(1139,1173)"/>
<path d="M0 0 C7.23983485 7.23983485 8.61410562 16.0246303 9 26 C5.99778216 21.49667324 4.68103975 17.42232421 5 12 C4.34 12 3.68 12 3 12 C2.01 8.04 1.02 4.08 0 0 Z " fill="#F6ABA7" transform="translate(1216,902)"/>
<path d="M0 0 C4.41387873 1.38566211 6.58203791 3.3813801 9.5625 6.875 C11.74318725 9.40716717 13.87073011 11.87538648 16.27734375 14.1953125 C18 16 18 16 18 18 C18.66 18 19.32 18 20 18 C21.625 20 21.625 20 23 22 C22.67 22.66 22.34 23.32 22 24 C17.48286321 20.27684925 13.96995819 17.07367858 11 12 C7.87680266 8.64520964 4.55593023 5.49341518 1.25 2.3203125 C0 1 0 1 0 0 Z " fill="#F4A8A7" transform="translate(1149,802)"/>
<path d="M0 0 C0 3.56229451 -0.76109009 4.41109679 -2.875 7.1875 C-3.40867187 7.90292969 -3.94234375 8.61835937 -4.4921875 9.35546875 C-4.98976563 9.89816406 -5.48734375 10.44085937 -6 11 C-6.66 11 -7.32 11 -8 11 C-8.18175781 11.62648438 -8.36351562 12.25296875 -8.55078125 12.8984375 C-8.80214844 13.71570313 -9.05351563 14.53296875 -9.3125 15.375 C-9.55613281 16.18710937 -9.79976562 16.99921875 -10.05078125 17.8359375 C-11 20 -11 20 -14 22 C-13.41892368 18.2397015 -12.34800504 15.46964968 -10.4375 12.1875 C-9.98246094 11.39730469 -9.52742187 10.60710938 -9.05859375 9.79296875 C-8.70925781 9.20128906 -8.35992188 8.60960937 -8 8 C-7.34 8 -6.68 8 -6 8 C-5.855625 7.38125 -5.71125 6.7625 -5.5625 6.125 C-5 4 -5 4 -4 2 C-1.9375 0.875 -1.9375 0.875 0 0 Z " fill="#F5ABB1" transform="translate(763,824)"/>
<path d="M0 0 C0.66 0.66 1.32 1.32 2 2 C-1.08809695 3.76462683 -2.23312136 4 -6 4 C-6 4.66 -6 5.32 -6 6 C-10.29 6.99 -14.58 7.98 -19 9 C-18 6 -18 6 -16.23413086 5.10864258 C-15.48526611 4.87298584 -14.73640137 4.6373291 -13.96484375 4.39453125 C-13.15595703 4.13349609 -12.34707031 3.87246094 -11.51367188 3.60351562 C-10.66353516 3.34248047 -9.81339844 3.08144531 -8.9375 2.8125 C-7.65649414 2.40354492 -7.65649414 2.40354492 -6.34960938 1.98632812 C-4.23624531 1.31335745 -2.11996032 0.65183324 0 0 Z " fill="#EB8AA1" transform="translate(406,555)"/>
<path d="M0 0 C0.66 0.33 1.32 0.66 2 1 C-12.46508605 16.21113633 -12.46508605 16.21113633 -21 20 C-21 19.34 -21 18.68 -21 18 C-19.34516392 16.50122497 -17.62409488 15.07511527 -15.875 13.6875 C-14.87082031 12.883125 -13.86664062 12.07875 -12.83203125 11.25 C-11.89746094 10.5075 -10.96289062 9.765 -10 9 C-6.49420574 6.15554218 -3.13590872 3.25652059 0 0 Z " fill="#FCCF88" transform="translate(1162,1152)"/>
<path d="M0 0 C4.8274799 1.41292095 8.7162359 3.42974154 13 6 C13 6.66 13 7.32 13 8 C13.556875 8.0825 14.11375 8.165 14.6875 8.25 C17.69714206 9.22610013 19.62154752 10.95188814 22 13 C16.14901017 11.69978004 11.26388679 9.12393033 6.1875 6 C5.59001953 5.64421875 4.99253906 5.2884375 4.37695312 4.921875 C2.88109586 4.00555558 1.43522138 3.00864753 0 2 C0 1.34 0 0.68 0 0 Z " fill="#F3A6A7" transform="translate(1090,759)"/>
<path d="M0 0 C0.66 0 1.32 0 2 0 C6.38297872 19.23404255 6.38297872 19.23404255 4 24 C3.34 24 2.68 24 2 24 C1.34 16.08 0.68 8.16 0 0 Z " fill="#F978AD" transform="translate(591,519)"/>
<path d="M0 0 C2.98162648 2.68064211 4.99718996 5.84817485 7.1875 9.1875 C7.90292969 10.27417969 8.61835937 11.36085938 9.35546875 12.48046875 C9.89816406 13.31191406 10.44085937 14.14335938 11 15 C10.67 15.66 10.34 16.32 10 17 C5.86465045 13.21910898 2.39019887 9.11604268 0 4 C0 2.68 0 1.36 0 0 Z " fill="#FACBA8" transform="translate(754,1090)"/>
<path d="M0 0 C1.65 0 3.3 0 5 0 C5 0.99 5 1.98 5 3 C2.39688008 3.67099984 -0.20735398 4.33695338 -2.8125 5 C-3.55048828 5.19078125 -4.28847656 5.3815625 -5.04882812 5.578125 C-8.10535341 6.35262914 -10.83373478 7 -14 7 C-14 6.34 -14 5.68 -14 5 C-7.07 3.515 -7.07 3.515 0 2 C0 1.34 0 0.68 0 0 Z " fill="#F791B3" transform="translate(1403,1665)"/>
<path d="M0 0 C6.93998648 2.16163513 13.43117569 4.8936214 20 8 C20 8.66 20 9.32 20 10 C13.04635089 7.86041566 6.04841126 5.09731085 0 1 C0 0.67 0 0.34 0 0 Z " fill="#F7BB9C" transform="translate(1070,751)"/>
<path d="M0 0 C1.65 0.33 3.3 0.66 5 1 C2.72402354 3.49552403 0.39278822 5.06622986 -2.5625 6.6875 C-3.34753906 7.12449219 -4.13257813 7.56148437 -4.94140625 8.01171875 C-7 9 -7 9 -9 9 C-7.74874616 5.24623848 -6.4347596 4.75926711 -3 3 C-2.34 3 -1.68 3 -1 3 C-0.67 2.01 -0.34 1.02 0 0 Z " fill="#FBCA8D" transform="translate(1112,1188)"/>
<path d="M0 0 C3.42025316 3.42025316 3.95344801 7.71982025 4.125 12.4375 C4.08375 13.283125 4.0425 14.12875 4 15 C2.35 14.67 0.7 14.34 -1 14 C-0.4740625 12.7625 -0.4740625 12.7625 0.0625 11.5 C1.22335775 7.16613108 0.75705178 4.39090031 0 0 Z " fill="#FCD17B" transform="translate(1215,902)"/>
<path d="M0 0 C1.0326802 2.78823655 1.04509293 3.8677274 0.0625 6.75 C-0.288125 7.4925 -0.63875 8.235 -1 9 C-1.66 9 -2.32 9 -3 9 C-4.485 14.94 -4.485 14.94 -6 21 C-6.937181 17.25127601 -7.03326277 15.90245438 -6.25 12.3125 C-6.09015625 11.52488281 -5.9303125 10.73726562 -5.765625 9.92578125 C-5.51296875 9.29027344 -5.2603125 8.65476562 -5 8 C-4.01 7.67 -3.02 7.34 -2 7 C-1.855625 6.21625 -1.71125 5.4325 -1.5625 4.625 C-1 2 -1 2 0 0 Z " fill="#F8B4B3" transform="translate(738,865)"/>
<path d="M0 0 C0.66 0 1.32 0 2 0 C3.64800856 3.66447432 4.33580973 6.81203466 4.625 10.8125 C4.69976563 11.78832031 4.77453125 12.76414062 4.8515625 13.76953125 C4.90054687 14.50558594 4.94953125 15.24164063 5 16 C4.34 16 3.68 16 3 16 C0.72321429 7.96428571 0.72321429 7.96428571 2 4 C1.34 4 0.68 4 0 4 C0 2.68 0 1.36 0 0 Z " fill="#F186AD" transform="translate(1247,482)"/>
<path d="M0 0 C2.68206482 2.47575214 5.03528159 5.15480404 7.3125 8 C8.11107422 8.99 8.11107422 8.99 8.92578125 10 C10 12 10 12 9.66796875 14.25 C9.44753906 14.8275 9.22710938 15.405 9 16 C8.0234375 14.20963542 7.046875 12.41927083 6.0703125 10.62890625 C5.08589976 8.83381685 5.08589976 8.83381685 3 8 C3 7.01 3 6.02 3 5 C2.34 5 1.68 5 1 5 C0.67 3.35 0.34 1.7 0 0 Z " fill="#F8B99D" transform="translate(1190,852)"/>
<path d="M0 0 C-1.93108878 1.50894379 -3.86906006 3.00711534 -5.8125 4.5 C-6.35970703 4.92925781 -6.90691406 5.35851562 -7.47070312 5.80078125 C-11.66015625 9 -11.66015625 9 -15 9 C-6.01794616 -3.00897308 -6.01794616 -3.00897308 0 0 Z " fill="#F5B5AB" transform="translate(822,771)"/>
<path d="M0 0 C0.33 0.99 0.66 1.98 1 3 C-0.43359375 5.26171875 -0.43359375 5.26171875 -2.4375 7.6875 C-3.09621094 8.49574219 -3.75492187 9.30398438 -4.43359375 10.13671875 C-4.95050781 10.75160156 -5.46742188 11.36648438 -6 12 C-6.66 11.34 -7.32 10.68 -8 10 C-5.36 6.7 -2.72 3.4 0 0 Z " fill="#FB92B3" transform="translate(265,653)"/>
<path d="M0 0 C0.99 0.66 1.98 1.32 3 2 C1.68 2.33 0.36 2.66 -1 3 C-1 3.66 -1 4.32 -1 5 C-3.31 6.32 -5.62 7.64 -8 9 C-8 7.68 -8 6.36 -8 5 C-6.25 3.515625 -6.25 3.515625 -4 2.25 C-3.2575 1.82203125 -2.515 1.3940625 -1.75 0.953125 C-1.1725 0.63859375 -0.595 0.3240625 0 0 Z " fill="#F887B0" transform="translate(747,234)"/>
<path d="M0 0 C-4.50332676 3.00221784 -8.57767579 4.31896025 -14 4 C-14 3.34 -14 2.68 -14 2 C-9.35150485 -0.3992233 -5.08913926 -0.19957409 0 0 Z " fill="#F6AEAF" transform="translate(894,737)"/>
<path d="M0 0 C-3.13269705 3.13269705 -5.97328423 3.05494397 -10.25 3.0625 C-12.10625 3.0315625 -12.10625 3.0315625 -14 3 C-9.85211179 -1.14788821 -5.49312659 -1.30788728 0 0 Z " fill="#F196A6" transform="translate(1376,1673)"/>
<path d="M0 0 C0.33 0 0.66 0 1 0 C1.08912219 3.83225427 0.87867729 7.26562152 0 11 C-0.99 11 -1.98 11 -3 11 C-2.67 8.03 -2.34 5.06 -2 2 C-1.34 2 -0.68 2 0 2 C0 1.34 0 0.68 0 0 Z " fill="#FC86B0" transform="translate(335,1304)"/>
<path d="M0 0 C1.32 0 2.64 0 4 0 C4 0.66 4 1.32 4 2 C2.54462432 2.83848804 1.08559627 3.67063934 -0.375 4.5 C-1.59316406 5.19609375 -1.59316406 5.19609375 -2.8359375 5.90625 C-5 7 -5 7 -7 7 C-7 6.34 -7 5.68 -7 5 C-6.34 5 -5.68 5 -5 5 C-5 4.01 -5 3.02 -5 2 C-3.35 2.33 -1.7 2.66 0 3 C0 2.01 0 1.02 0 0 Z " fill="#EE7FA2" transform="translate(1561,1086)"/>
<path d="M0 0 C1.70884005 1.62339805 3.37446717 3.29319053 5 5 C5 5.66 5 6.32 5 7 C5.99 7.33 6.98 7.66 8 8 C9.1875 10.5625 9.1875 10.5625 10 13 C6.37114422 11.54845769 4.84567327 9.7599362 2.75 6.5 C1.96882813 5.30890625 1.96882813 5.30890625 1.171875 4.09375 C0 2 0 2 0 0 Z " fill="#FAC68D" transform="translate(1180,839)"/>
<path d="M0 0 C0.33 0.66 0.66 1.32 1 2 C3.97851562 1.90234375 3.97851562 1.90234375 6.95703125 1.8046875 C9 2 9 2 12 4 C12 4.66 12 5.32 12 6 C7.38 5.01 2.76 4.02 -2 3 C-1.34 2.67 -0.68 2.34 0 2 C0 1.34 0 0.68 0 0 Z " fill="#FD829A" transform="translate(583,1665)"/>
<path d="M0 0 C0 0.66 0 1.32 0 2 C-2.97 3.32 -5.94 4.64 -9 6 C-9.33 5.01 -9.66 4.02 -10 3 C-6.27034861 0.96564469 -4.33094958 0 0 0 Z " fill="#EF899F" transform="translate(823,1646)"/>
<path d="M0 0 C1.23556641 0.01740234 1.23556641 0.01740234 2.49609375 0.03515625 C3.32238281 0.04417969 4.14867187 0.05320312 5 0.0625 C5.63808594 0.07410156 6.27617188 0.08570313 6.93359375 0.09765625 C2.65985377 2.23452624 0.16435753 3.21661862 -4.69140625 3.16015625 C-5.69429687 3.15113281 -6.6971875 3.14210938 -7.73046875 3.1328125 C-8.50132813 3.12121094 -9.2721875 3.10960937 -10.06640625 3.09765625 C-10.06640625 2.76765625 -10.06640625 2.43765625 -10.06640625 2.09765625 C-8.93203125 1.95328125 -7.79765625 1.80890625 -6.62890625 1.66015625 C-3.60888417 1.18331066 -2.70258268 0.1277213 0 0 Z " fill="#FAC896" transform="translate(1034.06640625,1217.90234375)"/>
<path d="M0 0 C0.433125 0.474375 0.86625 0.94875 1.3125 1.4375 C3.02309613 3.23686957 3.02309613 3.23686957 6 4 C6.33 6.97 6.66 9.94 7 13 C5 11 5 11 3.5 7.9375 C2.32219888 4.91393318 2.32219888 4.91393318 0 4 C0 2.68 0 1.36 0 0 Z " fill="#FBC98E" transform="translate(1196,864)"/>
<path d="M0 0 C7.42857143 -0.14285714 7.42857143 -0.14285714 11 1 C11 1.66 11 2.32 11 3 C11.66 3.33 12.32 3.66 13 4 C11.58297487 3.85769192 10.1663904 3.71099254 8.75 3.5625 C7.56664062 3.44068359 7.56664062 3.44068359 6.359375 3.31640625 C4.17635361 3.02365007 2.1226818 2.57935581 0 2 C0 1.34 0 0.68 0 0 Z " fill="#FC88A7" transform="translate(602,1671)"/>
<path d="M0 0 C0.99 0.33 1.98 0.66 3 1 C2.01 3.97 1.02 6.94 0 10 C-0.66 9.67 -1.32 9.34 -2 9 C-1.41196203 5.97580475 -0.77321882 2.98241547 0 0 Z " fill="#F887B6" transform="translate(1599,1445)"/>
<path d="M0 0 C0.99 0.33 1.98 0.66 3 1 C3.33 3.31 3.66 5.62 4 8 C3.01 8 2.02 8 1 8 C-0.35439668 5.29120665 -0.06501451 2.99066732 0 0 Z " fill="#FEB5CD" transform="translate(202,867)"/>
<path d="M0 0 C0.66 0.66 1.32 1.32 2 2 C0.625 4.5 0.625 4.5 -1 7 C-1.66 7 -2.32 7 -3 7 C-3 7.99 -3 8.98 -3 10 C-3.66 10 -4.32 10 -5 10 C-3.84414715 6.08788267 -2.64465038 3.1254959 0 0 Z " fill="#FC84A9" transform="translate(636,342)"/>
<path d="M0 0 C0.99 0.66 1.98 1.32 3 2 C0.69 3.65 -1.62 5.3 -4 7 C-4 6.34 -4 5.68 -4 5 C-4.66 4.67 -5.32 4.34 -6 4 C-4.02 2.68 -2.04 1.36 0 0 Z " fill="#FA93B2" transform="translate(717,255)"/>
<path d="M0 0 C0 0.66 0 1.32 0 2 C-3.82989106 3.80230168 -6.78121808 4.19622241 -11 4 C-7.70333541 0.70333541 -4.58106555 -1.52702185 0 0 Z " fill="#F679A3" transform="translate(785,216)"/>
<path d="M0 0 C0 0.33 0 0.66 0 1 C-4.3164922 1.76173392 -7.74433453 2.16063604 -12 1 C-12 0.34 -12 -0.32 -12 -1 C-7.47907032 -2.45606519 -4.48351204 -1.27032841 0 0 Z " fill="#F78EB3" transform="translate(916,191)"/>
<path d="M0 0 C0.66 0 1.32 0 2 0 C1.88637738 1.4800841 1.75877092 2.95910074 1.625 4.4375 C1.52058594 5.67306641 1.52058594 5.67306641 1.4140625 6.93359375 C1.27742188 7.61550781 1.14078125 8.29742188 1 9 C0.01 9.495 0.01 9.495 -1 10 C-2.15837626 5.94568308 -1.83691257 3.78187881 0 0 Z " fill="#F698B1" transform="translate(351,1242)"/>
<path d="M0 0 C1.60938465 2.41407698 2.65490738 4.34044437 3.6875 7 C3.95949219 7.680625 4.23148438 8.36125 4.51171875 9.0625 C5 11 5 11 4 14 C1.28608722 9.22642128 -0.56561146 5.65611463 0 0 Z " fill="#FBD0AB" transform="translate(732,1042)"/>
<path d="M0 0 C-0.1875 1.875 -0.1875 1.875 -1 4 C-3.5625 5.25 -3.5625 5.25 -6 6 C-6.33 5.01 -6.66 4.02 -7 3 C-2.25 0 -2.25 0 0 0 Z " fill="#F789AD" transform="translate(734,244)"/>
<path d="M0 0 C0.33 0 0.66 0 1 0 C1.33 3.63 1.66 7.26 2 11 C1.34 11 0.68 11 0 11 C-0.19491452 9.54263913 -0.38069358 8.08405407 -0.5625 6.625 C-0.66691406 5.81289062 -0.77132813 5.00078125 -0.87890625 4.1640625 C-1 2 -1 2 0 0 Z " fill="#F881A8" transform="translate(1605,1349)"/>
<path d="M0 0 C0.93045933 2.55144824 1.08564091 3.74006478 0.22265625 6.359375 C-0.16019531 7.14828125 -0.54304688 7.9371875 -0.9375 8.75 C-1.50791016 9.94882813 -1.50791016 9.94882813 -2.08984375 11.171875 C-2.39019531 11.77515625 -2.69054688 12.3784375 -3 13 C-3.33 13 -3.66 13 -4 13 C-3.50269348 8.02693484 -2.44697666 4.36200187 0 0 Z " fill="#FBD089" transform="translate(1212,1077)"/>
<path d="M0 0 C0.66 0.66 1.32 1.32 2 2 C1.64644564 4.26274788 1.02455574 5.95088852 0 8 C-0.66 8 -1.32 8 -2 8 C-2 8.66 -2 9.32 -2 10 C-2.66 9.67 -3.32 9.34 -4 9 C-2.68 6.03 -1.36 3.06 0 0 Z " fill="#FA81AB" transform="translate(238,694)"/>
<path d="M0 0 C-4.455 2.97 -4.455 2.97 -9 6 C-9 4.68 -9 3.36 -9 2 C-5.42360595 -0.88098409 -4.60497497 -1.15124374 0 0 Z " fill="#F395A9" transform="translate(334,591)"/>
<path d="M0 0 C-4.13378595 2.7558573 -6.05203546 3.10756445 -11 3 C-11 2.34 -11 1.68 -11 1 C-7.32589215 -0.17571451 -3.83070817 -0.07366746 0 0 Z " fill="#F291B0" transform="translate(786,1662)"/>
<path d="M0 0 C3.78786597 0.5260925 6.17152224 1.38103911 9 4 C9 4.66 9 5.32 9 6 C5.06326356 4.68775452 2.77280706 3.08089673 0 0 Z " fill="#FD8A9F" transform="translate(1078,1604)"/>
<path d="M0 0 C2.475 0.495 2.475 0.495 5 1 C5 2.32 5 3.64 5 5 C5.66 5 6.32 5 7 5 C7 5.66 7 6.32 7 7 C4.13302508 5.71480435 2.02392288 4.42870746 0 2 C0 1.34 0 0.68 0 0 Z " fill="#F896B1" transform="translate(415,1570)"/>
<path d="M0 0 C0 0.66 0 1.32 0 2 C-4.95 3.485 -4.95 3.485 -10 5 C-9.67 4.01 -9.34 3.02 -9 2 C-5.82757352 0.68964993 -3.44118336 0 0 0 Z " fill="#FB8BA6" transform="translate(397,559)"/>
<path d="M0 0 C2.31 0.66 4.62 1.32 7 2 C7.33 3.32 7.66 4.64 8 6 C6.68 5.67 5.36 5.34 4 5 C4 4.34 4 3.68 4 3 C2.68 2.67 1.36 2.34 0 2 C0 1.34 0 0.68 0 0 Z " fill="#F587A4" transform="translate(1586,534)"/>
<path d="M0 0 C3.00617269 3.00617269 2.59585316 5.82381598 3 10 C2.01 10 1.02 10 0 10 C0 6.7 0 3.4 0 0 Z " fill="#F193AE" transform="translate(591,502)"/>
<path d="M0 0 C2.31 0.33 4.62 0.66 7 1 C7.33 2.65 7.66 4.3 8 6 C6.66402348 5.19185349 5.331275 4.37836819 4 3.5625 C3.2575 3.11003906 2.515 2.65757813 1.75 2.19140625 C1.1725 1.79824219 0.595 1.40507813 0 1 C0 0.67 0 0.34 0 0 Z " fill="#FE8893" transform="translate(470,1615)"/>
<path d="M0 0 C0.33 0.66 0.66 1.32 1 2 C1.66 2 2.32 2 3 2 C4.6875 4.25 4.6875 4.25 6 7 C5.58203125 9.171875 5.58203125 9.171875 5 11 C4.15841464 9.73461631 3.32700252 8.46246221 2.5 7.1875 C1.80390625 6.12595703 1.80390625 6.12595703 1.09375 5.04296875 C0 3 0 3 0 0 Z " fill="#F6B1B0" transform="translate(748,1083)"/>
<path d="M0 0 C2 1 2 1 3.1875 3.9375 C4 7 4 7 3 9 C2.34 9 1.68 9 1 9 C0.63877119 7.68942607 0.28619689 6.37646376 -0.0625 5.0625 C-0.35833984 3.96615234 -0.35833984 3.96615234 -0.66015625 2.84765625 C-0.77230469 2.23792969 -0.88445312 1.62820313 -1 1 C-0.67 0.67 -0.34 0.34 0 0 Z " fill="#FFBCDC" transform="translate(213,928)"/>
<path d="M0 0 C4.455 0.99 4.455 0.99 9 2 C8.67 2.66 8.34 3.32 8 4 C5.03 3.67 2.06 3.34 -1 3 C-0.67 2.01 -0.34 1.02 0 0 Z " fill="#F585C0" transform="translate(1493,492)"/>
<path d="M0 0 C0.99 0.66 1.98 1.32 3 2 C1.35 3.98 -0.3 5.96 -2 8 C-2.6875 6.25 -2.6875 6.25 -3 4 C-1.5625 1.75 -1.5625 1.75 0 0 Z " fill="#FD7A9B" transform="translate(656,313)"/>
<path d="M0 0 C0.33 0.99 0.66 1.98 1 3 C0.34 3 -0.32 3 -1 3 C-1.66 4.32 -2.32 5.64 -3 7 C-3.99 6.67 -4.98 6.34 -6 6 C-6 5.34 -6 4.68 -6 4 C-4.03852126 2.61061923 -2.03833424 1.2739589 0 0 Z " fill="#FC8AB4" transform="translate(725,249)"/>
<path d="M0 0 C0.33 0.99 0.66 1.98 1 3 C-1.31 3.33 -3.62 3.66 -6 4 C-5.67 3.01 -5.34 2.02 -5 1 C-3 0 -3 0 0 0 Z " fill="#FA92A8" transform="translate(1316,1677)"/>
<path d="M0 0 C2.31 0.33 4.62 0.66 7 1 C7 1.66 7 2.32 7 3 C7.66 3 8.32 3 9 3 C9 3.66 9 4.32 9 5 C5.22454612 3.90931332 2.52956528 3.0916909 0 0 Z " fill="#FE8DAB" transform="translate(493,1629)"/>
<path d="M0 0 C0.66 0 1.32 0 2 0 C2 3 2 3 0 5.1875 C-0.66 5.785625 -1.32 6.38375 -2 7 C-2.99 6.67 -3.98 6.34 -5 6 C-5 5.34 -5 4.68 -5 4 C-4.01 4 -3.02 4 -2 4 C-2 3.34 -2 2.68 -2 2 C-1.34 2 -0.68 2 0 2 C0 1.34 0 0.68 0 0 Z " fill="#FA72AA" transform="translate(1642,1027)"/>
<path d="M0 0 C0.66 0 1.32 0 2 0 C2.33 2.31 2.66 4.62 3 7 C2.01 6.67 1.02 6.34 0 6 C-0.75 4.0625 -0.75 4.0625 -1 2 C-0.67 1.34 -0.34 0.68 0 0 Z " fill="#F495AD" transform="translate(1728,880)"/>
<path d="M0 0 C3 1 3 1 4.75 3.9375 C5.1625 4.948125 5.575 5.95875 6 7 C5.67 7.66 5.34 8.32 5 9 C4.16094435 7.87926138 3.32892169 6.75325453 2.5 5.625 C2.0359375 4.99851562 1.571875 4.37203125 1.09375 3.7265625 C0 2 0 2 0 0 Z " fill="#F5ABA1" transform="translate(1177,832)"/>
<path d="M0 0 C0.66 0.33 1.32 0.66 2 1 C2 1.66 2 2.32 2 3 C-0.64738916 4.4606285 -1.89448334 5 -5 5 C-4.1875 3.0625 -4.1875 3.0625 -3 1 C-2.01 0.67 -1.02 0.34 0 0 Z " fill="#F87DAC" transform="translate(363,571)"/>
<path d="M0 0 C0 3.20395416 -0.74335022 5.09399739 -2 8 C-3.32 7.67 -4.64 7.34 -6 7 C-4.02 4.69 -2.04 2.38 0 0 Z " fill="#FC707F" transform="translate(666,301)"/>
<path d="M0 0 C1.98 0.99 3.96 1.98 6 3 C6 3.33 6 3.66 6 4 C2.7 3.67 -0.6 3.34 -4 3 C-2.68 2.01 -1.36 1.02 0 0 Z " fill="#FB7A8E" transform="translate(644,1676)"/>
<path d="M0 0 C1.32 0.33 2.64 0.66 4 1 C4.33 2.98 4.66 4.96 5 7 C1.18461538 4.53846154 1.18461538 4.53846154 0.25 1.8125 C0.1675 1.214375 0.085 0.61625 0 0 Z " fill="#F48EAB" transform="translate(1045,1575)"/>
<path d="M0 0 C0.66 0.33 1.32 0.66 2 1 C-1.19990508 3.74277578 -4.00499382 5.6302836 -8 7 C-5.42215154 4.35247996 -3.08351902 2.05567935 0 0 Z " fill="#F8AAB0" transform="translate(1143,1172)"/>
<path d="M0 0 C3.16115776 1.36983503 3.9927092 1.9890638 6 5 C5.625 7.1875 5.625 7.1875 5 9 C4.16094435 7.87926138 3.32892169 6.75325453 2.5 5.625 C2.0359375 4.99851562 1.571875 4.37203125 1.09375 3.7265625 C0 2 0 2 0 0 Z " fill="#F7B3AF" transform="translate(761,1105)"/>
<path d="M0 0 C1.98 0.99 1.98 0.99 4 2 C4 4.31 4 6.62 4 9 C1.49701566 6.06171403 0.53069061 3.82097239 0 0 Z " fill="#FF7DB4" transform="translate(223,962)"/>
<path d="M0 0 C0.33 0 0.66 0 1 0 C1 2.64 1 5.28 1 8 C0.34 8 -0.32 8 -1 8 C-1.33 8.66 -1.66 9.32 -2 10 C-1.125 2.25 -1.125 2.25 0 0 Z " fill="#F7AEB4" transform="translate(727,891)"/>
<path d="M0 0 C-0.99 0.495 -0.99 0.495 -2 1 C-2 1.66 -2 2.32 -2 3 C-4.64 2.67 -7.28 2.34 -10 2 C-6.3558226 -0.4294516 -4.28758728 -0.16179575 0 0 Z " fill="#F57FBA" transform="translate(1301,1678)"/>
<path d="M0 0 C0 0.66 0 1.32 0 2 C-2.31 2 -4.62 2 -7 2 C-7 1.34 -7 0.68 -7 0 C-4.3333581 -1.33332095 -2.83319697 -0.67102033 0 0 Z " fill="#F78AB5" transform="translate(730,1675)"/>
<path d="M0 0 C1.32 0.66 2.64 1.32 4 2 C2.02 3.32 0.04 4.64 -2 6 C-2.66 5.67 -3.32 5.34 -4 5 C-3.01 4.67 -2.02 4.34 -1 4 C-0.26676204 1.98491642 -0.26676204 1.98491642 0 0 Z " fill="#FEB1D8" transform="translate(854,1626)"/>
<path d="M0 0 C2.35171131 0.59861742 4.6859378 1.26924352 7 2 C7.33 2.66 7.66 3.32 8 4 C5.69 3.67 3.38 3.34 1 3 C0.67 2.01 0.34 1.02 0 0 Z " fill="#F9C4A7" transform="translate(841,1181)"/>
<path d="M0 0 C0.99 0 1.98 0 3 0 C2.67 1.65 2.34 3.3 2 5 C1.01 5 0.02 5 -1 5 C-0.67 3.35 -0.34 1.7 0 0 Z " fill="#FEDD7D" transform="translate(1167,952)"/>
<path d="M0 0 C0.99 0 1.98 0 3 0 C2.67 2.31 2.34 4.62 2 7 C1.34 7 0.68 7 0 7 C0 4.69 0 2.38 0 0 Z " fill="#F797A5" transform="translate(1733,863)"/>
<path d="M0 0 C0.33 0 0.66 0 1 0 C1.19491452 1.45736087 1.38069358 2.91594593 1.5625 4.375 C1.66691406 5.18710937 1.77132812 5.99921875 1.87890625 6.8359375 C2 9 2 9 1 11 C0.34 11 -0.32 11 -1 11 C-0.67 7.37 -0.34 3.74 0 0 Z " fill="#FFA0D6" transform="translate(202,846)"/>
<path d="M0 0 C4.75 0.75 4.75 0.75 7 3 C5.1875 3.625 5.1875 3.625 3 4 C2.01 3.34 1.02 2.68 0 2 C0 1.34 0 0.68 0 0 Z " fill="#FA8595" transform="translate(1536,508)"/>
<path d="M0 0 C2.64 0.99 5.28 1.98 8 3 C7.67 3.66 7.34 4.32 7 5 C4.625 4.75 4.625 4.75 2 4 C0.6875 1.9375 0.6875 1.9375 0 0 Z " fill="#FB839E" transform="translate(1013,212)"/>
<path d="M0 0 C-2.35968744 2.09749995 -3.54616994 2.96905704 -6.75 3.1875 C-7.86375 3.0946875 -7.86375 3.0946875 -9 3 C-9 2.34 -9 1.68 -9 1 C-5.92677456 0.08941469 -3.19902639 -0.08886184 0 0 Z " fill="#F782AF" transform="translate(838,198)"/>
</svg>
